<?xml version="1.0" encoding="utf-8"?>
<!-- Generator: Adobe Illustrator 25.0.1, SVG Export Plug-In . SVG Version: 6.00 Build 0)  -->
<svg version="1.1" id="Calque_1" xmlns="http://www.w3.org/2000/svg" xmlns:xlink="http://www.w3.org/1999/xlink" x="0px" y="0px"
	 viewBox="0 0 179.9 153.2" style="enable-background:new 0 0 179.9 153.2;" xml:space="preserve">
<style type="text/css">
	.st0{fill:url(#SVGID_1_);}
	.st1{fill:url(#SVGID_2_);}
	.st2{fill:url(#SVGID_3_);}
	.st3{fill:url(#SVGID_4_);}
	.st4{fill:url(#SVGID_5_);}
	.st5{fill:url(#SVGID_6_);}
	.st6{fill:url(#SVGID_7_);}
	.st7{fill:url(#SVGID_8_);}
	.st8{fill:url(#SVGID_9_);}
	.st9{fill:url(#SVGID_10_);}
	.st10{fill:url(#SVGID_11_);}
	.st11{fill:url(#SVGID_12_);}
	.st12{fill:url(#SVGID_13_);}
	.st13{fill:url(#SVGID_14_);}
	.st14{fill:url(#SVGID_15_);}
	.st15{fill:url(#SVGID_16_);}
	.st16{fill:url(#SVGID_17_);}
	.st17{fill:url(#SVGID_18_);}
	.st18{fill:url(#SVGID_19_);}
	.st19{fill:url(#SVGID_20_);}
	.st20{fill:url(#SVGID_21_);}
	.st21{fill:url(#SVGID_22_);}
	.st22{fill:url(#SVGID_23_);}
	.st23{fill:url(#SVGID_24_);}
	.st24{fill:url(#SVGID_25_);}
	.st25{fill:url(#SVGID_26_);}
	.st26{fill:url(#SVGID_27_);}
	.st27{fill:url(#SVGID_28_);}
	.st28{fill:url(#SVGID_29_);}
	.st29{fill:url(#SVGID_30_);}
	.st30{fill:url(#SVGID_31_);}
	.st31{fill:url(#SVGID_32_);}
	.st32{fill:url(#SVGID_33_);}
	.st33{fill:url(#SVGID_34_);}
	.st34{fill:url(#SVGID_35_);}
	.st35{fill:url(#SVGID_36_);}
	.st36{fill:url(#SVGID_37_);}
	.st37{fill:url(#SVGID_38_);}
	.st38{fill:url(#SVGID_39_);}
	.st39{fill:url(#SVGID_40_);}
	.st40{fill:url(#SVGID_41_);}
	.st41{fill:url(#SVGID_42_);}
	.st42{clip-path:url(#SVGID_45_);}
	.st43{fill:url(#SVGID_46_);}
	.st44{fill:url(#SVGID_47_);}
	.st45{fill:url(#SVGID_48_);}
	.st46{fill:url(#SVGID_49_);}
	.st47{clip-path:url(#SVGID_52_);}
	.st48{fill:url(#SVGID_53_);}
	.st49{clip-path:url(#SVGID_56_);}
	.st50{fill:url(#SVGID_57_);}
	.st51{fill:url(#SVGID_58_);}
	.st52{fill:url(#SVGID_59_);}
	.st53{fill:url(#SVGID_60_);}
	.st54{fill:url(#SVGID_61_);}
	.st55{fill:#E83189;}
	.st56{clip-path:url(#SVGID_64_);}
	.st57{fill:url(#SVGID_65_);}
	.st58{fill:#272252;}
	.st59{fill:url(#SVGID_66_);}
	.st60{fill:url(#SVGID_67_);}
	.st61{fill:url(#SVGID_68_);}
	.st62{fill:url(#SVGID_69_);}
	.st63{fill:url(#SVGID_70_);}
	.st64{fill:url(#SVGID_71_);}
	.st65{fill:url(#SVGID_72_);}
	.st66{fill:url(#SVGID_73_);}
	.st67{fill:url(#SVGID_74_);}
	.st68{fill:url(#SVGID_75_);}
	.st69{fill:url(#SVGID_76_);}
	.st70{fill:url(#SVGID_77_);}
	.st71{fill:url(#SVGID_78_);}
	.st72{fill:#FFFFFF;}
	.st73{fill:url(#SVGID_79_);}
	.st74{fill:url(#SVGID_80_);}
	.st75{fill:url(#SVGID_81_);}
	.st76{fill:url(#SVGID_82_);}
	.st77{fill:url(#SVGID_83_);}
	.st78{fill:url(#SVGID_84_);}
	.st79{fill:url(#SVGID_85_);}
	.st80{fill:url(#SVGID_86_);}
	.st81{fill:url(#SVGID_87_);}
	.st82{fill:url(#SVGID_88_);}
	.st83{fill:url(#SVGID_89_);}
	.st84{fill:url(#SVGID_90_);}
	.st85{fill:url(#SVGID_91_);}
	.st86{fill:url(#SVGID_92_);}
	.st87{fill:url(#SVGID_93_);}
	.st88{fill:url(#SVGID_94_);}
	.st89{fill:url(#SVGID_95_);}
	.st90{fill:url(#SVGID_96_);}
	.st91{fill:url(#SVGID_97_);}
	.st92{fill:url(#SVGID_98_);}
	.st93{fill:url(#SVGID_99_);}
	.st94{fill:url(#SVGID_100_);}
	.st95{fill:url(#SVGID_101_);}
	.st96{fill:url(#SVGID_102_);}
	.st97{fill:url(#SVGID_103_);}
	.st98{fill:url(#SVGID_104_);}
	.st99{fill:url(#SVGID_105_);}
	.st100{fill:url(#SVGID_106_);}
	.st101{fill:url(#SVGID_107_);}
	.st102{fill:url(#SVGID_108_);}
	.st103{fill:url(#SVGID_109_);}
	.st104{fill:url(#SVGID_110_);}
	.st105{fill:url(#SVGID_111_);}
	.st106{fill:url(#SVGID_112_);}
	.st107{fill:url(#SVGID_113_);}
	.st108{fill:url(#SVGID_114_);}
	.st109{fill:url(#SVGID_115_);}
	.st110{fill:url(#SVGID_116_);}
	.st111{fill:url(#SVGID_117_);}
	.st112{fill:url(#SVGID_118_);}
	.st113{fill:url(#SVGID_119_);}
	.st114{fill:url(#SVGID_120_);}
	.st115{clip-path:url(#SVGID_123_);}
	.st116{fill:url(#SVGID_124_);}
	.st117{fill:url(#SVGID_125_);}
	.st118{fill:url(#SVGID_126_);}
	.st119{fill:url(#SVGID_127_);}
	.st120{clip-path:url(#SVGID_130_);}
	.st121{fill:url(#SVGID_131_);}
	.st122{clip-path:url(#SVGID_134_);}
	.st123{fill:url(#SVGID_135_);}
	.st124{fill:url(#SVGID_136_);}
	.st125{fill:url(#SVGID_137_);}
	.st126{fill:url(#SVGID_138_);}
	.st127{fill:url(#SVGID_139_);}
	.st128{fill:#F8C5D1;}
	.st129{clip-path:url(#SVGID_142_);}
	.st130{fill:url(#SVGID_143_);}
	.st131{fill:url(#SVGID_144_);}
	.st132{fill:url(#SVGID_145_);}
	.st133{fill:url(#SVGID_146_);}
	.st134{fill:url(#SVGID_147_);}
	.st135{fill:url(#SVGID_148_);}
	.st136{fill:url(#SVGID_149_);}
	.st137{fill:url(#SVGID_150_);}
	.st138{fill:url(#SVGID_151_);}
	.st139{fill:url(#SVGID_152_);}
	.st140{fill:url(#SVGID_153_);}
	.st141{fill:url(#SVGID_154_);}
	.st142{fill:url(#SVGID_155_);}
	.st143{fill:url(#SVGID_156_);}
	.st144{fill:url(#SVGID_157_);}
	.st145{fill:url(#SVGID_158_);}
	.st146{fill:url(#SVGID_159_);}
	.st147{fill:url(#SVGID_160_);}
	.st148{fill:#282452;}
	.st149{fill:url(#SVGID_161_);}
	.st150{fill:url(#SVGID_162_);}
	.st151{fill-rule:evenodd;clip-rule:evenodd;fill:url(#SVGID_163_);}
	.st152{fill-rule:evenodd;clip-rule:evenodd;fill:url(#SVGID_164_);}
	.st153{fill-rule:evenodd;clip-rule:evenodd;fill:url(#SVGID_165_);}
	.st154{fill-rule:evenodd;clip-rule:evenodd;fill:#282452;}
	.st155{fill-rule:evenodd;clip-rule:evenodd;fill:url(#SVGID_166_);}
	.st156{fill-rule:evenodd;clip-rule:evenodd;fill:url(#SVGID_167_);}
	.st157{fill-rule:evenodd;clip-rule:evenodd;fill:url(#SVGID_168_);}
	.st158{fill-rule:evenodd;clip-rule:evenodd;fill:url(#SVGID_169_);}
	.st159{fill:url(#SVGID_170_);}
	.st160{fill-rule:evenodd;clip-rule:evenodd;fill:#194058;}
	.st161{fill:url(#SVGID_171_);}
	.st162{fill:url(#SVGID_172_);}
	.st163{fill:url(#SVGID_173_);}
	.st164{fill:url(#SVGID_174_);}
	.st165{fill:url(#SVGID_175_);}
	.st166{fill:url(#SVGID_176_);}
	.st167{clip-path:url(#SVGID_179_);}
	.st168{fill:url(#SVGID_180_);}
	.st169{fill:url(#SVGID_181_);}
	.st170{fill:url(#SVGID_182_);}
	.st171{fill-rule:evenodd;clip-rule:evenodd;fill:#123250;}
	.st172{fill-rule:evenodd;clip-rule:evenodd;fill:url(#SVGID_183_);}
	.st173{fill-rule:evenodd;clip-rule:evenodd;fill:#020203;}
	.st174{fill-rule:evenodd;clip-rule:evenodd;fill:url(#SVGID_184_);}
	.st175{fill-rule:evenodd;clip-rule:evenodd;fill:#B9897D;}
	.st176{fill-rule:evenodd;clip-rule:evenodd;fill:url(#SVGID_185_);}
	.st177{fill-rule:evenodd;clip-rule:evenodd;fill:#01568E;}
	.st178{fill:url(#SVGID_186_);}
	.st179{fill:url(#SVGID_187_);}
	.st180{fill:url(#SVGID_188_);}
	.st181{fill:url(#SVGID_189_);}
	.st182{fill:url(#SVGID_190_);}
	.st183{fill:url(#SVGID_191_);}
	.st184{fill:url(#SVGID_192_);}
	.st185{fill:url(#SVGID_193_);}
	.st186{fill:url(#SVGID_194_);}
	.st187{fill:#917971;}
	.st188{fill:url(#SVGID_195_);}
	.st189{fill:url(#SVGID_196_);}
	.st190{fill:url(#SVGID_197_);}
	.st191{fill:url(#SVGID_198_);}
	.st192{fill:url(#SVGID_199_);}
	.st193{clip-path:url(#SVGID_202_);}
	.st194{fill:url(#SVGID_203_);}
	.st195{fill:url(#SVGID_204_);}
	.st196{fill:url(#SVGID_205_);}
	.st197{fill:url(#SVGID_206_);}
	.st198{clip-path:url(#SVGID_209_);}
	.st199{fill:url(#SVGID_210_);}
	.st200{clip-path:url(#SVGID_213_);}
	.st201{fill:url(#SVGID_214_);}
	.st202{fill:url(#SVGID_215_);}
	.st203{fill:url(#SVGID_216_);}
	.st204{fill:url(#SVGID_217_);}
	.st205{fill:url(#SVGID_218_);}
	.st206{fill:url(#SVGID_222_);}
	.st207{fill:url(#SVGID_223_);}
	.st208{fill:url(#SVGID_224_);}
	.st209{fill:url(#SVGID_225_);}
	.st210{fill:url(#SVGID_226_);stroke:url(#SVGID_227_);stroke-miterlimit:10;}
	.st211{fill:url(#SVGID_228_);}
	.st212{fill:url(#SVGID_229_);}
	.st213{fill:url(#SVGID_230_);}
	.st214{fill:url(#SVGID_231_);}
	.st215{fill:url(#SVGID_232_);}
	.st216{fill:url(#SVGID_233_);}
	.st217{fill:url(#SVGID_234_);}
	.st218{fill:url(#SVGID_235_);}
	.st219{fill:url(#SVGID_236_);}
	.st220{fill:url(#SVGID_237_);}
	.st221{fill:url(#SVGID_238_);}
	.st222{opacity:0.85;}
	.st223{fill:url(#SVGID_239_);stroke:#A1A0A0;stroke-width:0.25;stroke-miterlimit:10;}
	.st224{opacity:0.8;fill:#B6DDD7;}
	.st225{fill:#3EAC50;}
	.st226{fill:#F0BF49;}
	.st227{fill:#D92A2B;}
	.st228{fill:url(#SVGID_240_);stroke:#A1A0A0;stroke-width:0.25;stroke-miterlimit:10;}
	.st229{fill:url(#SVGID_241_);}
	.st230{fill:url(#SVGID_242_);}
	.st231{fill:url(#SVGID_243_);}
	.st232{fill:url(#SVGID_244_);}
	.st233{fill:url(#SVGID_245_);}
	.st234{clip-path:url(#SVGID_248_);}
	.st235{fill:url(#SVGID_249_);}
	.st236{fill:url(#SVGID_250_);}
	.st237{fill:url(#SVGID_251_);}
	.st238{fill:url(#SVGID_252_);}
	.st239{fill:url(#SVGID_253_);}
	.st240{fill:url(#SVGID_254_);}
	.st241{fill:url(#SVGID_255_);}
	.st242{fill:url(#SVGID_256_);}
	.st243{fill:url(#SVGID_257_);}
	.st244{fill:url(#SVGID_258_);}
	.st245{fill:url(#SVGID_259_);}
	.st246{fill:url(#SVGID_260_);}
	.st247{fill:url(#SVGID_261_);}
	.st248{fill:url(#SVGID_262_);}
	.st249{fill:url(#SVGID_263_);}
	.st250{fill:url(#SVGID_264_);}
	.st251{fill:url(#SVGID_265_);}
	.st252{fill:url(#SVGID_266_);}
	.st253{fill:url(#SVGID_267_);}
	.st254{fill:url(#SVGID_268_);}
	.st255{fill:url(#SVGID_269_);}
	.st256{fill:none;stroke:#A1A0A0;stroke-width:0.25;stroke-miterlimit:10;}
	.st257{fill:url(#SVGID_270_);}
</style>
<g>
	<g>
		<g>
			<g transform="matrix(1.01336,0,0,0.947368,2027.71,21.5541)">
				<path class="st148" d="M-1879.8,83.2c-0.1,0.3-0.1-0.5-0.2-0.8c-0.1-0.5-0.1-0.9-0.1-1.4c-0.1-1.4,0-2.7,0.2-4.1
					c0.5-4,0.8-6.2,2.7-9.7c5.6-10.3,12.6-14.2,14.6-26.3c0.6-3.8,1.1-10.9-3.5-12.6c-6.9-2.5-10.1,8.6-11.3,13.1
					c-1.7,6.3-2.2,8.1-5.6,13.8c-2.4,4-5,5.4-7.9,9c-5.3,6.3-6.4,14.6-6.4,22.6"/>
			</g>
			<g transform="matrix(0.947368,0,0,0.947368,2121.33,21.5541)">
				<path class="st148" d="M-2111.9,76.6c0,0.4-0.4-1.3-0.4-1.4c-0.1-1.7,0-3.4,0-5.1c0-4.6-2.1-7.1,0.2-21.5
					c2.4-15.4,4.8-21.1,5.5-25.9c0.8-5.2,3.3-11.9-4.2-14.3c-4.1-1.4-9,2.3-11.5,5.1c-7.2,8.2-10.9,19.2-11.8,30
					c-0.3,4.2-0.5,8.3,0,12.5c0.2,1.4,0.4,2.7,0.6,4.1c0,0.5,0.6,1.9,0.2,1.6c-1.4-1.4-8.3-11.3-13.1-8.6
					c-7.7,4.4-1.7,23.1,1.9,30.8c0.2,0.5,4.5,7.8,4.7,7.8"/>
			</g>
			<g transform="matrix(0.947368,0,0,0.947368,2121.33,21.5541)">
				<path class="st148" d="M-2129.3,86.5c-0.9-0.9-2.4-1.3-3.4-2c-3.6-2.3-6.3-5-8-9c-4-9.4-0.5-20.3-4.9-29.6
					c-1.6-3.4-6.9-7.9-11-6c-4.2,1.9-5.5,6.7-5.8,10.9c-0.8,11.5,4.7,25.7,14.6,32.3c3.7,2.5,8.6,4.3,13,4.3c0.3,0,1.2,0.2,1.2-0.2"
					/>
			</g>
			<g transform="matrix(0.947368,0,0,0.947368,2121.33,21.5541)">
				<path class="st148" d="M-2141.6,123.5c-1.9-0.5-3.5-2.5-4.8-3.8c-6.7-7.1-10.2-15.3-13.9-24.1c-2.2-5.3-2.7-10.5-6.8-14.9
					c-5.9-6.5-15.6-10-22.6-3c-6.9,6.9,0.2,16.3,5.3,21.5c2.8,2.8,5.8,5.5,8.3,8.6c7.1,8.6,12,15.2,24,16.6c2.9,0.3,6.8,1.4,9.6,0"
					/>
			</g>
			<g transform="matrix(0.947368,0,0,0.947368,2143.62,33.3533)">
				
					<linearGradient id="SVGID_1_" gradientUnits="userSpaceOnUse" x1="-2592.8225" y1="29.0475" x2="-2592.051" y2="29.0475" gradientTransform="matrix(-16.0015 -53.2095 -53.2095 16.0015 -42062.168 -138339.8125)">
					<stop  offset="0" style="stop-color:#282452"/>
					<stop  offset="1" style="stop-color:#E73187"/>
				</linearGradient>
				<path class="st0" d="M-2139,92.1c-0.2,0.2,0.1-1.9,0.2-2.3c0.2-1.6,0.7-3.2,1.3-4.7c1.7-4.3,4.2-8.5,8.5-10.6
					c7.6-3.6,18.8-1.5,25.3,3.5c1.7,1.3,2.7,3,4.1,4.6c1.2,1.5,2.3,2.8,2.6,4.8c1.1,7.2-1.3,14.9-8.7,17.2c-2.4,0.7-5.2,0.7-7.5-0.4
					c-5.9-2.8-8.9-8.7-13.9-12.5c-2.4-1.9-6.6-4.6-9.4-1.8C-2137,90.2-2139,92.1-2139,92.1z"/>
			</g>
			<g transform="matrix(1.01336,0,0,0.947368,2027.71,21.5541)">
				<path class="st148" d="M-1920.5,92.1c0.1,0.2,0-0.5-0.1-0.8c-0.1-0.5-0.2-0.9-0.4-1.4c-0.4-1.3-0.9-2.6-1.5-3.8
					c-1.7-3.6-2.7-5.6-5.6-8.2c-8.6-7.7-16.4-8.7-22.1-19.3c-1.8-3.3-4.6-9.9-0.8-13.1c5.7-4.9,12.2,4.4,14.8,8.2
					c3.6,5.3,4.6,6.9,9.7,10.9c3.6,2.9,6.4,3.3,10.3,5.5c7,4,10.6,11.4,13.2,18.9"/>
			</g>
			<g transform="matrix(0.947368,0,0,0.947368,2121.33,21.5541)">
				<path class="st148" d="M-2151,88.5c0,0.4,0.4-1.3,0.4-1.4c0.1-1.7,0-3.4,0-5.1c0-4.6,2.1-7.1-0.2-21.5
					c-2.4-15.4-4.8-21.1-5.5-25.9c-0.8-5.2-3.3-11.9,4.2-14.3c4.1-1.4,9,2.3,11.5,5.1c7.2,8.2,10.9,19.2,11.8,30
					c0.3,4.2,0.5,8.3,0,12.5c-0.2,1.4-0.4,2.7-0.6,4.1c0,0.5-0.6,1.9-0.2,1.6c1.4-1.4,8.3-11.3,13.1-8.6c7.7,4.4,1.7,23.1-1.9,30.8
					c-0.2,0.5-4.5,7.8-4.7,7.8"/>
			</g>
			<g transform="matrix(0.947368,0,0,0.947368,2121.33,21.5541)">
				<path class="st148" d="M-2146,113.7c0.9-0.9,2.4-1.3,3.4-2c3.6-2.3,6.3-5,8-9c4-9.4,0.5-20.3,4.9-29.6c1.6-3.4,6.9-7.9,11-6
					c4.2,1.9,5.5,6.7,5.8,10.9c0.8,11.5-4.7,25.7-14.6,32.3c-3.7,2.5-8.6,4.3-13,4.3c-0.3,0-1.2,0.2-1.2-0.2"/>
			</g>
			<g transform="matrix(0.947368,0,0,0.947368,2121.33,21.5541)">
				<path class="st148" d="M-2131.1,78.6c1.9,0.4,4.3-0.6,6-1.2c9.2-3.3,16-9,23.3-15.2c4.3-3.7,7.2-8.1,12.8-10.2
					c8.2-3.1,18.4-1.8,21.5,7.5c3,9.3-7.5,14.5-14.5,16.7c-3.8,1.2-7.7,2.3-11.3,3.9c-10.2,4.5-17.6,8.2-28.9,3.9
					c-2.7-1-6.7-1.9-8.5-4.3"/>
			</g>
			<g transform="matrix(0.947368,0,0,0.947368,2143.62,33.3533)">
				
					<linearGradient id="SVGID_2_" gradientUnits="userSpaceOnUse" x1="-2571.2334" y1="100.8291" x2="-2570.4619" y2="100.8291" gradientTransform="matrix(16.0015 -53.2095 53.2095 16.0015 33567.9922 -138339.8125)">
					<stop  offset="0" style="stop-color:#282452"/>
					<stop  offset="1" style="stop-color:#E73187"/>
				</linearGradient>
				<path class="st1" d="M-2190.2,92c0.2,0.2-0.1-1.9-0.2-2.3c-0.2-1.6-0.7-3.2-1.3-4.7c-1.7-4.3-4.2-8.5-8.5-10.6
					c-7.6-3.6-18.8-1.5-25.3,3.5c-1.7,1.3-2.7,3-4.1,4.6c-1.2,1.5-2.3,2.8-2.6,4.8c-1.1,7.2,1.3,14.9,8.7,17.2
					c2.4,0.7,5.2,0.7,7.5-0.4c5.9-2.8,8.9-8.7,13.9-12.5c2.4-1.9,6.6-4.6,9.4-1.8C-2192.2,90.1-2190.2,92-2190.2,92z"/>
			</g>
		</g>
		<g>
			<linearGradient id="SVGID_3_" gradientUnits="userSpaceOnUse" x1="61.7881" y1="36.9877" x2="64.6828" y2="36.9877">
				<stop  offset="0" style="stop-color:#15172E"/>
				<stop  offset="1" style="stop-color:#020203"/>
			</linearGradient>
			<path style="fill-rule:evenodd;clip-rule:evenodd;fill:url(#SVGID_3_);" d="M62.7,32.9c0.4,0,0.7,0,1.1,0v5.2c0,0,0,0.1,0,0.1
				c0.2,0.1,0.3,0.2,0.5,0.3c0.3,0.3,0.4,0.6,0.4,1c0,0.4-0.1,0.7-0.4,1c-0.3,0.3-0.6,0.4-1,0.4c-0.4,0-0.7-0.1-1-0.4
				c-0.3-0.3-0.4-0.6-0.4-1c0-0.4,0.1-0.7,0.4-1c0.1-0.1,0.3-0.2,0.5-0.3c0,0,0-0.1,0-0.1V32.9z"/>
			<linearGradient id="SVGID_4_" gradientUnits="userSpaceOnUse" x1="50.6655" y1="20.0962" x2="84.0168" y2="20.0962">
				<stop  offset="0" style="stop-color:#F7C4D0"/>
				<stop  offset="1" style="stop-color:#9491C7"/>
			</linearGradient>
			<path style="fill-rule:evenodd;clip-rule:evenodd;fill:url(#SVGID_4_);" d="M54.8,8.7c0.7-0.3,1.8-0.6,3.4-0.9
				c2.6-0.4,5.7-0.6,9.2-0.6c2.5,0,4.8,0.1,6.8,0.3c0.8,0.1,1.6,0.2,2.4,0.3C78,8,79.1,8.3,79.7,8.6c-0.3-0.1-0.7-0.2-1.1-0.3
				c-0.5-0.1-1.1-0.2-1.9-0.4c-2.6-0.4-5.7-0.6-9.3-0.6c0,0-0.1,0-0.1,0c-3.7,0-6.8,0.2-9.5,0.6C57.2,8,56.6,8.1,56,8.2
				C55.5,8.4,55.1,8.5,54.8,8.7z M66.5,33c-0.9,0-1.9,0-2.8-0.1c-0.4,0-0.8,0-1.1,0c-2.7-0.1-5-0.3-7.1-0.7
				c-3.1-0.5-4.7-1.1-4.9-1.9v-0.1c0,0,0-0.1,0-0.1c0-0.1,0.1-0.1,0.1-0.2L54,9.6c0.3,0.5,1.6,1,3.9,1.3c2.6,0.4,5.8,0.6,9.5,0.6
				c3.7,0,6.8-0.2,9.4-0.6c2.3-0.4,3.6-0.8,3.9-1.3L84,30.1c0,0.1,0,0.2,0,0.2v0.1c-0.2,0.7-1.8,1.3-4.9,1.8
				c-3,0.5-6.5,0.7-10.5,0.8c-0.4,0-0.8,0-1.2,0C67.1,33,66.8,33,66.5,33z"/>
			<linearGradient id="SVGID_5_" gradientUnits="userSpaceOnUse" x1="39.8343" y1="9.3757" x2="97.4208" y2="9.4118">
				<stop  offset="0" style="stop-color:#F7C4D0"/>
				<stop  offset="1" style="stop-color:#9491C7"/>
			</linearGradient>
			<path style="fill-rule:evenodd;clip-rule:evenodd;fill:url(#SVGID_5_);" d="M80.6,9.6c-0.3,0.5-1.6,1-3.9,1.3
				c-2.6,0.4-5.7,0.6-9.4,0.6c-3.7,0-6.8-0.2-9.5-0.6c-2.3-0.4-3.6-0.8-3.9-1.3c0,0,0-0.1,0-0.1V9.4c0,0,0,0,0-0.1
				c0-0.1,0.1-0.1,0.1-0.1c0.1-0.2,0.3-0.3,0.7-0.5c0.3-0.1,0.7-0.3,1.3-0.4c0.5-0.1,1.2-0.2,1.9-0.4c2.6-0.4,5.8-0.6,9.5-0.6
				c0,0,0.1,0,0.1,0c3.6,0,6.8,0.2,9.3,0.6c0.7,0.1,1.3,0.2,1.9,0.4c0.4,0.1,0.8,0.2,1.1,0.3c0.5,0.2,0.8,0.4,0.9,0.6
				c0,0.1,0,0.1,0,0.2v0.1C80.7,9.5,80.7,9.5,80.6,9.6z M79.3,9.4c0,0,0-0.1,0-0.1c-0.2-0.3-0.8-0.5-1.8-0.7c-0.5-0.1-1-0.2-1.7-0.3
				c-2.3-0.3-5.1-0.5-8.4-0.5h0c-3.3,0-6.2,0.2-8.5,0.5c-0.7,0.1-1.3,0.2-1.7,0.3c-1,0.2-1.6,0.4-1.8,0.7c0,0,0,0.1,0,0.1v0.1
				c0.1,0.4,1.3,0.8,3.5,1.1c2.3,0.3,5.1,0.5,8.5,0.5c3.3,0,6.1-0.2,8.5-0.5C78,10.2,79.2,9.9,79.3,9.4L79.3,9.4z"/>
			<path class="st154" d="M79.3,9.4L79.3,9.4c-0.1,0.5-1.3,0.8-3.5,1.1c-2.4,0.3-5.2,0.5-8.5,0.5c-3.3,0-6.2-0.2-8.5-0.5
				c-2.3-0.3-3.5-0.7-3.5-1.1V9.3c0,0,0,0,0-0.1c0.2-0.2,0.8-0.5,1.8-0.7c0.5-0.1,1.1-0.2,1.7-0.3C61.2,8,64,7.8,67.4,7.8h0
				c3.3,0,6.1,0.2,8.4,0.5c0.6,0.1,1.2,0.2,1.7,0.3c1,0.2,1.6,0.4,1.8,0.7C79.3,9.3,79.3,9.3,79.3,9.4z"/>
			<linearGradient id="SVGID_6_" gradientUnits="userSpaceOnUse" x1="66.3373" y1="69.8889" x2="68.3449" y2="69.8889">
				<stop  offset="0" style="stop-color:#15172E"/>
				<stop  offset="1" style="stop-color:#020203"/>
			</linearGradient>
			<rect x="66.3" y="33" style="fill-rule:evenodd;clip-rule:evenodd;fill:url(#SVGID_6_);" width="2" height="73.7"/>
		</g>
		<g>
			<linearGradient id="SVGID_7_" gradientUnits="userSpaceOnUse" x1="25.607" y1="195.2742" x2="92.5972" y2="119.2162">
				<stop  offset="0" style="stop-color:#F7C4D0"/>
				<stop  offset="1" style="stop-color:#9491C7"/>
			</linearGradient>
			<path style="fill-rule:evenodd;clip-rule:evenodd;fill:url(#SVGID_7_);" d="M116,96.1c14.6-9.2,22.8-2.8,24.9,5.2
				s4.7,22.4-7.8,28.5c-12.4,6-39.1,22.7-69.2,8.3s-19.1-27.8-8-31.6S101.4,105.3,116,96.1z"/>
			<linearGradient id="SVGID_8_" gradientUnits="userSpaceOnUse" x1="114.1565" y1="126.588" x2="79.2734" y2="89.2992">
				<stop  offset="0" style="stop-color:#D0B9D1"/>
				<stop  offset="1" style="stop-color:#A5A3CA"/>
			</linearGradient>
			<path style="fill-rule:evenodd;clip-rule:evenodd;fill:url(#SVGID_8_);" d="M58.3,106.8c-9.3,1.2-11.3,6-10.8,12.4
				c0.5,6.4,33.2,18.8,52,11.9c18.8-6.9,39.6-21.7,37-28.8s-8.2-45.4-38.1-37.6S67.6,105.7,58.3,106.8z"/>
			<linearGradient id="SVGID_9_" gradientUnits="userSpaceOnUse" x1="111.5347" y1="63.8848" x2="82.4809" y2="104.227">
				<stop  offset="0" style="stop-color:#F7C4D0"/>
				<stop  offset="1" style="stop-color:#9491C7"/>
			</linearGradient>
			<path style="fill-rule:evenodd;clip-rule:evenodd;fill:url(#SVGID_9_);" d="M83,76.8c8.7-10.1,14.9-9.6,20.7-9.2
				s8.5,23.3-0.8,35.4s-21.1,15.6-34.9,13.1c-13.8-2.5,3-12.6,6.8-24S83,76.8,83,76.8z"/>
		</g>
		<g>
			<linearGradient id="SVGID_10_" gradientUnits="userSpaceOnUse" x1="87.3409" y1="54.3201" x2="52.7969" y2="111.9893">
				<stop  offset="0" style="stop-color:#E7A680"/>
				<stop  offset="1" style="stop-color:#C87F11"/>
			</linearGradient>
			<path class="st9" d="M87.1,64c-7.4,4.7-13.7,10.8-13.7,10.8s2.3-6.2,3.4-11c0.2-0.1,0.4-0.2,0.5-0.4c-0.2,0-0.3,0-0.5,0
				c0.4-1.9,0.7-3.6,0.5-4.4l-2.4,0.5l-0.3-0.6c0-0.1-0.1-0.2-0.1-0.3c-0.1-0.4,0.1-0.8,0.6-1l0.7-0.3c0.4,0.1,0.9,0.2,1.4,0.1
				c0.7,0,1.1-0.1,1.1-0.2c0.2-0.3,0.2-0.7,0-1.1l0-0.1l0,0c0.4,0.4,0.8,0.6,1.1,0.6c0.2,0,0.3-0.1,0.5-0.3c0.1-0.1,0.1-0.3,0-0.6
				c0-0.2-0.1-0.3-0.2-0.4l0.4-0.2l0.1,0c0-0.3,0.1-0.6,0.1-0.9c0,0,0-0.1,0-0.1c-0.2-0.2-0.4-0.3-0.6-0.3c-0.1,0-0.2,0-0.3,0
				c0,0,0,0,0,0c-0.4,0-0.6,0.2-0.8,0.5c-0.3,0.2-0.8,0.5-1.3,0.8c-0.3,0.1-0.8,0.4-1.4,0.7c-0.1,0-0.2,0.1-0.2,0.1
				c-0.2,0.1-0.4,0.2-0.4,0.2c0,0,0,0.1-0.1,0.1c-0.7,0.5-1.2,1-1.5,1.7l0,0.3c0,0.6-0.1,1.1-0.1,1.4c0,0.6-0.1,1.2-0.3,1.6
				c-1.3,3.7-7.4,12.4-7,15.9c0.1,1.3,1,2.3,2.2,2.7c4,1.4,14.7-1.9,18.9-7.1C90.2,70.7,88.2,67,87.1,64z"/>
			<path class="st160" d="M77.6,63.4c0,0-0.1,0-0.2,0c-0.4,0.1-0.7-0.1-1-0.6l-1.7-4c0-0.1-0.1-0.2-0.1-0.3c-0.1-0.4,0.1-0.8,0.6-1
				l0.7-0.3c0.4,0.1,0.9,0.2,1.4,0.1c0.7,0,1.1-0.1,1.1-0.2c0.2-0.3,0.2-0.7,0-1.1l0-0.1l0,0c0.4,0.4,0.8,0.6,1.1,0.6
				c0.2,0,0.3-0.1,0.5-0.3c0.1-0.1,0.1-0.3,0-0.6c0-0.2-0.1-0.3-0.2-0.4l0.4-0.2l0.1,0c0,0.8,0.1,1.6,0.3,2.4
				c0.3,1.2,0.6,2.1,0.9,2.8c0.1,0.3,0.3,0.6,0.4,0.9l-4.3,2.1C77.7,63.3,77.7,63.3,77.6,63.4z"/>
			<linearGradient id="SVGID_11_" gradientUnits="userSpaceOnUse" x1="95.7452" y1="62.2983" x2="83.3692" y2="71.3963">
				<stop  offset="0" style="stop-color:#E5C7B8"/>
				<stop  offset="1" style="stop-color:#D9DBDD"/>
			</linearGradient>
			<path class="st10" d="M89.4,62.9c0,0-1.9,0.8-3.4,1.9c-1.6,1.1-4.1,2.8-6.3,4.7c0,0,3.7,0.3,2.2,7.5c0,0,3.9-2.1,6.4-4.6
				C90.8,69.9,89.4,62.9,89.4,62.9z"/>
		</g>
		<g transform="matrix(0.947368,0,0,0.947368,2121.33,21.5541)">
			<linearGradient id="SVGID_12_" gradientUnits="userSpaceOnUse" x1="-2121.3904" y1="44.1216" x2="-2147.6399" y2="75.8107">
				<stop  offset="0" style="stop-color:#E5C7B8"/>
				<stop  offset="1" style="stop-color:#D9DBDD"/>
			</linearGradient>
			<path class="st11" d="M-2131,86.5c0,0,8.5-13,5.3-28.3c-3.1-15.3-22-22.1-24.1-7.8c-2.1,14.3,11.1,15.3-0.1,31.1
				C-2155.1,89-2139,92-2131,86.5z"/>
		</g>
		<g transform="matrix(1.00134,0,0,1.00134,2048.56,-2.73507)">
			<linearGradient id="SVGID_13_" gradientUnits="userSpaceOnUse" x1="-1932.2069" y1="74.0053" x2="-1947.7416" y2="85.4253">
				<stop  offset="0" style="stop-color:#E5C7B8"/>
				<stop  offset="1" style="stop-color:#D9DBDD"/>
			</linearGradient>
			<path class="st12" d="M-1946.9,95.9c0,0-3.7-16.7-2.9-21.7c0.8-5,8.4-5,9.3,1.3c0.6,4.1,0,12.6-0.5,18c-0.1,1.1-0.7,2.1-1.7,2.7
				c-1,0.6-2.2,0.6-3.2,0.2C-1946.6,96.1-1946.9,95.9-1946.9,95.9z"/>
		</g>
		<g transform="matrix(0.947368,0,0,0.947368,2121.33,21.5541)">
			
				<linearGradient id="SVGID_14_" gradientUnits="userSpaceOnUse" x1="-2590.5281" y1="5.1411" x2="-2589.9949" y2="5.1411" gradientTransform="matrix(34.2134 -6.1442 -6.1442 -34.2134 86526.8359 -15667.5654)">
				<stop  offset="0" style="stop-color:#E7A680"/>
				<stop  offset="1" style="stop-color:#C87F11"/>
			</linearGradient>
			<path class="st13" d="M-2137.3,61.5c2.8-1.8,7-3.3,9.6-1c0.4,5.8-0.6,11.2-1,15.6c-0.1,1.3-1,2.5-2.3,2.9
				c-4,1.4-12.7,4.6-15.3,5.5c-0.4,0.2-0.8,0.5-1,0.9c-0.6,1.2-1.8,3.6-1.8,3.6l-4-0.2c0,0,1.4-3.2,2-4.6c0.2-0.4,0.5-0.8,0.9-1
				c3-1.4,15.6-7.4,15.6-7.4S-2136.5,68.7-2137.3,61.5z"/>
		</g>
		<g>
			<g transform="matrix(0.947368,0,0,0.947368,2121.33,21.5541)">
				
					<linearGradient id="SVGID_15_" gradientUnits="userSpaceOnUse" x1="-2544.5144" y1="57.2656" x2="-2543.8616" y2="57.2656" gradientTransform="matrix(25.0043 2.3976 2.3976 -25.0043 61336.5938 7579.3535)">
					<stop  offset="0" style="stop-color:#E7A680"/>
					<stop  offset="1" style="stop-color:#C87F11"/>
				</linearGradient>
				<path class="st14" d="M-2144.8,41.9c3.1-0.2,6.7,0.9,10,2.9c-1.9,2.4-4,4.6-6.6,6.1c-1.5,0.9-3.4,1.8-5.1,1.4
					c-2-0.5-2.2-2.7-1.7-4.4C-2147.6,45.7-2146.2,43.7-2144.8,41.9z"/>
			</g>
			<g transform="matrix(0.947368,0,0,0.947368,2121.33,21.5541)">
				
					<linearGradient id="SVGID_16_" gradientUnits="userSpaceOnUse" x1="-1499.981" y1="-1025.3643" x2="-1493.9753" y2="-1025.8395" gradientTransform="matrix(0.9381 0.3464 -0.3464 0.9381 -1105.7883 1508.5782)">
					<stop  offset="0" style="stop-color:#E79D78"/>
					<stop  offset="1" style="stop-color:#6E6B85"/>
				</linearGradient>
				<path class="st15" d="M-2150.4,23.9c-0.6-1.1-2.9-0.9-3.5,0.1c-0.2,0.4-0.1,1.2-0.2,1.4c-0.4,0.6-1.3,0.5-1.4,1.7
					c0,0.4,0.1,0.8,0.2,1.2c0.1,0.2,0.4,0.5,0.3,0.7c0,0.3-0.4,0.5-0.5,0.7c-0.4,0.5-0.7,1.1-0.7,1.7c0,0.3,0.1,0.6,0.3,0.9
					c0.1,0.2,0.2,0.4,0.4,0.5c0.3,0.3,1.4,1.2,2,0.9c0.6-0.3,0.5-1,0.7-1.5c0.2-0.4,0.5-0.8,0.9-1.1c0.8-0.9,1.6-1.6,1.9-2.9"/>
			</g>
			<g transform="matrix(0.947368,0,0,0.947368,2121.33,21.5541)">
				<g>
					<defs>
						<path id="SVGID_177_" d="M-2143.9,39.3c-0.1,0,1.9,2.6,2.4,3.3c1.3,1.8,1.3,5.1-1.9,4.9c-2.1-0.1-3.7-2-4.9-3.6
							c-0.3-0.5-1-1.3-1-1.3s-2.7,1.8-4.6,0.8c-1.3-0.7-1.7-2.4-1.7-4.7c0-3.9,0.7-7.2,3.1-11.1c0.9-1.4,3.7-1.6,5-1.7
							c1.8-0.1,3.9,0.4,5.3,1.7c2.4,2.3,1.5,5.7,0.3,8.4C-2142.7,37.7-2143.9,39.3-2143.9,39.3z"/>
					</defs>
					
						<linearGradient id="SVGID_17_" gradientUnits="userSpaceOnUse" x1="-1489.7788" y1="-1020.8669" x2="-1468.8635" y2="-1020.8669" gradientTransform="matrix(0.9381 0.3464 -0.3464 0.9381 -1105.7883 1508.5782)">
						<stop  offset="0" style="stop-color:#E7A680"/>
						<stop  offset="1" style="stop-color:#C87F11"/>
					</linearGradient>
					<use xlink:href="#SVGID_177_"  style="overflow:visible;fill:url(#SVGID_17_);"/>
					<clipPath id="SVGID_18_">
						<use xlink:href="#SVGID_177_"  style="overflow:visible;"/>
					</clipPath>
					<g style="clip-path:url(#SVGID_18_);">
						<g transform="matrix(1.05556,0,0,1.05556,-4350.29,-22.7516)">
							
								<linearGradient id="SVGID_19_" gradientUnits="userSpaceOnUse" x1="1650.4141" y1="31.5867" x2="1651.0669" y2="31.5867" gradientTransform="matrix(-15.5008 3.4587 3.4587 15.5008 27559.9316 -6142.4009)">
								<stop  offset="0" style="stop-color:#E7A680"/>
								<stop  offset="1" style="stop-color:#FFFFFF"/>
							</linearGradient>
							<path class="st18" d="M2077.8,54.2c-0.1-0.2,0.1-0.4,0.1-0.6c0.1-0.5,0.3-1,0.5-1.5c1-2.2,3.9-4.1,6.3-2.7
								c1.1,0.7,1.4,1.9,1.3,3.2c-0.1,1.3-0.7,2.5-1.1,3.6c-0.6,1.7-1.1,3.4-1.7,5c-0.4,1-0.9,2.3-1.9,2.9c-1.4,0.7-3.1-0.3-3.9-1.4
								c-1.7-2.2-1.8-5.5-1.7-8.2"/>
						</g>
					</g>
				</g>
			</g>
			<g transform="matrix(0.959417,0,0.0821043,0.959417,-1831.08,6.61591)">
				
					<linearGradient id="SVGID_20_" gradientUnits="userSpaceOnUse" x1="2730.6829" y1="-993.2019" x2="2732.4883" y2="-986.9833" gradientTransform="matrix(0.9084 0.3464 -0.349 0.9677 -836.8536 63.4877)">
					<stop  offset="0" style="stop-color:#E79D78"/>
					<stop  offset="1" style="stop-color:#6E6B85"/>
				</linearGradient>
				<path class="st19" d="M1993.6,50.4c0,0-0.2-0.1-0.2-0.2c-0.3-0.2-0.5-0.3-0.8-0.4c-0.7-0.3-1.6-0.4-2.4-0.2
					c-0.3,0.1-0.6,0.3-1,0.4c-0.1,0-0.2-0.1-0.3-0.2c-0.1,0-0.2,0-0.2,0c-0.2-0.1-0.3-0.3-0.4-0.4c-0.2-0.2-0.5-0.4-0.8-0.5
					c-0.2-0.1-0.4-0.1-0.6-0.1c-1.5-0.1-1.9,1.9-1.7,3.1c0.1,0.7,0.8,1.1,1.4,0.8c0.7-0.4,1.1-0.9,1.5-1.6c0.1-0.2,0.3-0.8,0.6-0.8
					c0.6,0,0.4,0.9,0.5,1.4c0,0.5,0.2,1.4,0.6,1.7c0.2,0.2,0.5,0.3,0.8,0.3c0.2,0,0.4,0,0.6,0c0.8-0.2,1.2-0.9,1.5-1.7
					c0.2-0.4,0.2-0.7,0.5-1c0.1-0.1,0.3,0,0.4,0c0.3,0,1.2,0.3,1.2-0.3c0-0.1-0.2-0.1-0.2-0.2c-0.2-0.1-0.6,0-0.8-0.1"/>
			</g>
			<g transform="matrix(0.947368,0,0,0.947368,2121.33,21.5541)">
				
					<linearGradient id="SVGID_21_" gradientUnits="userSpaceOnUse" x1="-1478.5449" y1="-1018.1614" x2="-1485.0691" y2="-1025.7225" gradientTransform="matrix(0.9381 0.3464 -0.3464 0.9381 -1105.7883 1508.5782)">
					<stop  offset="0" style="stop-color:#E79D78"/>
					<stop  offset="1" style="stop-color:#6E6B85"/>
				</linearGradient>
				<path class="st20" d="M-2145.7,32.2c-0.6,0.4-1.8,1.2-2.5,0.5c-0.3-0.3-0.2-0.8,0-1.1c0-0.1,0.1-0.2,0.2-0.3
					c0-0.1,0.2-0.2,0.1-0.2c-0.7,0.1-3,1.1-3.1-0.3c0-0.4,0.1-0.8,0.3-1.1c0,0,0.2-0.3,0.2-0.3c0,0-0.3,0.1-0.3,0.1
					c-0.2,0.1-0.4,0.1-0.5,0.2c-0.6,0.1-1.2,0.1-1.6-0.3c-0.6-0.5-0.6-1.2-0.1-1.8c0.1-0.1,0.6-0.4,0.6-0.5c0-0.2-0.4-0.4-0.5-0.5
					c-0.4-0.6-1-1.4-0.6-2.1c0.2-0.5,0.8-0.6,1.3-0.6c0.1,0,0.4,0.1,0.5,0c0.1,0-0.1-0.7-0.1-0.8c0.1-0.5,0.3-1,0.8-1.2
					c0.4-0.2,0.9-0.2,1.3,0c0.5,0.2,0.9,0.5,1.2,0.9c0.1,0.1,0.3,0.6,0.4,0.6c0,0,0.3-0.2,0.4-0.2c0.4-0.2,0.9-0.1,1.1,0.4
					c0.3,0.6,0.4,1.2,0.3,1.8c0,0-0.1,0.6,0,0.7c0,0,0.3-0.2,0.4-0.2c0.3-0.1,0.7-0.2,1.1-0.2c0.4,0,0.7,0.2,1,0.4
					c0.1,0,0.3,0.3,0.3,0.3c0,0,0.3-0.3,0.3-0.3c0.3-0.2,0.6-0.3,0.9-0.3c0.3,0,0.6,0.2,0.7,0.4c0,0,0,0.1,0.1,0.1
					c0.1,0,0.3-0.6,0.3-0.7c0.3-0.4,0.6-0.8,1.1-1.1c0.9-0.4,1.8,0.2,2.2,1c0.1,0.3,0.1,0.7,0.3,0.9c0.2,0.3,0.6,0.4,0.7,0.8
					c0.2,0.6-0.1,1.1-0.4,1.6c-0.1,0.1-0.5,0.4-0.5,0.5c0,0.4,0.7,0.8,0.6,1.6c0,0.3-0.2,0.7-0.5,0.9c-0.1,0.1-0.5,0.2-0.5,0.3
					c-0.1,0.5,0.3,1,0.1,1.6c-0.2,0.5-0.6,0.9-1,1.1c-0.1,0-0.5,0.1-0.6,0.2c-0.1,0.1-0.3,1.2-0.2,1.3c0.9,0.7,0.5,1.4,0.3,1.7
					c-0.4,0.8-0.9,0.3-1.3,0.5c-0.2,0.1,0.1,0.3,0.1,0.5c0.1,0.4,0.1,0.8,0,1.2c-0.1,0.4-0.5,0.5-0.8,0.5c-0.2,0-0.3,0-0.5-0.1
					c0,0-0.1,0-0.1,0c-0.1,0.3,0.3,0.9-0.1,1.5c-0.4,0.6-1.1,0.3-1.4-0.1c-0.1-0.1-0.2-0.4-0.2-0.4c-0.1-0.1-0.2,0.2-0.3,0.3
					c-0.3,0.2-0.7,0.3-1,0c-0.2-0.3-0.3-0.8-0.3-1.1c0-0.2,0.1-0.5,0.2-0.7c0.4-1.2,1.2-1.1,2-2c0.4-0.5,0.7-3.5,0.1-4
					c-0.5-0.4-1.1-0.2-1.5,0.2c-0.8,0.6-0.9,1.7-1.6,2.3c-0.4,0.4-1.4,0.7-1.7,0c-0.6-1.3,1-2.3,2-2.8
					C-2144.4,32.8-2145.7,32.2-2145.7,32.2z"/>
			</g>
		</g>
		<g>
			<path class="st171" d="M87.9,93c-0.9,2.2-1.1,2.4-1.1,2.4l-0.9-2.3C85.9,93.1,87.8,93,87.9,93 M60,99.7C60,99.8,60,99.8,60,99.7
				v0.1C60,99.8,60,99.8,60,99.7z M91.2,113.2c-2.2,1.2-5.1,2.2-5.5,2.3c-0.9-0.7-3.1-2.3-4.8-3.3c-2.3-1.4-4.3-2.5-5.9-3.5
				c-1.8-1.1-3.2-2.1-4.1-2.8c-0.5-0.4-1.1-0.9-1.8-1.4c0,0,0,0,0,0c-0.5-0.5-1.1-1-1.8-1.5c-0.9-0.8-1.9-1.7-3.1-2.7
				c-1.5-1.6-2.6-2.7-3.4-3.5c-0.2-0.2-0.4-0.3-0.5-0.5c0.1-0.3,0.3-0.6,0.6-0.8c0.6-0.8,1.4-1.2,2.5-1.4c0.8-0.1,1.5-0.1,2.4,0
				c0-0.1,0-0.3,0-0.4l3,2.3c0,0,0,0,0,0c0.5,0.3,1.4,0.7,2.8,1.2c2.4,1,4.1,2.1,5,3.3c0.3,0.5,0.8,1.1,1.2,1.9l5.8,1
				c-0.4,1.2-0.4,2.4,0,3.5c0.2,0.5,0.2,1,0.1,1.6c0,0-0.1,0.5-0.2,1.3c-0.1,0.1-0.2,0.2-0.2,0.2c0.1,0.1,0.1,0.1,0.2,0.2
				c0,0.1,0.1,0.2,0.1,0.2c0.3,0.6,0.9,1.1,1.6,1.5l1.7-4.1c0-0.1-0.1-0.4-0.2-0.8c0,0,0,0,0,0c-0.1-0.4-0.2-0.7-0.2-0.8
				c0-0.7,0.2-1.4,0.6-1.9c0.1-0.1,0.2-0.2,0.3-0.3c0.7-0.7,1.9-0.9,3.6-0.7c1.6,0.6,3.1,1.3,4.5,2.2c0.4,0.3,0.8,0.5,1.3,0.8
				c0.2,0.1,0.4,0.3,0.6,0.4c0.1,0.1,1.1,0.9,1.2,1.1C96.1,110.2,93.6,112.1,91.2,113.2 M78,113.3c-0.3-0.1-0.6-0.3-0.9-0.5
				c-0.5-0.3-1-0.6-1.6-0.9l-1.2-0.7c-0.2-0.1-0.3-0.2-0.5-0.3c0.3,0.2,0.6,0.4,0.9,0.6C76,112.1,77,112.7,78,113.3z"/>
			<linearGradient id="SVGID_22_" gradientUnits="userSpaceOnUse" x1="69.1899" y1="112.8274" x2="81.0295" y2="112.8274">
				<stop  offset="0" style="stop-color:#282452"/>
				<stop  offset="1" style="stop-color:#E73187"/>
			</linearGradient>
			<path style="fill-rule:evenodd;clip-rule:evenodd;fill:url(#SVGID_22_);" d="M81,114.8c-0.3,0-1.1,0.2-2.5,0.5
				c-0.6,0.1-1.3,0.3-2.1,0.5c-1.6,0.3-3,0.4-4.1,0.3c-0.5-0.3-0.8-0.5-0.9-0.5c-0.5-0.3-1-0.7-1.3-1c-0.7-0.7-1-1.3-1-2.1
				c0-0.4,0.2-0.8,0.5-1.4c0.2-0.4,0.4-0.7,0.4-0.8c0.3-0.1,1-0.4,1.9-0.7l1.4,0.9c0.1,0.1,0.3,0.2,0.4,0.3c0,0,0,0,0.1,0
				c0.2,0.1,0.3,0.2,0.5,0.3l1.2,0.7c0.6,0.3,1.1,0.6,1.6,0.9c0.3,0.2,0.6,0.3,0.9,0.5c1.2,0.6,2,1,2.3,1.2L81,114.8z"/>
			<path class="st173" d="M72.4,116C72.4,116,72.4,116,72.4,116c-0.2,0-0.3-0.1-0.4-0.1c-1-0.2-1.8-0.6-2.5-1.3
				c-0.1-0.1-0.2-0.2-0.3-0.4c-0.5-0.7-0.7-1.4-0.7-2.1c0.1-0.7,0.5-1.3,1.3-1.8c0,0,0.1-0.1,0.3-0.1c-0.1,0.2-0.2,0.5-0.4,0.8
				c-0.3,0.6-0.5,1-0.5,1.4c0,0.7,0.3,1.4,1,2.1c0.4,0.3,0.8,0.7,1.3,1C71.6,115.6,71.9,115.7,72.4,116z"/>
			<linearGradient id="SVGID_23_" gradientUnits="userSpaceOnUse" x1="63.8948" y1="68.9061" x2="82.7149" y2="107.1675">
				<stop  offset="0" style="stop-color:#D0B9D1"/>
				<stop  offset="1" style="stop-color:#A5A3CA"/>
			</linearGradient>
			<path style="fill-rule:evenodd;clip-rule:evenodd;fill:url(#SVGID_23_);" d="M86.3,95.5l-6.5-16.3c-0.2-0.4-0.5-0.7-0.8-0.8
				l-21.2-3.7c-0.2,0.1-0.2,0.2-0.1,0.5l6.5,16.3c0.2,0.4,0.4,0.6,0.8,0.7c0,0,0.1,0,0.1,0L86,96.1c0.2,0,0.3,0,0.4,0
				C86.4,95.7,86.4,95.6,86.3,95.5z"/>
			<path class="st175" d="M69.4,76.5l5.3,0.9l4.1,0.7l0.7,0.1c0.4,0.1,0.7,0.3,0.8,0.8l0.4,1.1l1.6,4l3.6,8.9l0.7,1.8l0.1,0.2
				c0.2,0.4,0,0.7-0.4,0.9c0-0.3,0-0.4,0-0.5l-6.5-16.3c-0.2-0.4-0.5-0.7-0.8-0.8l-21.2-3.7c0.2-0.2,0.4-0.3,0.7-0.3l8.8,1.6
				L69.4,76.5z M71.3,83c0.8,0,1.5,0.3,2.1,0.8c0.6,0.5,1,1,1.3,1.7c0,0.1,0.1,0.1,0.1,0.2c0.2,0.7,0.1,1.3-0.3,1.9
				c-0.4,0.5-0.9,0.8-1.7,0.8c-0.7,0-1.5-0.2-2.1-0.7c0,0,0,0,0,0c-0.6-0.5-1-1-1.2-1.6c0-0.1-0.1-0.2-0.1-0.2
				c-0.2-0.6-0.1-1.1,0.1-1.6c0-0.1,0.1-0.2,0.2-0.3c0.4-0.5,0.9-0.7,1.6-0.8C71.2,83,71.2,83,71.3,83z M64.8,92.9l0.2-0.6
				c0,0,0.1,0,0.1,0L86,96.1c0.2,0,0.3,0,0.4,0c0.3,0.1,0.7,0.2,0.9,0.4l2.8,2.2l1,0.8c-0.3,0-0.7,0-1,0l-3-2.4
				c-0.3-0.2-0.6-0.4-1-0.5L64.8,92.9L64.8,92.9L64.8,92.9z"/>
			<linearGradient id="SVGID_24_" gradientUnits="userSpaceOnUse" x1="62.3689" y1="93.5852" x2="91.4688" y2="102.5527">
				<stop  offset="0" style="stop-color:#4F5651"/>
				<stop  offset="1" style="stop-color:#A5A3CA"/>
			</linearGradient>
			<path style="fill-rule:evenodd;clip-rule:evenodd;fill:url(#SVGID_24_);" d="M90,99.4c-0.5,0-1,0.1-1.5,0.1L87,99.8
				c-1.4,0.5-2.4,1.5-3.1,3c-0.1,0.3-0.2,0.6-0.3,0.8l-5.8-1c-0.5-0.8-0.9-1.4-1.2-1.9c-0.9-1.2-2.5-2.3-5-3.3
				c-1.4-0.6-2.3-1-2.8-1.2c0,0,0,0,0,0l-3-2.3L65,93.2c-0.2-0.1-0.2-0.2-0.2-0.3L86,96.6c0.4,0.1,0.7,0.2,1,0.5L90,99.4z
				 M64.8,92.9C64.8,92.9,64.8,92.9,64.8,92.9L64.8,92.9L64.8,92.9z"/>
			<path class="st177" d="M83.4,110.4c0-0.1,0-0.3,0.1-0.4c0.1-0.8,0.2-1.2,0.2-1.3c0.1-0.6,0-1.2-0.1-1.6c-0.4-1.2-0.4-2.3,0-3.5
				c0.1-0.3,0.2-0.6,0.3-0.8c0.7-1.5,1.8-2.5,3.1-3l1.6-0.2c0.5-0.1,1-0.1,1.5-0.1c0.3,0,0.7,0,1,0c1.9,0.1,3.9,0.6,5.9,1.4
				c1.2,0.5,2.6,1.2,4,2c0.3,0.2,1.2,0.4,1.5,0.6c-1.6,2-2.7,3.4-4.1,4.6c-0.2-0.1-1.1-1-1.2-1.1c-0.2-0.2-0.4-0.3-0.6-0.4
				c-0.4-0.3-0.8-0.6-1.3-0.8c-1.4-0.9-2.9-1.6-4.5-2.2c-1.6-0.2-2.8,0.1-3.6,0.7c-0.1,0.1-0.2,0.2-0.3,0.3
				c-0.4,0.5-0.6,1.1-0.6,1.9c0,0.1,0.1,0.4,0.2,0.8c0,0,0,0,0,0c0.1,0.4,0.2,0.7,0.2,0.8l-1.7,4.1c-0.7-0.4-1.3-0.9-1.6-1.5
				C83.4,110.6,83.4,110.5,83.4,110.4z M85.7,115.5c-0.6,0.3-1.7,0.5-2.2,0.6c-0.3-0.2-1-0.6-1.2-0.7c-0.5-0.3-0.9-0.5-1.3-0.6
				l-0.8-0.3c-0.3-0.2-1-0.6-2.3-1.2c-1-0.6-2-1.2-3.2-1.9c-0.3-0.2-0.6-0.4-0.9-0.6c0,0-0.1,0-0.1,0c-0.2-0.1-0.3-0.2-0.4-0.3
				l-1.4-0.9c-3.1-2.3-4.7-3.5-4.7-3.6c-0.1-0.1-0.3-0.2-0.5-0.3c-1.7-1.2-3.2-2.1-4.5-2.8c-1.2-0.7-1.9-1.7-2.3-3l0,0
				c0,0,0,0,0-0.1v0c0-0.1,0-0.1-0.1-0.2c-0.3-1.2-0.1-2.2,0.4-3.1c0.2,0.1,0.3,0.3,0.5,0.5c0.8,0.8,1.9,1.9,3.4,3.5
				c1.1,1,2.1,1.9,3.1,2.7c0.6,0.5,1.2,1,1.8,1.5c0,0,0,0,0,0c0.6,0.5,1.2,1,1.8,1.4c0.9,0.7,2.3,1.6,4.1,2.8c1.6,1,3.6,2.2,5.9,3.5
				C82.7,113.3,84.8,114.9,85.7,115.5z"/>
		</g>
	</g>
</g>
</svg>
