<?xml version="1.0" encoding="utf-8"?>
<!-- Generator: Adobe Illustrator 25.0.1, SVG Export Plug-In . SVG Version: 6.00 Build 0)  -->
<svg version="1.1" id="Calque_1" xmlns="http://www.w3.org/2000/svg" xmlns:xlink="http://www.w3.org/1999/xlink" x="0px" y="0px"
	 viewBox="0 0 179.9 153.2" style="enable-background:new 0 0 179.9 153.2;" xml:space="preserve">
<style type="text/css">
	.st0{fill:url(#SVGID_1_);}
	.st1{fill:url(#SVGID_2_);}
	.st2{fill:url(#SVGID_3_);}
	.st3{fill:url(#SVGID_4_);}
	.st4{fill:url(#SVGID_5_);}
	.st5{fill:url(#SVGID_6_);}
	.st6{fill:url(#SVGID_7_);}
	.st7{fill:url(#SVGID_8_);}
	.st8{fill:url(#SVGID_9_);}
	.st9{fill:url(#SVGID_10_);}
	.st10{fill:url(#SVGID_11_);}
	.st11{fill:url(#SVGID_12_);}
	.st12{fill:url(#SVGID_13_);}
	.st13{fill:url(#SVGID_14_);}
	.st14{fill:url(#SVGID_15_);}
	.st15{fill:url(#SVGID_16_);}
	.st16{fill:url(#SVGID_17_);}
	.st17{fill:url(#SVGID_18_);}
	.st18{fill:url(#SVGID_19_);}
	.st19{fill:url(#SVGID_20_);}
	.st20{fill:url(#SVGID_21_);}
	.st21{fill:url(#SVGID_22_);}
	.st22{fill:url(#SVGID_23_);}
	.st23{fill:url(#SVGID_24_);}
	.st24{fill:url(#SVGID_25_);}
	.st25{fill:url(#SVGID_26_);}
	.st26{fill:url(#SVGID_27_);}
	.st27{fill:url(#SVGID_28_);}
	.st28{fill:url(#SVGID_29_);}
	.st29{fill:url(#SVGID_30_);}
	.st30{fill:url(#SVGID_31_);}
	.st31{fill:url(#SVGID_32_);}
	.st32{fill:url(#SVGID_33_);}
	.st33{fill:url(#SVGID_34_);}
	.st34{fill:url(#SVGID_35_);}
	.st35{fill:url(#SVGID_36_);}
	.st36{fill:url(#SVGID_37_);}
	.st37{fill:url(#SVGID_38_);}
	.st38{fill:url(#SVGID_39_);}
	.st39{fill:url(#SVGID_40_);}
	.st40{fill:url(#SVGID_41_);}
	.st41{fill:url(#SVGID_42_);}
	.st42{clip-path:url(#SVGID_45_);}
	.st43{fill:url(#SVGID_46_);}
	.st44{fill:url(#SVGID_47_);}
	.st45{fill:url(#SVGID_48_);}
	.st46{fill:url(#SVGID_49_);}
	.st47{clip-path:url(#SVGID_52_);}
	.st48{fill:url(#SVGID_53_);}
	.st49{clip-path:url(#SVGID_56_);}
	.st50{fill:url(#SVGID_57_);}
	.st51{fill:url(#SVGID_58_);}
	.st52{fill:url(#SVGID_59_);}
	.st53{fill:url(#SVGID_60_);}
	.st54{fill:url(#SVGID_61_);}
	.st55{fill:#E83189;}
	.st56{clip-path:url(#SVGID_64_);}
	.st57{fill:url(#SVGID_65_);}
	.st58{fill:#272252;}
	.st59{fill:url(#SVGID_66_);}
	.st60{fill:url(#SVGID_67_);}
	.st61{fill:url(#SVGID_68_);}
	.st62{fill:url(#SVGID_69_);}
	.st63{fill:url(#SVGID_70_);}
	.st64{fill:url(#SVGID_71_);}
	.st65{fill:url(#SVGID_72_);}
	.st66{fill:url(#SVGID_73_);}
	.st67{fill:url(#SVGID_74_);}
	.st68{fill:url(#SVGID_75_);}
	.st69{fill:url(#SVGID_76_);}
	.st70{fill:url(#SVGID_77_);}
	.st71{fill:url(#SVGID_78_);}
	.st72{fill:#FFFFFF;}
	.st73{fill:url(#SVGID_79_);}
	.st74{fill:url(#SVGID_80_);}
	.st75{fill:url(#SVGID_81_);}
	.st76{fill:url(#SVGID_82_);}
	.st77{fill:url(#SVGID_83_);}
	.st78{fill:url(#SVGID_84_);}
	.st79{fill:url(#SVGID_85_);}
	.st80{fill:url(#SVGID_86_);}
	.st81{fill:url(#SVGID_87_);}
	.st82{fill:url(#SVGID_88_);}
	.st83{fill:url(#SVGID_89_);}
	.st84{fill:url(#SVGID_90_);}
	.st85{fill:url(#SVGID_91_);}
	.st86{fill:url(#SVGID_92_);}
	.st87{fill:url(#SVGID_93_);}
	.st88{fill:url(#SVGID_94_);}
	.st89{fill:url(#SVGID_95_);}
	.st90{fill:url(#SVGID_96_);}
	.st91{fill:url(#SVGID_97_);}
	.st92{fill:url(#SVGID_98_);}
	.st93{fill:url(#SVGID_99_);}
	.st94{fill:url(#SVGID_100_);}
	.st95{fill:url(#SVGID_101_);}
	.st96{fill:url(#SVGID_102_);}
	.st97{fill:url(#SVGID_103_);}
	.st98{fill:url(#SVGID_104_);}
	.st99{fill:url(#SVGID_105_);}
	.st100{fill:url(#SVGID_106_);}
	.st101{fill:url(#SVGID_107_);}
	.st102{fill:url(#SVGID_108_);}
	.st103{fill:url(#SVGID_109_);}
	.st104{fill:url(#SVGID_110_);}
	.st105{fill:url(#SVGID_111_);}
	.st106{fill:url(#SVGID_112_);}
	.st107{fill:url(#SVGID_113_);}
	.st108{fill:url(#SVGID_114_);}
	.st109{fill:url(#SVGID_115_);}
	.st110{fill:url(#SVGID_116_);}
	.st111{fill:url(#SVGID_117_);}
	.st112{fill:url(#SVGID_118_);}
	.st113{fill:url(#SVGID_119_);}
	.st114{fill:url(#SVGID_120_);}
	.st115{clip-path:url(#SVGID_123_);}
	.st116{fill:url(#SVGID_124_);}
	.st117{fill:url(#SVGID_125_);}
	.st118{fill:url(#SVGID_126_);}
	.st119{fill:url(#SVGID_127_);}
	.st120{clip-path:url(#SVGID_130_);}
	.st121{fill:url(#SVGID_131_);}
	.st122{clip-path:url(#SVGID_134_);}
	.st123{fill:url(#SVGID_135_);}
	.st124{fill:url(#SVGID_136_);}
	.st125{fill:url(#SVGID_137_);}
	.st126{fill:url(#SVGID_138_);}
	.st127{fill:url(#SVGID_139_);}
	.st128{fill:#F8C5D1;}
	.st129{clip-path:url(#SVGID_142_);}
	.st130{fill:url(#SVGID_143_);}
	.st131{fill:url(#SVGID_144_);}
	.st132{fill:url(#SVGID_145_);}
	.st133{fill:url(#SVGID_146_);}
	.st134{fill:url(#SVGID_147_);}
	.st135{fill:url(#SVGID_148_);}
	.st136{fill:url(#SVGID_149_);}
	.st137{fill:url(#SVGID_150_);}
	.st138{fill:url(#SVGID_151_);}
	.st139{fill:url(#SVGID_152_);}
	.st140{fill:url(#SVGID_153_);}
	.st141{fill:url(#SVGID_154_);}
	.st142{fill:url(#SVGID_155_);}
	.st143{fill:url(#SVGID_156_);}
	.st144{fill:url(#SVGID_157_);}
	.st145{fill:url(#SVGID_158_);}
	.st146{fill:url(#SVGID_159_);}
	.st147{fill:url(#SVGID_160_);}
	.st148{fill:#282452;}
	.st149{fill:url(#SVGID_161_);}
	.st150{fill:url(#SVGID_162_);}
	.st151{fill-rule:evenodd;clip-rule:evenodd;fill:url(#SVGID_163_);}
	.st152{fill-rule:evenodd;clip-rule:evenodd;fill:url(#SVGID_164_);}
	.st153{fill-rule:evenodd;clip-rule:evenodd;fill:url(#SVGID_165_);}
	.st154{fill-rule:evenodd;clip-rule:evenodd;fill:#282452;}
	.st155{fill-rule:evenodd;clip-rule:evenodd;fill:url(#SVGID_166_);}
	.st156{fill-rule:evenodd;clip-rule:evenodd;fill:url(#SVGID_167_);}
	.st157{fill-rule:evenodd;clip-rule:evenodd;fill:url(#SVGID_168_);}
	.st158{fill-rule:evenodd;clip-rule:evenodd;fill:url(#SVGID_169_);}
	.st159{fill:url(#SVGID_170_);}
	.st160{fill-rule:evenodd;clip-rule:evenodd;fill:#194058;}
	.st161{fill:url(#SVGID_171_);}
	.st162{fill:url(#SVGID_172_);}
	.st163{fill:url(#SVGID_173_);}
	.st164{fill:url(#SVGID_174_);}
	.st165{fill:url(#SVGID_175_);}
	.st166{fill:url(#SVGID_176_);}
	.st167{clip-path:url(#SVGID_179_);}
	.st168{fill:url(#SVGID_180_);}
	.st169{fill:url(#SVGID_181_);}
	.st170{fill:url(#SVGID_182_);}
	.st171{fill-rule:evenodd;clip-rule:evenodd;fill:#123250;}
	.st172{fill-rule:evenodd;clip-rule:evenodd;fill:url(#SVGID_183_);}
	.st173{fill-rule:evenodd;clip-rule:evenodd;fill:#020203;}
	.st174{fill-rule:evenodd;clip-rule:evenodd;fill:url(#SVGID_184_);}
	.st175{fill-rule:evenodd;clip-rule:evenodd;fill:#B9897D;}
	.st176{fill-rule:evenodd;clip-rule:evenodd;fill:url(#SVGID_185_);}
	.st177{fill-rule:evenodd;clip-rule:evenodd;fill:#01568E;}
	.st178{fill:url(#SVGID_186_);stroke:url(#SVGID_187_);stroke-miterlimit:10;}
	.st179{fill:url(#SVGID_188_);}
	.st180{fill:url(#SVGID_189_);}
	.st181{fill:url(#SVGID_190_);}
	.st182{fill:url(#SVGID_191_);}
	.st183{fill:url(#SVGID_192_);}
	.st184{fill:url(#SVGID_193_);}
	.st185{fill:url(#SVGID_194_);}
	.st186{fill:url(#SVGID_195_);}
	.st187{fill:url(#SVGID_196_);}
	.st188{fill:url(#SVGID_197_);}
	.st189{fill:url(#SVGID_198_);}
	.st190{opacity:0.85;}
	.st191{fill:url(#SVGID_199_);stroke:#A1A0A0;stroke-width:0.25;stroke-miterlimit:10;}
	.st192{opacity:0.8;fill:#B6DDD7;}
	.st193{fill:#3EAC50;}
	.st194{fill:#F0BF49;}
	.st195{fill:#D92A2B;}
	.st196{fill:url(#SVGID_200_);stroke:#A1A0A0;stroke-width:0.25;stroke-miterlimit:10;}
	.st197{fill:url(#SVGID_201_);}
	.st198{fill:url(#SVGID_202_);}
	.st199{fill:url(#SVGID_203_);}
	.st200{fill:url(#SVGID_204_);}
	.st201{fill:url(#SVGID_205_);}
	.st202{clip-path:url(#SVGID_208_);}
	.st203{fill:url(#SVGID_209_);}
	.st204{fill:url(#SVGID_210_);}
	.st205{fill:url(#SVGID_211_);}
	.st206{fill:url(#SVGID_212_);}
	.st207{fill:url(#SVGID_213_);}
	.st208{fill:url(#SVGID_214_);}
	.st209{fill:url(#SVGID_215_);}
	.st210{fill:url(#SVGID_216_);}
	.st211{fill:url(#SVGID_217_);}
	.st212{fill:url(#SVGID_218_);}
	.st213{fill:url(#SVGID_219_);}
	.st214{fill:url(#SVGID_220_);}
	.st215{fill:url(#SVGID_221_);}
	.st216{fill:url(#SVGID_222_);}
	.st217{fill:url(#SVGID_223_);}
	.st218{fill:url(#SVGID_224_);}
	.st219{fill:url(#SVGID_225_);}
	.st220{fill:url(#SVGID_226_);}
	.st221{fill:url(#SVGID_227_);}
	.st222{fill:url(#SVGID_228_);}
	.st223{fill:url(#SVGID_229_);}
	.st224{fill:none;stroke:#A1A0A0;stroke-width:0.25;stroke-miterlimit:10;}
	.st225{fill:url(#SVGID_230_);}
	.st226{fill:url(#SVGID_231_);}
	.st227{fill:url(#SVGID_232_);}
	.st228{fill:url(#SVGID_233_);}
	.st229{fill:url(#SVGID_234_);}
	.st230{fill:url(#SVGID_235_);}
	.st231{fill:url(#SVGID_236_);}
	.st232{fill:url(#SVGID_237_);}
	.st233{fill:url(#SVGID_238_);}
	.st234{fill:#917971;}
	.st235{fill:url(#SVGID_239_);}
	.st236{fill:url(#SVGID_240_);}
	.st237{fill:url(#SVGID_241_);}
	.st238{fill:url(#SVGID_242_);}
	.st239{fill:url(#SVGID_243_);}
	.st240{clip-path:url(#SVGID_246_);}
	.st241{fill:url(#SVGID_247_);}
	.st242{fill:url(#SVGID_248_);}
	.st243{fill:url(#SVGID_249_);}
	.st244{fill:url(#SVGID_250_);}
	.st245{clip-path:url(#SVGID_253_);}
	.st246{fill:url(#SVGID_254_);}
	.st247{clip-path:url(#SVGID_257_);}
	.st248{fill:url(#SVGID_258_);}
	.st249{fill:url(#SVGID_259_);}
	.st250{fill:url(#SVGID_260_);}
	.st251{fill:url(#SVGID_261_);}
	.st252{fill:url(#SVGID_262_);}
	.st253{fill:url(#SVGID_266_);}
	.st254{fill:url(#SVGID_267_);}
	.st255{fill:url(#SVGID_268_);}
	.st256{fill:url(#SVGID_269_);}
	.st257{fill:url(#SVGID_270_);}
	.st258{fill:url(#SVGID_271_);}
	.st259{fill:url(#SVGID_272_);stroke:#9F9F9F;stroke-width:0.25;stroke-miterlimit:10;}
	.st260{opacity:0.8;fill:#B6DCD6;}
	.st261{fill:#3EAC51;}
	.st262{fill:#EFBE4A;}
	.st263{fill:url(#SVGID_273_);stroke:#9F9F9F;stroke-width:0.25;stroke-miterlimit:10;}
	.st264{fill:url(#SVGID_274_);}
	.st265{fill:url(#SVGID_275_);}
	.st266{fill:url(#SVGID_276_);}
	.st267{fill:url(#SVGID_277_);}
	.st268{opacity:0.6;fill:#CBE8ED;}
	.st269{opacity:0.6;fill:none;stroke:#CBE8ED;stroke-miterlimit:10;}
	.st270{fill:url(#SVGID_278_);}
	.st271{fill:url(#SVGID_279_);}
	.st272{fill:url(#SVGID_280_);}
	.st273{fill:url(#SVGID_281_);}
	.st274{fill:url(#SVGID_282_);}
	.st275{fill:url(#SVGID_283_);}
	.st276{fill:url(#SVGID_284_);}
</style>
<g>
	<g transform="matrix(0.947368,0,0,0.947368,2121.33,21.5541)">
		
			<linearGradient id="SVGID_1_" gradientUnits="userSpaceOnUse" x1="-1982.4664" y1="79.2383" x2="-2010.4324" y2="21.7947" gradientTransform="matrix(-0.9982 6.001533e-02 6.001533e-02 0.9982 -4139.8813 122.2255)">
			<stop  offset="0" style="stop-color:#F6C3CF"/>
			<stop  offset="1" style="stop-color:#9390C6"/>
		</linearGradient>
		<path class="st0" d="M-2223.5,53.1c28.6-77.3,52.1-31.3,80.6-31.9c12.7-0.3,26.7-3.6,43.4,2.1c11.1,3.8,25.5,11.2,28,32.7
			c2.8,24.1-14.5,39.9-25.5,44.6c-14.6,6.3-25.9,7.2-41.7,6.4c-6.9-0.4-13.8-1.5-20.7-1.7c-8.2-0.2-16.4,0.3-24.6,1.2
			C-2194.5,107.7-2240.4,98.7-2223.5,53.1z"/>
	</g>
	<g>
		
			<linearGradient id="SVGID_2_" gradientUnits="userSpaceOnUse" x1="196.9968" y1="62.1246" x2="196.9968" y2="119.7335" gradientTransform="matrix(-1 0 0 1 262.2794 0)">
			<stop  offset="0" style="stop-color:#FFFFFF"/>
			<stop  offset="1" style="stop-color:#CCE8EF"/>
		</linearGradient>
		<path style="fill:url(#SVGID_2_);stroke:#9F9F9F;stroke-width:0.25;stroke-miterlimit:10;" d="M103.3,119.7h-76
			c-1.5,0-2.7-1.2-2.7-2.7V65c0-1.5,1.2-2.7,2.7-2.7h76c1.5,0,2.7,1.2,2.7,2.7V117C106,118.5,104.8,119.7,103.3,119.7z"/>
		
			<rect x="29.8" y="74.7" transform="matrix(-1 -4.495083e-11 4.495083e-11 -1 131.3478 160.458)" class="st260" width="71.7" height="11.1"/>
		
			<rect x="55.1" y="87.2" transform="matrix(-1 -4.491397e-11 4.491397e-11 -1 156.6008 177.1669)" class="st260" width="46.5" height="2.8"/>
		
			<rect x="55.1" y="90.8" transform="matrix(-1 -4.491397e-11 4.491397e-11 -1 156.6008 184.319)" class="st260" width="46.5" height="2.8"/>
		
			<rect x="55.1" y="96.5" transform="matrix(-1 -4.491397e-11 4.491397e-11 -1 156.6008 195.8049)" class="st260" width="46.5" height="2.8"/>
		
			<rect x="55.1" y="100.4" transform="matrix(-1 -4.491397e-11 4.491397e-11 -1 156.6008 203.615)" class="st260" width="46.5" height="2.8"/>
		
			<rect x="55.1" y="104.4" transform="matrix(-1 -4.487489e-11 4.487489e-11 -1 156.6008 211.4939)" class="st260" width="46.5" height="2.8"/>
		<g>
			<circle class="st261" cx="32.5" cy="64.8" r="0.4"/>
			<circle class="st262" cx="31.1" cy="64.8" r="0.4"/>
			<circle class="st195" cx="29.7" cy="64.8" r="0.4"/>
		</g>
		<g>
			
				<linearGradient id="SVGID_3_" gradientUnits="userSpaceOnUse" x1="228.1501" y1="86.8699" x2="228.1501" y2="113.6733" gradientTransform="matrix(-1 0 0 1 262.2794 0)">
				<stop  offset="0" style="stop-color:#FFFFFF"/>
				<stop  offset="1" style="stop-color:#CCE8EF"/>
			</linearGradient>
			<path style="fill:url(#SVGID_3_);stroke:#9F9F9F;stroke-width:0.25;stroke-miterlimit:10;" d="M51.6,113.6H16.7
				c-0.8,0-1.5-0.7-1.5-1.5V88.4c0-0.8,0.7-1.5,1.5-1.5h34.9c0.8,0,1.5,0.7,1.5,1.5v23.7C53.1,113,52.4,113.6,51.6,113.6z"/>
			<g>
				
					<rect x="19.2" y="95.8" transform="matrix(-1 -4.485224e-11 4.485224e-11 -1 53.8746 192.2167)" class="st260" width="15.6" height="0.7"/>
				
					<rect x="19.2" y="96.8" transform="matrix(-1 -4.485224e-11 4.485224e-11 -1 53.8746 194.3586)" class="st260" width="15.6" height="0.7"/>
				
					<rect x="19.2" y="97.9" transform="matrix(-1 -4.485224e-11 4.485224e-11 -1 53.8746 196.5005)" class="st260" width="15.6" height="0.7"/>
				
					<rect x="19.2" y="100" transform="matrix(-1 -4.485224e-11 4.485224e-11 -1 53.8746 200.7843)" class="st260" width="15.6" height="0.7"/>
				
					<rect x="19.2" y="101.1" transform="matrix(-1 -4.485224e-11 4.485224e-11 -1 53.8746 202.9262)" class="st260" width="15.6" height="0.7"/>
				
					<rect x="19.2" y="102.2" transform="matrix(-1 -4.496904e-11 4.496904e-11 -1 53.8746 205.0681)" class="st260" width="15.6" height="0.7"/>
				
					<rect x="19.2" y="103.3" transform="matrix(-1 -4.496904e-11 4.496904e-11 -1 53.8746 207.2101)" class="st260" width="15.6" height="0.7"/>
				
					<rect x="19.2" y="104.3" transform="matrix(-1 -4.496904e-11 4.496904e-11 -1 53.8746 209.352)" class="st260" width="15.6" height="0.7"/>
				
					<rect x="19.2" y="105.4" transform="matrix(-1 -4.496904e-11 4.496904e-11 -1 53.8746 211.4939)" class="st260" width="15.6" height="0.7"/>
				<g>
					<circle class="st260" cx="43.3" cy="97.1" r="2.6"/>
					<path class="st260" d="M49.1,106.1c0-3.2-2.6-5.9-5.9-5.9c-3.2,0-5.9,2.6-5.9,5.9H49.1z"/>
				</g>
			</g>
		</g>
	</g>
	<g>
		<g>
			<path class="st72" d="M150.1,92.9l-1.7-0.1c-0.2-1.1-0.5-2.1-0.9-3.1l1.3-1.6c0.4-0.5,0.4-1.4,0-2l-1.8-2.9l0.9,0.4l0-1.3h-2v0
				c-0.2,0-0.5,0.1-0.7,0.3l-1.4,1.6c-0.8-0.7-1.6-1.3-2.5-1.8v-2.7c0-0.9-0.6-1.7-1.2-1.9l-1.9-0.4l-0.1-0.5l-2,0l0,0
				c-0.6,0-1.1,0.6-1.1,1.4v2.9c-1.1,0.2-2.2,0.5-3.2,1l-1.7-2.1l0.2-1.1l-2,0c-0.3,0-0.6,0.1-0.9,0.3l-3.5,3.2
				c-0.7,0.7-0.7,1.9,0,2.7l2.2,2.5c-0.7,1.2-1.2,2.5-1.6,3.9l-1.4-0.1l0-0.1l-1.6,0l-0.2,0c-0.1,0-0.2,0-0.3,0l0,0v0
				c-0.9,0.1-1.6,0.9-1.6,1.9v5.7c0,1,0.8,1.9,1.8,1.9v0h0c0.1,0,0.1,0,0.2,0l0,0l1.8,0l0-0.1l1.4-0.1c0.4,1.4,0.9,2.7,1.6,3.9
				l-2.2,2.5c-0.7,0.8-0.7,2.1,0,2.7l3.5,3.2c0.3,0.2,0.6,0.3,0.9,0.3l0,0h2l0.2-1.5l-0.3,0.1l1.5-1.9c1,0.5,2.1,0.8,3.2,1v2.9
				c0,0.8,0.4,1.3,1,1.4l0,0h2.1l0-0.4l2-0.5c0.7-0.2,1.2-1,1.2-1.9v-2.7c0.9-0.5,1.8-1.1,2.5-1.8l1.4,1.6c0.2,0.2,0.4,0.3,0.6,0.3
				l0,0h2v-1.4l-0.7,0.3l1.7-2.7c0.4-0.6,0.4-1.5,0-2l-1.3-1.6c0.4-1,0.7-2,0.9-3.1l1.7-0.1c0.5,0,1-0.7,1-1.4v-3.9
				C151.1,93.6,150.7,92.9,150.1,92.9z M138.1,103.4c-3.3,0.3-6.2-2.9-6.2-7.1s2.9-7.4,6.2-7.1c3.1,0.3,5.4,3.4,5.4,7.1
				C143.5,99.9,141.2,103.1,138.1,103.4z"/>
			
				<linearGradient id="SVGID_4_" gradientUnits="userSpaceOnUse" x1="66.9263" y1="54.1503" x2="64.4339" y2="116.4594" gradientTransform="matrix(1 0 0 1 71.8395 0)">
				<stop  offset="0" style="stop-color:#282452"/>
				<stop  offset="1" style="stop-color:#4CC1E7"/>
			</linearGradient>
			<path class="st3" d="M152.1,92.9l-1.7-0.1c-0.2-1.1-0.5-2.1-0.9-3.1l1.3-1.6c0.4-0.5,0.4-1.4,0-2l-2.1-3.2
				c-0.4-0.7-1.1-0.8-1.5-0.3l-1.4,1.6c-0.8-0.7-1.6-1.3-2.5-1.8v-2.7c0-0.9-0.6-1.7-1.2-1.9l-3.7-0.9c-0.8-0.2-1.4,0.4-1.4,1.4v2.9
				c-1.1,0.2-2.2,0.5-3.2,1l-1.9-2.5c-0.6-0.8-1.7-1-2.3-0.4l-3.5,3.2c-0.7,0.7-0.7,1.9,0,2.7l2.2,2.5c-0.7,1.2-1.2,2.5-1.6,3.9
				l-3.2-0.2c-1.1-0.1-2,0.8-2,1.9v5.7c0,1.1,0.9,2,2,1.9l3.2-0.2c0.4,1.4,0.9,2.7,1.6,3.9l-2.2,2.5c-0.7,0.8-0.7,2.1,0,2.7l3.5,3.2
				c0.7,0.6,1.7,0.4,2.3-0.4l1.9-2.5c1,0.5,2.1,0.8,3.2,1v2.9c0,0.9,0.6,1.6,1.4,1.4l3.7-0.9c0.7-0.2,1.2-1,1.2-1.9v-2.7
				c0.9-0.5,1.8-1.1,2.5-1.8l1.4,1.6c0.4,0.5,1.1,0.4,1.5-0.3l2.1-3.2c0.4-0.6,0.4-1.5,0-2l-1.3-1.6c0.4-1,0.7-2,0.9-3.1l1.7-0.1
				c0.5,0,1-0.7,1-1.4v-3.9C153,93.6,152.6,92.9,152.1,92.9z M140.1,103.4c-3.3,0.3-6.2-2.9-6.2-7.1c0-4.2,2.9-7.4,6.2-7.1
				c3.1,0.3,5.4,3.4,5.4,7.1C145.5,99.9,143.2,103.1,140.1,103.4z"/>
		</g>
		<g>
			<path class="st72" d="M124.5,72.3l-0.6,0c-0.1-0.4-0.2-0.8-0.3-1.2l0.5-0.6c0.1-0.2,0.1-0.5,0-0.7l-0.7-1.1l0.3,0.1l0-0.5h-0.7v0
				c-0.1,0-0.2,0-0.2,0.1l-0.5,0.6c-0.3-0.3-0.6-0.5-0.9-0.7v-1c0-0.3-0.2-0.6-0.5-0.7l-0.7-0.2l0-0.2l-0.8,0l0,0
				c-0.2,0-0.4,0.2-0.4,0.5V68c-0.4,0.1-0.8,0.2-1.2,0.4l-0.6-0.8l0.1-0.4l-0.7,0c-0.1,0-0.2,0-0.3,0.1l-1.3,1.2
				c-0.3,0.2-0.3,0.7,0,1l0.8,0.9c-0.2,0.4-0.4,0.9-0.6,1.5l-0.5,0l0,0l-0.6,0l-0.1,0c0,0-0.1,0-0.1,0l0,0v0c-0.3,0-0.6,0.3-0.6,0.7
				v2.1c0,0.4,0.3,0.7,0.7,0.7v0h0c0,0,0,0,0.1,0l0,0l0.7,0l0,0l0.5,0c0.1,0.5,0.3,1,0.6,1.5l-0.8,0.9c-0.3,0.3-0.3,0.8,0,1l1.3,1.2
				c0.1,0.1,0.2,0.1,0.3,0.1l0,0h0.7l0.1-0.5l-0.1,0l0.5-0.7c0.4,0.2,0.8,0.3,1.2,0.4v1.1c0,0.3,0.2,0.5,0.4,0.5l0,0h0.8l0-0.2
				l0.8-0.2c0.3-0.1,0.5-0.4,0.5-0.7v-1c0.3-0.2,0.7-0.4,0.9-0.7l0.5,0.6c0.1,0.1,0.2,0.1,0.2,0.1l0,0h0.7v-0.5l-0.3,0.1l0.6-1
				c0.1-0.2,0.1-0.6,0-0.7l-0.5-0.6c0.1-0.4,0.3-0.8,0.3-1.2l0.6,0c0.2,0,0.4-0.2,0.4-0.5v-1.4C124.9,72.6,124.7,72.3,124.5,72.3z
				 M120.1,76.2c-1.2,0.1-2.3-1.1-2.3-2.6c0-1.6,1.1-2.7,2.3-2.6c1.1,0.1,2,1.3,2,2.6C122.1,74.9,121.2,76.1,120.1,76.2z"/>
			
				<linearGradient id="SVGID_5_" gradientUnits="userSpaceOnUse" x1="48.663" y1="53.4198" x2="46.1706" y2="115.7288" gradientTransform="matrix(1 0 0 1 71.8395 0)">
				<stop  offset="0" style="stop-color:#282452"/>
				<stop  offset="1" style="stop-color:#4CC1E7"/>
			</linearGradient>
			<path class="st4" d="M125.3,72.3l-0.6,0c-0.1-0.4-0.2-0.8-0.3-1.2l0.5-0.6c0.1-0.2,0.1-0.5,0-0.7l-0.8-1.2
				c-0.2-0.2-0.4-0.3-0.6-0.1l-0.5,0.6c-0.3-0.3-0.6-0.5-0.9-0.7v-1c0-0.3-0.2-0.6-0.5-0.7l-1.4-0.3c-0.3-0.1-0.5,0.2-0.5,0.5V68
				c-0.4,0.1-0.8,0.2-1.2,0.4l-0.7-0.9c-0.2-0.3-0.6-0.4-0.9-0.2l-1.3,1.2c-0.3,0.2-0.3,0.7,0,1l0.8,0.9c-0.2,0.4-0.4,0.9-0.6,1.5
				l-1.2-0.1c-0.4,0-0.7,0.3-0.7,0.7v2.1c0,0.4,0.3,0.7,0.7,0.7l1.2-0.1c0.1,0.5,0.3,1,0.6,1.5l-0.8,0.9c-0.3,0.3-0.3,0.8,0,1
				l1.3,1.2c0.2,0.2,0.6,0.1,0.9-0.2l0.7-0.9c0.4,0.2,0.8,0.3,1.2,0.4v1.1c0,0.3,0.2,0.6,0.5,0.5l1.4-0.3c0.3-0.1,0.5-0.4,0.5-0.7
				v-1c0.3-0.2,0.7-0.4,0.9-0.7l0.5,0.6c0.2,0.2,0.4,0.1,0.6-0.1l0.8-1.2c0.1-0.2,0.1-0.6,0-0.7l-0.5-0.6c0.1-0.4,0.3-0.8,0.3-1.2
				l0.6,0c0.2,0,0.4-0.2,0.4-0.5v-1.4C125.6,72.6,125.5,72.3,125.3,72.3z M120.8,76.2c-1.2,0.1-2.3-1.1-2.3-2.6
				c0-1.6,1.1-2.7,2.3-2.6c1.1,0.1,2,1.3,2,2.6C122.8,74.9,121.9,76.1,120.8,76.2z"/>
		</g>
		<g>
			<path class="st72" d="M116.3,88.7l-1.1-0.1c-0.1-0.7-0.3-1.4-0.6-2l0.8-1c0.2-0.3,0.2-0.9,0-1.3l-1.2-1.8l0.6,0.3l0-0.9h-1.2v0
				c-0.2,0-0.3,0.1-0.4,0.2l-0.9,1c-0.5-0.4-1-0.8-1.6-1.1v-1.7c0-0.6-0.4-1.1-0.8-1.2l-1.2-0.3l-0.1-0.3l-1.3,0l0,0
				c-0.4,0-0.7,0.4-0.7,0.9v1.9c-0.7,0.1-1.4,0.3-2,0.6l-1.1-1.4l0.1-0.7l-1.2,0c-0.2,0-0.4,0.1-0.6,0.2l-2.2,2
				c-0.5,0.4-0.5,1.2,0,1.7l1.4,1.6c-0.4,0.8-0.8,1.6-1,2.5l-0.9,0l0-0.1l-1,0l-0.1,0c-0.1,0-0.1,0-0.2,0l0,0v0
				c-0.6,0.1-1,0.6-1,1.2v3.6c0,0.7,0.5,1.2,1.1,1.2v0h0c0,0,0.1,0,0.1,0l0,0l1.1,0l0-0.1l0.9,0c0.2,0.9,0.6,1.7,1,2.5l-1.4,1.6
				c-0.5,0.5-0.5,1.3,0,1.7l2.2,2c0.2,0.1,0.4,0.2,0.6,0.2l0,0h1.3l0.1-0.9l-0.2,0.1l0.9-1.2c0.6,0.3,1.3,0.5,2,0.6v1.9
				c0,0.5,0.3,0.8,0.7,0.9l0,0h1.3l0-0.3l1.3-0.3c0.4-0.1,0.8-0.6,0.8-1.2v-1.7c0.6-0.3,1.1-0.7,1.6-1.1l0.9,1
				c0.1,0.1,0.3,0.2,0.4,0.2l0,0h1.2v-0.9l-0.5,0.2l1.1-1.7c0.2-0.4,0.2-1,0-1.3l-0.8-1c0.3-0.6,0.4-1.3,0.6-2l1.1-0.1
				c0.3,0,0.6-0.4,0.6-0.9v-2.5C116.9,89.1,116.6,88.7,116.3,88.7z M108.7,95.3c-2.1,0.2-3.9-1.8-3.9-4.5s1.8-4.7,3.9-4.5
				c1.9,0.2,3.4,2.2,3.4,4.5S110.6,95.1,108.7,95.3z"/>
			
				<linearGradient id="SVGID_6_" gradientUnits="userSpaceOnUse" x1="37.6771" y1="52.9804" x2="35.1848" y2="115.2894" gradientTransform="matrix(1 0 0 1 71.8395 0)">
				<stop  offset="0" style="stop-color:#282452"/>
				<stop  offset="1" style="stop-color:#4CC1E7"/>
			</linearGradient>
			<path class="st5" d="M117.5,88.7l-1.1-0.1c-0.1-0.7-0.3-1.4-0.6-2l0.8-1c0.2-0.3,0.2-0.9,0-1.3l-1.3-2c-0.3-0.4-0.7-0.5-1-0.2
				l-0.9,1c-0.5-0.4-1-0.8-1.6-1.1v-1.7c0-0.6-0.4-1.1-0.8-1.2l-2.4-0.5c-0.5-0.1-0.9,0.3-0.9,0.9v1.9c-0.7,0.1-1.4,0.3-2,0.6
				l-1.2-1.6c-0.4-0.5-1.1-0.7-1.5-0.3l-2.2,2c-0.5,0.4-0.5,1.2,0,1.7l1.4,1.6c-0.4,0.8-0.8,1.6-1,2.5l-2.1-0.1
				c-0.7,0-1.3,0.5-1.3,1.2v3.6c0,0.7,0.6,1.3,1.3,1.2l2.1-0.1c0.2,0.9,0.6,1.7,1,2.5l-1.4,1.6c-0.5,0.5-0.5,1.3,0,1.7l2.2,2
				c0.4,0.4,1.1,0.3,1.5-0.3l1.2-1.6c0.6,0.3,1.3,0.5,2,0.6v1.9c0,0.6,0.4,1,0.9,0.9l2.4-0.5c0.4-0.1,0.8-0.6,0.8-1.2v-1.7
				c0.6-0.3,1.1-0.7,1.6-1.1l0.9,1c0.3,0.3,0.7,0.2,1-0.2l1.3-2c0.2-0.4,0.2-1,0-1.3l-0.8-1c0.3-0.6,0.4-1.3,0.6-2l1.1-0.1
				c0.3,0,0.6-0.4,0.6-0.9v-2.5C118.1,89.1,117.9,88.7,117.5,88.7z M109.9,95.3c-2.1,0.2-3.9-1.8-3.9-4.5c0-2.7,1.8-4.7,3.9-4.5
				c1.9,0.2,3.4,2.2,3.4,4.5S111.9,95.1,109.9,95.3z"/>
		</g>
	</g>
	<linearGradient id="SVGID_7_" gradientUnits="userSpaceOnUse" x1="89.9302" y1="118.727" x2="89.9302" y2="113.6422">
		<stop  offset="0" style="stop-color:#917A72"/>
		<stop  offset="0.4392" style="stop-color:#927B73"/>
		<stop  offset="0.5974" style="stop-color:#93817A"/>
		<stop  offset="0.7101" style="stop-color:#968A84"/>
		<stop  offset="0.8013" style="stop-color:#989894"/>
		<stop  offset="0.8794" style="stop-color:#9BAAAA"/>
		<stop  offset="0.9473" style="stop-color:#9EC0C6"/>
		<stop  offset="1" style="stop-color:#9ED6E4"/>
	</linearGradient>
	<path class="st6" d="M122.9,118.7H57c-1.4,0-2.5-1.1-2.5-2.5l0,0c0-1.4,1.1-2.5,2.5-2.5h66c1.4,0,2.5,1.1,2.5,2.5l0,0
		C125.4,117.6,124.3,118.7,122.9,118.7z"/>
	<g>
		<circle class="st268" cx="105.5" cy="73.1" r="0.9"/>
		<circle class="st268" cx="78.8" cy="111.4" r="0.9"/>
		<circle class="st268" cx="117.2" cy="54.6" r="0.9"/>
		<circle class="st269" cx="117.2" cy="54.6" r="1.3"/>
		<circle class="st268" cx="104.5" cy="78.8" r="0.4"/>
		<circle class="st268" cx="84" cy="88.2" r="0.4"/>
		<circle class="st268" cx="100.3" cy="99.6" r="0.4"/>
		<circle class="st268" cx="105.2" cy="90.4" r="0.4"/>
		<circle class="st268" cx="74.5" cy="77.1" r="0.8"/>
		<circle class="st268" cx="59.8" cy="69" r="0.8"/>
		<circle class="st268" cx="83.6" cy="63.5" r="0.8"/>
		<circle class="st268" cx="83.6" cy="63.5" r="1.5"/>
		<circle class="st268" cx="97.6" cy="69.6" r="0.5"/>
		<circle class="st269" cx="97.6" cy="69.6" r="0.7"/>
		<circle class="st268" cx="98.7" cy="43.7" r="0.5"/>
		<circle class="st268" cx="98.7" cy="43.7" r="0.9"/>
	</g>
	<g>
		<linearGradient id="SVGID_8_" gradientUnits="userSpaceOnUse" x1="82.6545" y1="108.3965" x2="99.315" y2="69.1925">
			<stop  offset="0" style="stop-color:#4A667B"/>
			<stop  offset="1" style="stop-color:#69B5D3"/>
		</linearGradient>
		<path class="st7" d="M91.7,111.6L91.7,111.6c-4,0-7.4-3-7.9-7l-3.3-26.7c-1.2-9,23.8-9.2,22.4,0l-3.3,26.7
			C99.2,108.6,95.8,111.6,91.7,111.6z"/>
		<linearGradient id="SVGID_9_" gradientUnits="userSpaceOnUse" x1="76.4987" y1="106.0026" x2="79.5578" y2="75.9578">
			<stop  offset="0" style="stop-color:#4A667B"/>
			<stop  offset="1" style="stop-color:#69B5D3"/>
		</linearGradient>
		<ellipse class="st8" cx="77.8" cy="93.2" rx="3.4" ry="13"/>
		<linearGradient id="SVGID_10_" gradientUnits="userSpaceOnUse" x1="104.3584" y1="106.0026" x2="107.4175" y2="75.9578">
			<stop  offset="0" style="stop-color:#4A667B"/>
			<stop  offset="1" style="stop-color:#69B5D3"/>
		</linearGradient>
		<ellipse class="st9" cx="105.7" cy="93.2" rx="3.4" ry="13"/>
		<linearGradient id="SVGID_11_" gradientUnits="userSpaceOnUse" x1="91.7533" y1="72.2431" x2="91.7533" y2="57.4112">
			<stop  offset="0" style="stop-color:#4A667B"/>
			<stop  offset="1" style="stop-color:#69B5D3"/>
		</linearGradient>
		<path class="st10" d="M91.8,72.8L91.8,72.8c-2.5,0-6-1.7-6.5-4.2L84,63.3c-0.8-3.4,1.8-6.6,5.3-6.6h5c3.4,0,6,3.2,5.3,6.6
			l-1.2,5.3C97.8,71.1,94.3,72.8,91.8,72.8z"/>
	</g>
	<linearGradient id="SVGID_12_" gradientUnits="userSpaceOnUse" x1="90.931" y1="113.6422" x2="90.931" y2="50.0747">
		<stop  offset="0" style="stop-color:#9ED6E4;stop-opacity:0.7"/>
		<stop  offset="0.1178" style="stop-color:#C0E4ED;stop-opacity:0.6175"/>
		<stop  offset="0.2435" style="stop-color:#D8EEF4;stop-opacity:0.5295"/>
		<stop  offset="0.3811" style="stop-color:#EAF6F9;stop-opacity:0.4332"/>
		<stop  offset="0.5346" style="stop-color:#F6FBFD;stop-opacity:0.3258"/>
		<stop  offset="0.7166" style="stop-color:#FDFEFE;stop-opacity:0.1984"/>
		<stop  offset="1" style="stop-color:#FFFFFF;stop-opacity:0"/>
	</linearGradient>
	<polygon class="st11" points="119,51.4 62.8,51.4 73.1,113.6 108.8,113.6 	"/>
	<g>
		<circle class="st268" cx="73.2" cy="72.3" r="0.9"/>
		<circle class="st268" cx="99.9" cy="110.5" r="0.9"/>
		<circle class="st268" cx="61.5" cy="53.7" r="0.9"/>
		<circle class="st269" cx="61.5" cy="53.7" r="1.3"/>
		<circle class="st268" cx="74.2" cy="78" r="0.4"/>
		<circle class="st268" cx="94.7" cy="87.3" r="0.4"/>
		<circle class="st268" cx="78.4" cy="98.7" r="0.4"/>
		<circle class="st268" cx="73.4" cy="89.6" r="0.4"/>
		<circle class="st268" cx="104.1" cy="76.2" r="0.8"/>
		<circle class="st268" cx="118.9" cy="68.2" r="0.8"/>
		<circle class="st268" cx="95.1" cy="62.6" r="0.8"/>
		<circle class="st268" cx="95.1" cy="62.6" r="1.5"/>
		<circle class="st268" cx="81.1" cy="68.7" r="0.5"/>
		<circle class="st269" cx="81.1" cy="68.7" r="0.7"/>
		<circle class="st268" cx="80" cy="42.9" r="0.5"/>
		<circle class="st268" cx="80" cy="42.9" r="0.9"/>
	</g>
	<g>
		
			<linearGradient id="SVGID_13_" gradientUnits="userSpaceOnUse" x1="93.131" y1="121.9294" x2="251.5674" y2="121.9294" gradientTransform="matrix(-1 0 0 1 262.2794 0)">
			<stop  offset="0" style="stop-color:#404040"/>
			<stop  offset="1" style="stop-color:#000000"/>
		</linearGradient>
		<path class="st12" d="M12.7,123.9h154.5c1.1,0,2-0.9,2-2l0,0c0-1.1-0.9-2-2-2H12.7c-1.1,0-2,0.9-2,2l0,0
			C10.7,123,11.6,123.9,12.7,123.9z"/>
		
			<linearGradient id="SVGID_14_" gradientUnits="userSpaceOnUse" x1="172.3492" y1="118.727" x2="172.3492" y2="124.7817" gradientTransform="matrix(-1 0 0 1 262.2794 0)">
			<stop  offset="0" style="stop-color:#E5A580"/>
			<stop  offset="1" style="stop-color:#20B2C0"/>
		</linearGradient>
		<path class="st13" d="M7.2,122.7h165.5c1.1,0,2-0.9,2-2l0,0c0-1.1-0.9-2-2-2H7.2c-1.1,0-2,0.9-2,2l0,0
			C5.2,121.8,6.1,122.7,7.2,122.7z"/>
	</g>
</g>
</svg>
