<?xml version="1.0" encoding="utf-8"?>
<!-- Generator: Adobe Illustrator 25.0.1, SVG Export Plug-In . SVG Version: 6.00 Build 0)  -->
<svg version="1.1" id="Calque_1" xmlns="http://www.w3.org/2000/svg" xmlns:xlink="http://www.w3.org/1999/xlink" x="0px" y="0px"
	 viewBox="0 0 179.9 153.2" style="enable-background:new 0 0 179.9 153.2;" xml:space="preserve">
<style type="text/css">
	.st0{fill:url(#SVGID_1_);}
	.st1{fill:url(#SVGID_2_);}
	.st2{fill:url(#SVGID_3_);}
	.st3{fill:url(#SVGID_4_);}
	.st4{fill:url(#SVGID_5_);}
	.st5{fill:url(#SVGID_6_);}
	.st6{fill:url(#SVGID_7_);}
	.st7{fill:url(#SVGID_8_);}
	.st8{fill:url(#SVGID_9_);}
	.st9{fill:url(#SVGID_10_);}
	.st10{fill:url(#SVGID_11_);}
	.st11{fill:url(#SVGID_12_);}
	.st12{fill:url(#SVGID_13_);}
	.st13{fill:url(#SVGID_14_);}
	.st14{fill:url(#SVGID_15_);}
	.st15{fill:url(#SVGID_16_);}
	.st16{fill:url(#SVGID_17_);}
	.st17{fill:url(#SVGID_18_);}
	.st18{fill:url(#SVGID_19_);}
	.st19{fill:url(#SVGID_20_);}
	.st20{fill:url(#SVGID_21_);}
	.st21{fill:url(#SVGID_22_);}
	.st22{fill:url(#SVGID_23_);}
	.st23{fill:url(#SVGID_24_);}
	.st24{fill:url(#SVGID_25_);}
	.st25{fill:url(#SVGID_26_);}
	.st26{fill:url(#SVGID_27_);}
	.st27{fill:url(#SVGID_28_);}
	.st28{fill:url(#SVGID_29_);}
	.st29{fill:url(#SVGID_30_);}
	.st30{fill:url(#SVGID_31_);}
	.st31{fill:url(#SVGID_32_);}
	.st32{fill:url(#SVGID_33_);}
	.st33{fill:url(#SVGID_34_);}
	.st34{fill:url(#SVGID_35_);}
	.st35{fill:url(#SVGID_36_);}
	.st36{fill:url(#SVGID_37_);}
	.st37{fill:url(#SVGID_38_);}
	.st38{fill:url(#SVGID_39_);}
	.st39{fill:url(#SVGID_40_);}
	.st40{fill:url(#SVGID_41_);}
	.st41{fill:url(#SVGID_42_);}
	.st42{clip-path:url(#SVGID_45_);}
	.st43{fill:url(#SVGID_46_);}
	.st44{fill:url(#SVGID_47_);}
	.st45{fill:url(#SVGID_48_);}
	.st46{fill:url(#SVGID_49_);}
	.st47{clip-path:url(#SVGID_52_);}
	.st48{fill:url(#SVGID_53_);}
	.st49{clip-path:url(#SVGID_56_);}
	.st50{fill:url(#SVGID_57_);}
	.st51{fill:url(#SVGID_58_);}
	.st52{fill:url(#SVGID_59_);}
	.st53{fill:url(#SVGID_60_);}
	.st54{fill:url(#SVGID_61_);}
	.st55{fill:#E83189;}
	.st56{clip-path:url(#SVGID_64_);}
	.st57{fill:url(#SVGID_65_);}
	.st58{fill:#272252;}
	.st59{fill:url(#SVGID_66_);}
	.st60{fill:url(#SVGID_67_);}
	.st61{fill:url(#SVGID_68_);}
	.st62{fill:url(#SVGID_69_);}
	.st63{fill:url(#SVGID_70_);}
	.st64{fill:url(#SVGID_71_);}
	.st65{fill:url(#SVGID_72_);}
	.st66{fill:url(#SVGID_73_);}
	.st67{fill:url(#SVGID_74_);}
	.st68{fill:url(#SVGID_75_);}
	.st69{fill:url(#SVGID_76_);}
	.st70{fill:url(#SVGID_77_);}
	.st71{fill:url(#SVGID_78_);}
	.st72{fill:#FFFFFF;}
	.st73{fill:url(#SVGID_79_);}
	.st74{fill:url(#SVGID_80_);}
	.st75{fill:url(#SVGID_81_);}
	.st76{fill:url(#SVGID_82_);}
	.st77{fill:url(#SVGID_83_);}
	.st78{fill:url(#SVGID_84_);}
	.st79{fill:url(#SVGID_85_);}
	.st80{fill:url(#SVGID_86_);}
	.st81{fill:url(#SVGID_87_);}
	.st82{fill:url(#SVGID_88_);}
	.st83{fill:url(#SVGID_89_);}
	.st84{fill:url(#SVGID_90_);}
	.st85{fill:url(#SVGID_91_);}
	.st86{fill:url(#SVGID_92_);}
	.st87{fill:url(#SVGID_93_);}
	.st88{fill:url(#SVGID_94_);}
	.st89{fill:url(#SVGID_95_);}
	.st90{fill:url(#SVGID_96_);}
	.st91{fill:url(#SVGID_97_);}
	.st92{fill:url(#SVGID_98_);}
	.st93{fill:url(#SVGID_99_);}
	.st94{fill:url(#SVGID_100_);}
	.st95{fill:url(#SVGID_101_);}
	.st96{fill:url(#SVGID_102_);}
	.st97{fill:url(#SVGID_103_);}
	.st98{fill:url(#SVGID_104_);}
	.st99{fill:url(#SVGID_105_);}
	.st100{fill:url(#SVGID_106_);}
	.st101{fill:url(#SVGID_107_);}
	.st102{fill:url(#SVGID_108_);}
	.st103{fill:url(#SVGID_109_);}
	.st104{fill:url(#SVGID_110_);}
	.st105{fill:url(#SVGID_111_);}
	.st106{fill:url(#SVGID_112_);}
	.st107{fill:url(#SVGID_113_);}
	.st108{fill:url(#SVGID_114_);}
	.st109{fill:url(#SVGID_115_);}
	.st110{fill:url(#SVGID_116_);}
	.st111{fill:url(#SVGID_117_);}
	.st112{fill:url(#SVGID_118_);}
	.st113{fill:url(#SVGID_119_);}
	.st114{fill:url(#SVGID_120_);}
	.st115{clip-path:url(#SVGID_123_);}
	.st116{fill:url(#SVGID_124_);}
	.st117{fill:url(#SVGID_125_);}
	.st118{fill:url(#SVGID_126_);}
	.st119{fill:url(#SVGID_127_);}
	.st120{clip-path:url(#SVGID_130_);}
	.st121{fill:url(#SVGID_131_);}
	.st122{clip-path:url(#SVGID_134_);}
	.st123{fill:url(#SVGID_135_);}
	.st124{fill:url(#SVGID_136_);}
	.st125{fill:url(#SVGID_137_);}
	.st126{fill:url(#SVGID_138_);}
	.st127{fill:url(#SVGID_139_);}
	.st128{fill:#F8C5D1;}
	.st129{clip-path:url(#SVGID_142_);}
	.st130{fill:url(#SVGID_143_);}
	.st131{fill:url(#SVGID_144_);}
	.st132{fill:url(#SVGID_145_);}
	.st133{fill:url(#SVGID_146_);}
	.st134{fill:url(#SVGID_147_);}
	.st135{fill:url(#SVGID_148_);}
	.st136{fill:url(#SVGID_149_);}
	.st137{fill:url(#SVGID_150_);}
	.st138{fill:url(#SVGID_151_);}
	.st139{fill:url(#SVGID_152_);}
	.st140{fill:url(#SVGID_153_);}
	.st141{fill:url(#SVGID_154_);}
	.st142{fill:url(#SVGID_155_);}
	.st143{fill:url(#SVGID_156_);}
	.st144{fill:url(#SVGID_157_);}
	.st145{fill:url(#SVGID_158_);}
	.st146{fill:url(#SVGID_159_);}
	.st147{fill:url(#SVGID_160_);}
	.st148{fill:#282452;}
	.st149{fill:url(#SVGID_161_);}
	.st150{fill:url(#SVGID_162_);}
	.st151{fill-rule:evenodd;clip-rule:evenodd;fill:url(#SVGID_163_);}
	.st152{fill-rule:evenodd;clip-rule:evenodd;fill:url(#SVGID_164_);}
	.st153{fill-rule:evenodd;clip-rule:evenodd;fill:url(#SVGID_165_);}
	.st154{fill-rule:evenodd;clip-rule:evenodd;fill:#282452;}
	.st155{fill-rule:evenodd;clip-rule:evenodd;fill:url(#SVGID_166_);}
	.st156{fill-rule:evenodd;clip-rule:evenodd;fill:url(#SVGID_167_);}
	.st157{fill-rule:evenodd;clip-rule:evenodd;fill:url(#SVGID_168_);}
	.st158{fill-rule:evenodd;clip-rule:evenodd;fill:url(#SVGID_169_);}
	.st159{fill:url(#SVGID_170_);}
	.st160{fill-rule:evenodd;clip-rule:evenodd;fill:#194058;}
	.st161{fill:url(#SVGID_171_);}
	.st162{fill:url(#SVGID_172_);}
	.st163{fill:url(#SVGID_173_);}
	.st164{fill:url(#SVGID_174_);}
	.st165{fill:url(#SVGID_175_);}
	.st166{fill:url(#SVGID_176_);}
	.st167{clip-path:url(#SVGID_179_);}
	.st168{fill:url(#SVGID_180_);}
	.st169{fill:url(#SVGID_181_);}
	.st170{fill:url(#SVGID_182_);}
	.st171{fill-rule:evenodd;clip-rule:evenodd;fill:#123250;}
	.st172{fill-rule:evenodd;clip-rule:evenodd;fill:url(#SVGID_183_);}
	.st173{fill-rule:evenodd;clip-rule:evenodd;fill:#020203;}
	.st174{fill-rule:evenodd;clip-rule:evenodd;fill:url(#SVGID_184_);}
	.st175{fill-rule:evenodd;clip-rule:evenodd;fill:#B9897D;}
	.st176{fill-rule:evenodd;clip-rule:evenodd;fill:url(#SVGID_185_);}
	.st177{fill-rule:evenodd;clip-rule:evenodd;fill:#01568E;}
	.st178{fill:url(#SVGID_186_);stroke:url(#SVGID_187_);stroke-miterlimit:10;}
	.st179{fill:url(#SVGID_188_);}
	.st180{fill:url(#SVGID_189_);}
	.st181{fill:url(#SVGID_190_);}
	.st182{fill:url(#SVGID_191_);}
	.st183{fill:url(#SVGID_192_);}
	.st184{fill:url(#SVGID_193_);}
	.st185{fill:url(#SVGID_194_);}
	.st186{fill:url(#SVGID_195_);}
	.st187{fill:url(#SVGID_196_);}
	.st188{fill:url(#SVGID_197_);}
	.st189{fill:url(#SVGID_198_);}
	.st190{opacity:0.85;}
	.st191{fill:url(#SVGID_199_);stroke:#A1A0A0;stroke-width:0.25;stroke-miterlimit:10;}
	.st192{opacity:0.8;fill:#B6DDD7;}
	.st193{fill:#3EAC50;}
	.st194{fill:#F0BF49;}
	.st195{fill:#D92A2B;}
	.st196{fill:url(#SVGID_200_);stroke:#A1A0A0;stroke-width:0.25;stroke-miterlimit:10;}
	.st197{fill:url(#SVGID_201_);}
	.st198{fill:url(#SVGID_202_);}
	.st199{fill:url(#SVGID_203_);}
	.st200{fill:url(#SVGID_204_);}
	.st201{fill:url(#SVGID_205_);}
	.st202{clip-path:url(#SVGID_208_);}
	.st203{fill:url(#SVGID_209_);}
	.st204{fill:url(#SVGID_210_);}
	.st205{fill:url(#SVGID_211_);}
	.st206{fill:url(#SVGID_212_);}
	.st207{fill:url(#SVGID_213_);}
	.st208{fill:url(#SVGID_214_);}
	.st209{fill:url(#SVGID_215_);}
	.st210{fill:url(#SVGID_216_);}
	.st211{fill:url(#SVGID_217_);}
	.st212{fill:url(#SVGID_218_);}
	.st213{fill:url(#SVGID_219_);}
	.st214{fill:url(#SVGID_220_);}
	.st215{fill:url(#SVGID_221_);}
	.st216{fill:url(#SVGID_222_);}
	.st217{fill:url(#SVGID_223_);}
	.st218{fill:url(#SVGID_224_);}
	.st219{fill:url(#SVGID_225_);}
	.st220{fill:url(#SVGID_226_);}
	.st221{fill:url(#SVGID_227_);}
	.st222{fill:url(#SVGID_228_);}
	.st223{fill:url(#SVGID_229_);}
	.st224{fill:none;stroke:#A1A0A0;stroke-width:0.25;stroke-miterlimit:10;}
	.st225{fill:url(#SVGID_230_);}
	.st226{fill:url(#SVGID_231_);}
	.st227{fill:url(#SVGID_232_);}
	.st228{fill:url(#SVGID_233_);}
	.st229{fill:url(#SVGID_234_);}
	.st230{fill:url(#SVGID_235_);}
	.st231{fill:url(#SVGID_236_);}
	.st232{fill:url(#SVGID_237_);}
	.st233{fill:url(#SVGID_238_);}
	.st234{fill:#917971;}
	.st235{fill:url(#SVGID_239_);}
	.st236{fill:url(#SVGID_240_);}
	.st237{fill:url(#SVGID_241_);}
	.st238{fill:url(#SVGID_242_);}
	.st239{fill:url(#SVGID_243_);}
	.st240{clip-path:url(#SVGID_246_);}
	.st241{fill:url(#SVGID_247_);}
	.st242{fill:url(#SVGID_248_);}
	.st243{fill:url(#SVGID_249_);}
	.st244{fill:url(#SVGID_250_);}
	.st245{clip-path:url(#SVGID_253_);}
	.st246{fill:url(#SVGID_254_);}
	.st247{clip-path:url(#SVGID_257_);}
	.st248{fill:url(#SVGID_258_);}
	.st249{fill:url(#SVGID_259_);}
	.st250{fill:url(#SVGID_260_);}
	.st251{fill:url(#SVGID_261_);}
	.st252{fill:url(#SVGID_265_);}
	.st253{fill:url(#SVGID_266_);}
	.st254{fill:url(#SVGID_267_);}
	.st255{fill:url(#SVGID_268_);}
	.st256{fill:url(#SVGID_269_);}
	.st257{fill:url(#SVGID_270_);}
	.st258{fill:url(#SVGID_271_);stroke:#9F9F9F;stroke-width:0.25;stroke-miterlimit:10;}
	.st259{opacity:0.8;fill:#B6DCD6;}
	.st260{fill:#3EAC51;}
	.st261{fill:#EFBE4A;}
	.st262{fill:url(#SVGID_272_);stroke:#9F9F9F;stroke-width:0.25;stroke-miterlimit:10;}
	.st263{fill:url(#SVGID_273_);}
	.st264{fill:url(#SVGID_274_);}
	.st265{fill:url(#SVGID_275_);}
	.st266{fill:url(#SVGID_276_);}
	.st267{opacity:0.6;fill:#CBE8ED;}
	.st268{opacity:0.6;fill:none;stroke:#CBE8ED;stroke-miterlimit:10;}
	.st269{fill:url(#SVGID_277_);}
	.st270{fill:url(#SVGID_278_);}
	.st271{fill:url(#SVGID_279_);}
	.st272{fill:url(#SVGID_280_);}
	.st273{fill:url(#SVGID_281_);}
	.st274{fill:url(#SVGID_282_);}
	.st275{fill:url(#SVGID_283_);}
</style>
<g>
	<g>
		<g transform="matrix(0.947368,0,0,0.947368,2121.33,21.5541)">
			
				<linearGradient id="SVGID_1_" gradientUnits="userSpaceOnUse" x1="-2100.6458" y1="116.206" x2="-2061.1755" y2="-26.1428" gradientTransform="matrix(1 0 0 1 -65.2186 0)">
				<stop  offset="0" style="stop-color:#272252"/>
				<stop  offset="1" style="stop-color:#E83189"/>
			</linearGradient>
			<path class="st0" d="M-2146.1,115.1c0.9-13.2,3.7-26.9,8.9-39.1c2.7-6.2,6.4-12,9.4-18c4.5-9.1,8.9-18.5,12.7-27.9
				c5.2-13,3.3-29.9-13.3-31.3c-39.7-3.3-51.6,64.1-51.6,91.9c0,7.9,0.6,15.6,1.5,23.5c0,0.4,0.1,0.8,0.2,1.4"/>
		</g>
		<g transform="matrix(0.947368,0,0,0.947368,2121.33,21.5541)">
			
				<linearGradient id="SVGID_2_" gradientUnits="userSpaceOnUse" x1="-2137.5669" y1="114.9841" x2="-2150.9138" y2="52.8836" gradientTransform="matrix(1 0 0 1 -65.2186 0)">
				<stop  offset="0" style="stop-color:#272252"/>
				<stop  offset="1" style="stop-color:#E83189"/>
			</linearGradient>
			<path class="st1" d="M-2184.6,114.5c-1-2.7-0.8-3-0.8-6.1c-0.1-9.7-0.5-19.5-2.4-29.1c-2.1-10.6-6.9-23.8-16.3-30.2
				c-13-8.8-27.4,2.1-29.7,15.5c-3.1,17.8,6.9,21.7,13.1,36.1c5.2,12.1,4.9,1.4,5.4,14.4"/>
		</g>
		<g transform="matrix(0.947368,0,0,0.947368,2121.33,21.5541)">
			
				<linearGradient id="SVGID_3_" gradientUnits="userSpaceOnUse" x1="-2126.4802" y1="107.4424" x2="-2137.627" y2="37.7744" gradientTransform="matrix(1 0 0 1 -65.2186 0)">
				<stop  offset="0" style="stop-color:#272252"/>
				<stop  offset="1" style="stop-color:#E83189"/>
			</linearGradient>
			<path class="st2" d="M-2176.4,92.3c0-21.5,2.7-50-10.3-68.8c-1.5-2.2-2.9-5-4.9-6.7c-14.7-12.2-33.8-5.4-34.9,14.5
				c-0.9,15.6,8.9,26.6,15.1,39.9c3.8,8.2,7.5,17,10,25.7c1.3,4.5,2,9,2.6,13.5"/>
		</g>
		<g transform="matrix(0.941536,-0.104955,0.104955,0.941536,2056.12,213.577)">
			
				<linearGradient id="SVGID_4_" gradientUnits="userSpaceOnUse" x1="-2035.4449" y1="-315.2444" x2="-2011.661" y2="-410.3802" gradientTransform="matrix(1 0 0 1 -64.8172 -7.2253)">
				<stop  offset="0" style="stop-color:#272252"/>
				<stop  offset="1" style="stop-color:#E83189"/>
			</linearGradient>
			<path class="st3" d="M-2076-320.5c0-16,2-31.5,5.6-47.1c2.4-10.4,9.9-27.5,4.9-37.8c-2.9-6-10.4-5-15.6-3.2
				c-12.1,4.2-19.2,18-23,29.3c-5.8,17.5-7.7,37.6-4,56.3"/>
		</g>
		<g transform="matrix(0.947368,0,0,0.947368,2121.33,21.5541)">
			
				<linearGradient id="SVGID_5_" gradientUnits="userSpaceOnUse" x1="-2137.4927" y1="112.6329" x2="-2145.2246" y2="80.0335" gradientTransform="matrix(1 0 0 1 -65.2186 0)">
				<stop  offset="0" style="stop-color:#272252"/>
				<stop  offset="1" style="stop-color:#E83189"/>
			</linearGradient>
			<path class="st4" d="M-2196.2,81.3c0-2.2-2-5.5-2.8-7.4c-5.9-13.7-17.3-21-23.2-2.4c-4.6,14.5,4.3,30.6,10,43.9"/>
		</g>
		<g transform="matrix(0.93532,-0.150603,0.150603,0.93532,2056.63,223.853)">
			
				<linearGradient id="SVGID_6_" gradientUnits="userSpaceOnUse" x1="-1977.4209" y1="-420.9995" x2="-1952.998" y2="-508.8489" gradientTransform="matrix(1 0 0 1 -64.3893 -10.3678)">
				<stop  offset="0" style="stop-color:#272252"/>
				<stop  offset="1" style="stop-color:#E83189"/>
			</linearGradient>
			<path class="st5" d="M-2020.1-439.3c3.6-14.4,13.5-27,19.6-40.3c3.3-7.2,7.7-17.7,5.1-25.8c-4.7-14.9-23.8-3.9-30.1,3.5
				c-15.7,18.4-20.6,45-23.7,68.2c-0.2,1.4-0.4,2.8-0.6,4.3"/>
		</g>
		<g transform="matrix(0.947368,0,0,0.947368,2107.69,86.286)">
			
				<linearGradient id="SVGID_7_" gradientUnits="userSpaceOnUse" x1="-2559.3171" y1="-210.8516" x2="-2558.7112" y2="-210.8516" gradientTransform="matrix(28.172 -66.0803 -66.0803 -28.172 56050.8477 -175030.75)">
				<stop  offset="0" style="stop-color:#272252"/>
				<stop  offset="1" style="stop-color:#E83189"/>
			</linearGradient>
			<path class="st6" d="M-2110,47c0.9-1.6,1.8-3.2,2.6-4.8c5.3-10.6,21.2-48.1,2.5-54.4c-15.3-5.1-16.6,25.2-18.3,33.3
				c-1.6,8.1-3.4,16-5.9,23.8c-0.2,0.6-0.4,1.2-0.6,1.8"/>
		</g>
		<g>
			<g transform="matrix(1.01336,0,0,0.947368,2027.71,21.5541)">
				<path class="st58" d="M-1985,115.6c-3-4-5.9-7.4-6.9-13.6c-0.5-2.9-0.9-8.3,2.6-9.6c5.3-1.9,7.6,6.5,8.6,9.9
					c1.3,4.8,1.6,6.2,4.2,10.4"/>
			</g>
			<g transform="matrix(0.947368,0,0,0.947368,2121.33,21.5541)">
				<path class="st58" d="M-2210.1,115.6c-0.1-1.2-0.3-2.6-0.6-4.2c-1.9-11.7-3.6-16-4.2-19.6c-0.6-3.9-2.5-9,3.2-10.8
					c3.1-1,6.8,1.7,8.7,3.9c5.5,6.2,8.3,14.6,8.9,22.7c0.2,2.7,0.4,5.4,0.1,8"/>
			</g>
		</g>
		<linearGradient id="SVGID_8_" gradientUnits="userSpaceOnUse" x1="30.3629" y1="125.5032" x2="34.4397" y2="111.9467">
			<stop  offset="0" style="stop-color:#272252"/>
			<stop  offset="1" style="stop-color:#E83189"/>
		</linearGradient>
		<path class="st7" d="M23.7,130c3.9-7.3,3.5-12.1,7-9.1c1.6,1.4,2.6,5.2,3.6,9.7"/>
	</g>
	
		<linearGradient id="SVGID_9_" gradientUnits="userSpaceOnUse" x1="39.4139" y1="120.0417" x2="39.4139" y2="69.0574" gradientTransform="matrix(-1 0 0 1 179.8604 0)">
		<stop  offset="0" style="stop-color:#F7C4D0"/>
		<stop  offset="0.1839" style="stop-color:#EBBDCF;stop-opacity:0.8161"/>
		<stop  offset="0.5458" style="stop-color:#CAACCC;stop-opacity:0.4542"/>
		<stop  offset="1" style="stop-color:#9491C7;stop-opacity:0"/>
	</linearGradient>
	<polygon class="st8" points="124.4,120.2 156.5,120.2 165.1,67.7 115.8,67.7 	"/>
	<path class="st148" d="M98.4,120.3c7.6-4.7,9.8,1.3,13.2,1.5c3.4,0.2,11.3-2.1,11.3-2.1v1c0,0-7.6,2.9-11.3,2.2s-6.3-5.8-13-1.4
		S98.4,120.3,98.4,120.3z"/>
	<g>
		<g transform="matrix(0.485589,0,0,0.947368,2648.47,21.5541)">
			<path class="st234" d="M-5124.6,105.7c0-0.7-1-1.4-2.8-1.9c-1.8-0.5-4.4-0.8-7-0.8c-16,0.1-47.2,0.3-62.9,0.4
				c-5.2,0-9.4,1.2-9.4,2.7c0,0,0,0,0,0c0,1.5,4.3,2.7,9.6,2.7c15.8,0,47.2,0,62.9-0.1c5.2,0,9.5-1.2,9.6-2.6
				C-5124.6,105.9-5124.6,105.8-5124.6,105.7z"/>
		</g>
		<g transform="matrix(0.947368,0,0,0.947368,2114.02,32.9003)">
			
				<linearGradient id="SVGID_10_" gradientUnits="userSpaceOnUse" x1="-2114.425" y1="63.0734" x2="-2110.1372" y2="67.1693" gradientTransform="matrix(-1 0 0 1 -4273.0806 0)">
				<stop  offset="0" style="stop-color:#E69D77"/>
				<stop  offset="1" style="stop-color:#6C6A86"/>
			</linearGradient>
			<path class="st9" d="M-2155.9,79.9l-4.1-15.5l0.4-0.6l-3.1-9.9l-6-0.9l-1.2,6.7l8.7,24.6L-2155.9,79.9z"/>
		</g>
		<g transform="matrix(0.947368,0,0,0.947368,2114.02,32.9003)">
			
				<linearGradient id="SVGID_11_" gradientUnits="userSpaceOnUse" x1="-2566.1387" y1="-175.6549" x2="-2565.4758" y2="-175.6549" gradientTransform="matrix(-26.2871 2.2811 -2.1122 -28.3895 -69983.7422 944.3458)">
				<stop  offset="0" style="stop-color:#E7A67F"/>
				<stop  offset="1" style="stop-color:#1BB3C2"/>
			</linearGradient>
			<path class="st10" d="M-2159.9,64.4c-1.2,0.2-2.2,0.7-3.5,1.5c-1.4,0.8-2.5,1.9-3.1,3.4l5.3,15l24.7,4.8l-0.1-5.2l-19.3-4
				L-2159.9,64.4z"/>
		</g>
		<g transform="matrix(0.947368,0,0,0.947368,2121.33,21.5541)">
			
				<linearGradient id="SVGID_12_" gradientUnits="userSpaceOnUse" x1="-2562.0583" y1="-153.0776" x2="-2561.3979" y2="-153.0776" gradientTransform="matrix(-41.7319 41.974 -41.974 -41.7319 -115526.2188 101229.4766)">
				<stop  offset="0" style="stop-color:#E69D77"/>
				<stop  offset="1" style="stop-color:#6C6A86"/>
			</linearGradient>
			<path class="st11" d="M-2209.6,113.6c0,0-6.1-24.3,5.1-42.2c11.1-17.9,38.2-17.6,34.2,1.4c-4,19-21.2,14.2-14.5,39.4
				C-2185.2,113.5-2200.7,115.1-2209.6,113.6z"/>
		</g>
		<g transform="matrix(0.947368,0,0,0.947368,2121.33,21.5541)">
			
				<linearGradient id="SVGID_13_" gradientUnits="userSpaceOnUse" x1="-2581.4888" y1="-162.2078" x2="-2580.8259" y2="-162.2078" gradientTransform="matrix(-24.2866 -6.4128 6.4128 -24.2866 -63828.2969 -20428.3496)">
				<stop  offset="0" style="stop-color:#E7A67F"/>
				<stop  offset="1" style="stop-color:#1BB3C2"/>
			</linearGradient>
			<path class="st12" d="M-2176.1,59.4c-2.9-1.3-6.6-1.5-10.5-0.7c1,2.9,2.2,5.8,4.1,8.1c1.1,1.4,2.6,2.9,4.4,3.1
				c2.1,0.3,3.1-1.8,3.2-3.6C-2174.8,63.9-2175.4,61.6-2176.1,59.4z"/>
		</g>
		<g transform="matrix(0.947368,0,0,0.947368,2121.33,21.5541)">
			
				<linearGradient id="SVGID_14_" gradientUnits="userSpaceOnUse" x1="-2129.9163" y1="49.818" x2="-2123.8191" y2="49.3355" gradientTransform="matrix(-1 0 0 1 -4288.5127 0)">
				<stop  offset="0" style="stop-color:#E69D77"/>
				<stop  offset="1" style="stop-color:#6C6A86"/>
			</linearGradient>
			<path class="st13" d="M-2164.4,44.3c1-0.9,3.1,0.1,3.3,1.3c0.1,0.5-0.4,1.2-0.3,1.4c0.2,0.7,1.1,1,0.7,2.1
				c-0.1,0.4-0.3,0.8-0.6,1c-0.1,0.1-0.5,0.3-0.6,0.5c0,0.3,0.2,0.6,0.3,0.8c0.2,0.6,0.3,1.3,0.1,1.8c-0.1,0.3-0.3,0.6-0.6,0.8
				c-0.2,0.1-0.4,0.3-0.6,0.4c-0.4,0.2-1.8,0.6-2.2,0.1c-0.4-0.5-0.1-1.1-0.1-1.6c0-0.5-0.2-0.9-0.4-1.4c-0.5-1.1-0.9-2.1-0.8-3.4"
				/>
		</g>
		<g transform="matrix(0.947368,0,0,0.947368,2121.33,21.5541)">
			<g>
				<defs>
					<path id="SVGID_244_" d="M-2176,56.6c0.1,0-2.7,1.8-3.5,2.3c-1.8,1.3-3,4.4,0.1,5.3c2,0.6,4.3-0.6,5.9-1.7
						c0.5-0.3,1.4-0.9,1.4-0.9s2,2.7,4.1,2.4c1.5-0.2,2.5-1.7,3.3-3.8c1.4-3.7,1.9-7,1-11.7c-0.3-1.6-3-2.8-4.2-3.3
						c-1.6-0.7-3.9-1-5.6-0.2c-3.1,1.4-3.5,4.9-3.2,7.8C-2176.6,54.6-2176,56.6-2176,56.6z"/>
				</defs>
				
					<linearGradient id="SVGID_15_" gradientUnits="userSpaceOnUse" x1="-2119.5586" y1="54.3837" x2="-2098.325" y2="54.3837" gradientTransform="matrix(-1 0 0 1 -4288.5127 0)">
					<stop  offset="0" style="stop-color:#E7A67F"/>
					<stop  offset="1" style="stop-color:#1BB3C2"/>
				</linearGradient>
				<use xlink:href="#SVGID_244_"  style="overflow:visible;fill:url(#SVGID_15_);"/>
				<clipPath id="SVGID_16_">
					<use xlink:href="#SVGID_244_"  style="overflow:visible;"/>
				</clipPath>
				<g style="clip-path:url(#SVGID_16_);">
					<g transform="matrix(1.05556,0,0,1.05556,-4350.29,-22.7516)">
						
							<linearGradient id="SVGID_17_" gradientUnits="userSpaceOnUse" x1="1722.5098" y1="-94.2922" x2="1723.1725" y2="-94.2922" gradientTransform="matrix(13.3428 8.6143 -8.6143 13.3428 -21730.7891 -13506.7256)">
							<stop  offset="0" style="stop-color:#E7A67F"/>
							<stop  offset="1" style="stop-color:#FFFFFF"/>
						</linearGradient>
						<path class="st16" d="M2073.4,75.2c0.1-0.1,0.1-0.5,0.1-0.6c0-0.5,0.1-1.1,0-1.6c-0.2-2.4-2.3-5.3-5-4.8
							c-1.3,0.2-2,1.3-2.4,2.5c-0.3,1.2-0.2,2.6-0.3,3.9c-0.1,1.8-0.2,3.6-0.1,5.4c0,1.1,0,2.5,0.8,3.4c1.1,1.2,3,0.8,4.2,0
							c2.4-1.5,3.6-4.6,4.5-7.2"/>
					</g>
				</g>
			</g>
		</g>
		<g transform="matrix(0.959417,0,0.0821043,0.959417,-1831.08,6.61591)">
			
				<linearGradient id="SVGID_18_" gradientUnits="userSpaceOnUse" x1="2017.9088" y1="68.534" x2="2019.7417" y2="74.8472" gradientTransform="matrix(-1 0 -0.1712 1 4004.5364 0)">
				<stop  offset="0" style="stop-color:#E69D77"/>
				<stop  offset="1" style="stop-color:#6C6A86"/>
			</linearGradient>
			<path class="st17" d="M1970.8,69.3c0,0,0.3-0.1,0.3-0.1c0.3-0.1,0.6-0.1,0.9-0.1c0.8,0,1.7,0.2,2.3,0.7c0.3,0.2,0.4,0.5,0.7,0.7
				c0.1,0.1,0.3,0,0.4,0c0.1,0,0.1,0.1,0.2,0.1c0.2,0,0.4-0.2,0.6-0.3c0.3-0.1,0.7-0.2,1-0.2c0.2,0,0.4,0,0.6,0.1
				c1.4,0.4,0.7,2.4,0,3.4c-0.4,0.6-1.3,0.7-1.8,0.3c-0.5-0.6-0.5-1.2-0.6-2c0-0.3,0.1-0.9-0.2-1c-0.6-0.2-0.9,0.6-1.1,1.1
				c-0.3,0.5-0.9,1.2-1.4,1.4c-0.3,0.1-0.6,0.1-0.9,0c-0.2,0-0.4-0.1-0.5-0.2c-0.6-0.5-0.6-1.3-0.5-2.1c0.1-0.4,0.2-0.7,0.1-1.1
				c0-0.1-0.3-0.1-0.4-0.1c-0.3-0.1-1.3-0.1-1-0.7c0-0.1,0.2-0.1,0.3-0.1c0.3,0,0.5,0.2,0.8,0.2"/>
		</g>
		<g transform="matrix(0.947368,0,0,0.947368,2121.33,21.5541)">
			
				<linearGradient id="SVGID_19_" gradientUnits="userSpaceOnUse" x1="-2108.1538" y1="57.1304" x2="-2114.7773" y2="49.4542" gradientTransform="matrix(-1 0 0 1 -4288.5127 0)">
				<stop  offset="0" style="stop-color:#E69D77"/>
				<stop  offset="1" style="stop-color:#6C6A86"/>
			</linearGradient>
			<path class="st18" d="M-2171.8,50.5c0.4,0.6,1.3,1.8,2.2,1.4c0.4-0.2,0.5-0.7,0.4-1c0-0.1,0-0.2-0.1-0.4c0-0.1-0.1-0.2-0.1-0.2
				c0.6,0.3,2.5,2.1,3,0.8c0.1-0.3,0.1-0.8,0.1-1.1c0,0-0.1-0.4-0.1-0.4c0,0,0.2,0.2,0.2,0.2c0.1,0.1,0.3,0.2,0.5,0.3
				c0.5,0.3,1.1,0.5,1.7,0.3c0.7-0.3,1-1,0.7-1.7c0-0.1-0.5-0.6-0.4-0.7c0.1-0.2,0.5-0.3,0.6-0.4c0.6-0.4,1.4-1,1.3-1.8
				c-0.1-0.5-0.6-0.9-1-1.1c-0.1,0-0.4-0.1-0.5-0.2c0-0.1,0.3-0.6,0.3-0.7c0.1-0.5,0.1-1.1-0.3-1.5c-0.3-0.3-0.8-0.5-1.2-0.5
				c-0.5,0-1,0.2-1.4,0.4c-0.1,0-0.5,0.5-0.6,0.5c0,0-0.2-0.3-0.3-0.4c-0.4-0.4-0.8-0.4-1.2,0c-0.5,0.4-0.8,1-1,1.6
				c0,0-0.2,0.6-0.2,0.7c-0.1,0-0.3-0.3-0.3-0.3c-0.3-0.2-0.6-0.4-1-0.5c-0.4-0.1-0.7,0-1.1,0.1c-0.1,0-0.4,0.2-0.4,0.2
				c0,0-0.2-0.4-0.2-0.4c-0.2-0.2-0.5-0.5-0.8-0.6c-0.3-0.1-0.6,0-0.8,0.2c0,0-0.1,0.1-0.1,0.1c-0.1-0.1-0.1-0.6-0.1-0.8
				c-0.1-0.5-0.3-1-0.7-1.4c-0.7-0.7-1.8-0.5-2.5,0.2c-0.2,0.2-0.4,0.6-0.6,0.8c-0.3,0.2-0.7,0.1-1,0.5c-0.4,0.5-0.3,1.1-0.2,1.6
				c0,0.1,0.3,0.6,0.3,0.6c-0.2,0.3-0.9,0.5-1.1,1.4c-0.1,0.3-0.1,0.7,0.1,1c0.1,0.1,0.4,0.3,0.4,0.5c0,0.5-0.6,0.9-0.6,1.5
				c0,0.5,0.2,1.1,0.6,1.4c0.1,0.1,0.4,0.2,0.5,0.3c0,0.1-0.1,1.3-0.2,1.3c-1.1,0.3-0.9,1.2-0.9,1.5c0.1,0.9,0.7,0.6,1.1,1
				c0.1,0.1-0.2,0.3-0.3,0.4c-0.2,0.3-0.4,0.7-0.4,1.1c0,0.4,0.2,0.7,0.6,0.8c0.1,0.1,0.3,0.1,0.5,0.1c0,0,0.1,0,0.1,0
				c0,0.3-0.6,0.8-0.5,1.4c0.2,0.7,0.9,0.7,1.4,0.4c0.1,0,0.3-0.3,0.4-0.3c0.1,0,0.1,0.3,0.2,0.4c0.2,0.3,0.6,0.5,0.9,0.3
				c0.3-0.2,0.6-0.6,0.7-1c0.1-0.2,0.1-0.5,0.1-0.7c0-1.3-0.8-1.4-1.2-2.6c-0.2-0.7,0.5-3.5,1.3-3.8c0.6-0.2,1.1,0.2,1.4,0.7
				c0.5,0.9,0.2,1.9,0.7,2.8c0.3,0.5,1.1,1.1,1.6,0.6c1.1-1-0.1-2.6-0.9-3.4C-2173.2,50.7-2171.8,50.5-2171.8,50.5z"/>
		</g>
		<g transform="matrix(1.16077,0,0,1.16077,1893.83,-59.0853)">
			
				<linearGradient id="SVGID_20_" gradientUnits="userSpaceOnUse" x1="-1908.912" y1="-9.0524" x2="-1908.2493" y2="-9.0524" gradientTransform="matrix(9.6303 -8.497 8.497 9.6303 16878.0645 -16016.7256)">
				<stop  offset="0" style="stop-color:#FDE256"/>
				<stop  offset="1" style="stop-color:#FFFFFF"/>
			</linearGradient>
			<ellipse class="st19" cx="-1578.7" cy="113" rx="3.9" ry="4.4"/>
		</g>
		<g transform="matrix(0.756995,0,0,0.756995,2340.26,87.0225)">
			<g>
				<defs>
					<ellipse id="SVGID_251_" cx="-3011.8" cy="-19.9" rx="2.9" ry="3.3"/>
				</defs>
				
					<linearGradient id="SVGID_21_" gradientUnits="userSpaceOnUse" x1="-2938.1799" y1="-19.8973" x2="-2932.5903" y2="-19.8973" gradientTransform="matrix(-1 0 0 1 -5945.4282 0)">
					<stop  offset="0" style="stop-color:#2E358C"/>
					<stop  offset="1" style="stop-color:#E83189"/>
				</linearGradient>
				<use xlink:href="#SVGID_251_"  style="overflow:visible;fill:url(#SVGID_21_);"/>
				<clipPath id="SVGID_22_">
					<use xlink:href="#SVGID_251_"  style="overflow:visible;"/>
				</clipPath>
				<g style="clip-path:url(#SVGID_22_);">
					<g transform="matrix(1,0,0,1,6.96791,1.36366)">
						
							<linearGradient id="SVGID_23_" gradientUnits="userSpaceOnUse" x1="-2937.3643" y1="-16.954" x2="-2943.2859" y2="-26.4287" gradientTransform="matrix(-1 0 0 1 -5959.3643 0)">
							<stop  offset="0" style="stop-color:#E69D77"/>
							<stop  offset="1" style="stop-color:#6C6A86"/>
						</linearGradient>
						<ellipse class="st22" cx="-3019.4" cy="-21.1" rx="3.9" ry="4.4"/>
					</g>
				</g>
			</g>
		</g>
		<g transform="matrix(0.947368,0,0,0.947368,2121.33,21.5541)">
			<g>
				<defs>
					<path id="SVGID_255_" d="M-2169.1,44.7c0,0-4.3,2.4-5.3,8c-0.1,0.4-0.4,0.8-0.7,1.1c-0.4,0.2-0.9,0.3-1.3,0.2c0,0,0,0,0,0
						c-0.7-0.2-1.2-1-1.1-1.7c0.4-2.4,1.6-7.2,5.6-9C-2172,43.2-2169.3,42.9-2169.1,44.7z"/>
				</defs>
				
					<linearGradient id="SVGID_24_" gradientUnits="userSpaceOnUse" x1="-2118.6606" y1="48.5821" x2="-2112.1433" y2="48.5821" gradientTransform="matrix(-1 0 0 1 -4288.5127 0)">
					<stop  offset="0" style="stop-color:#FDE256"/>
					<stop  offset="1" style="stop-color:#FFFFFF"/>
				</linearGradient>
				<use xlink:href="#SVGID_255_"  style="overflow:visible;fill:url(#SVGID_24_);"/>
				<clipPath id="SVGID_25_">
					<use xlink:href="#SVGID_255_"  style="overflow:visible;"/>
				</clipPath>
				<g style="clip-path:url(#SVGID_25_);">
					<g transform="matrix(1,0,0,1,-25.783,12.846)">
						
							<linearGradient id="SVGID_26_" gradientUnits="userSpaceOnUse" x1="-2556.897" y1="-134.1297" x2="-2556.2344" y2="-134.1297" gradientTransform="matrix(10.1179 -20.092 20.092 10.1179 26414.6855 -49969.6562)">
							<stop  offset="0" style="stop-color:#FDE256"/>
							<stop  offset="1" style="stop-color:#FFFFFF"/>
						</linearGradient>
						<path class="st25" d="M-2141.1,33c0,0-4.3,2.4-5.3,8c-0.1,0.4-0.4,0.8-0.7,1.1c-0.4,0.2-0.9,0.3-1.3,0.2c0,0,0,0,0,0
							c-0.7-0.2-1.2-1-1.1-1.7c0.4-2.4,1.6-7.2,5.6-9C-2144,31.4-2141.3,31.2-2141.1,33z"/>
					</g>
				</g>
			</g>
		</g>
		<g transform="matrix(1.00134,0,0,1.00134,2048.56,-2.73507)">
			
				<linearGradient id="SVGID_27_" gradientUnits="userSpaceOnUse" x1="-1921.8365" y1="90.5571" x2="-1910.4512" y2="100.3612" gradientTransform="matrix(-1 0 0 1 -3912.0176 0)">
				<stop  offset="0" style="stop-color:#E69D77"/>
				<stop  offset="1" style="stop-color:#6C6A86"/>
			</linearGradient>
			<path class="st26" d="M-1992.6,112.2c0,0-0.8-21.3-3.4-27c-2.6-5.7-11.7-3.3-10.7,4.5c0.6,5.2,4,15.1,6.3,21.4
				c0.5,1.3,1.6,2.3,2.9,2.7c1.3,0.4,2.8,0.1,3.9-0.8C-1993,112.5-1992.6,112.2-1992.6,112.2z"/>
		</g>
		<g transform="matrix(0.947368,0,0,0.947368,2121.33,21.5541)">
			
				<linearGradient id="SVGID_28_" gradientUnits="userSpaceOnUse" x1="-2572.0266" y1="-159.989" x2="-2571.3638" y2="-159.989" gradientTransform="matrix(-34.649 2.7841 -2.7841 -34.649 -91746.4609 1707.0881)">
				<stop  offset="0" style="stop-color:#E7A67F"/>
				<stop  offset="1" style="stop-color:#1BB3C2"/>
			</linearGradient>
			<path class="st27" d="M-2184.3,75.1c-4-1.3-9.5-1.7-11.8,1.8c1.4,7,4.3,13.2,6.2,18.4c0.6,1.6,2,2.6,3.7,2.8
				c5.3,0.5,16.8,1.4,20.1,1.7c0.6,0.1,1.1,0.3,1.5,0.8c1.1,1.2,3.3,3.7,3.3,3.7l4.8-1.5c0,0-2.7-3.4-3.8-5
				c-0.3-0.5-0.9-0.8-1.4-0.9c-4.1-0.8-21.1-4-21.1-4S-2183,83.9-2184.3,75.1z"/>
		</g>
		<g transform="matrix(0.947368,0,0,0.947368,2121.33,21.5541)">
			
				<linearGradient id="SVGID_29_" gradientUnits="userSpaceOnUse" x1="-2567.5857" y1="-154.7852" x2="-2566.9229" y2="-154.7852" gradientTransform="matrix(-49.504 12.1432 -12.1432 -49.504 -131111.25 23613.9941)">
				<stop  offset="0" style="stop-color:#D1BAD2"/>
				<stop  offset="1" style="stop-color:#A5A4CB"/>
			</linearGradient>
			<path class="st28" d="M-2135.1,105.2c0-0.7-0.3-1.4-0.8-1.9c-0.5-0.5-1.2-0.8-1.9-0.8c-8.1,0.1-31.4,0.4-39.3,0.4
				c-0.7,0-1.4,0.3-1.9,0.8c-0.5,0.5-0.8,1.2-0.8,1.9c0,0,0,0,0,0c0,1.5,1.2,2.6,2.7,2.6c7.9,0,31.4-0.1,39.3-0.1
				c1.4,0,2.6-1.2,2.7-2.6C-2135.1,105.4-2135.1,105.3-2135.1,105.2z"/>
		</g>
		<g transform="matrix(0.485589,0,0,0.947368,2648.47,21.5541)">
			<path class="st128" d="M-5293.6,105.2c0-0.7-0.5-1.4-1.5-1.9c-1-0.5-2.4-0.8-3.8-0.8c-8.7,0.1-25.7,0.3-34.2,0.4
				c-2.9,0-5.1,1.2-5.1,2.7c0,0,0,0,0,0c0,1.5,2.4,2.7,5.2,2.7c8.6,0,25.7,0,34.2-0.1c2.9,0,5.2-1.2,5.2-2.6
				C-5293.6,105.4-5293.6,105.3-5293.6,105.2z"/>
		</g>
		<g transform="matrix(0.947368,0,0,0.947368,2121.33,21.5541)">
			<g>
				<defs>
					<path id="SVGID_262_" d="M-2135.3,103.1l11.4-24.2l-0.6-1c0,0-19.5,0.2-23.7,0.3c-0.5,0-0.9,0.3-1.2,0.7
						c-2,4-12.1,23.8-12.1,23.8"/>
				</defs>
				
					<linearGradient id="SVGID_30_" gradientUnits="userSpaceOnUse" x1="-2161.9951" y1="75.0549" x2="-2114.1482" y2="123.4418" gradientTransform="matrix(-1 0 0 1 -4288.5127 0)">
					<stop  offset="0" style="stop-color:#E69D77"/>
					<stop  offset="1" style="stop-color:#6C6A86"/>
				</linearGradient>
				<use xlink:href="#SVGID_262_"  style="overflow:visible;fill:url(#SVGID_30_);"/>
				<clipPath id="SVGID_31_">
					<use xlink:href="#SVGID_262_"  style="overflow:visible;"/>
				</clipPath>
			</g>
		</g>
		<g>
			
				<linearGradient id="SVGID_32_" gradientUnits="userSpaceOnUse" x1="92.247" y1="130.0376" x2="254.4249" y2="130.0376" gradientTransform="matrix(-1 0 0 1 262.2794 0)">
				<stop  offset="0" style="stop-color:#404040"/>
				<stop  offset="1" style="stop-color:#000000"/>
			</linearGradient>
			<path class="st31" d="M9.9,132.9H168c1.1,0,2.1-0.9,2.1-2.1v-1.6c0-1.1-0.9-2.1-2.1-2.1H9.9c-1.1,0-2.1,0.9-2.1,2.1v1.6
				C7.9,132,8.8,132.9,9.9,132.9z"/>
			<linearGradient id="SVGID_33_" gradientUnits="userSpaceOnUse" x1="89.9302" y1="129.2685" x2="89.9302" y2="123.7615">
				<stop  offset="0" style="stop-color:#E7A67F"/>
				<stop  offset="0.3798" style="stop-color:#E7A580"/>
				<stop  offset="0.5408" style="stop-color:#E7A083"/>
				<stop  offset="0.6604" style="stop-color:#E79887"/>
				<stop  offset="0.7596" style="stop-color:#E78B8B"/>
				<stop  offset="0.8461" style="stop-color:#E7798E"/>
				<stop  offset="0.923" style="stop-color:#E85F8E"/>
				<stop  offset="0.9926" style="stop-color:#E8388A"/>
				<stop  offset="1" style="stop-color:#E83289"/>
			</linearGradient>
			<path class="st32" d="M6.6,129.3h166.6c1.1,0,2.1-0.9,2.1-2.1v-1.6c0-1.1-0.9-2.1-2.1-2.1H6.6c-1.1,0-2.1,0.9-2.1,2.1v1.6
				C4.6,128.4,5.5,129.3,6.6,129.3z"/>
		</g>
	</g>
	<g>
		<g>
			<path class="st72" d="M156.3,93l-1.1-0.1c-0.1-0.7-0.3-1.4-0.6-2l0.8-1c0.3-0.3,0.3-0.9,0-1.3l-1.2-1.8l0.6,0.3l0-0.9h-1.2v0
				c-0.2,0-0.3,0.1-0.4,0.2l-0.9,1c-0.5-0.5-1-0.8-1.6-1.1v-1.7c0-0.6-0.4-1.1-0.8-1.2l-1.2-0.3l-0.1-0.3l-1.3,0l0,0
				c-0.4,0-0.7,0.4-0.7,0.9v1.9c-0.7,0.1-1.4,0.3-2,0.6l-1.1-1.4l0.1-0.7l-1.3,0c-0.2,0-0.4,0.1-0.6,0.2l-2.3,2
				c-0.5,0.4-0.5,1.2,0,1.7l1.4,1.6c-0.4,0.8-0.8,1.6-1,2.5l-0.9,0l0-0.1l-1,0l-0.1,0c-0.1,0-0.1,0-0.2,0l0,0v0
				c-0.6,0.1-1,0.6-1,1.2V97c0,0.7,0.5,1.2,1.1,1.2v0h0c0,0,0.1,0,0.1,0l0,0l1.1,0l0-0.1l0.9,0c0.2,0.9,0.6,1.8,1,2.5l-1.4,1.6
				c-0.5,0.5-0.5,1.3,0,1.7l2.3,2c0.2,0.1,0.4,0.2,0.6,0.2l0,0h1.3l0.1-0.9l-0.2,0.1l0.9-1.2c0.6,0.3,1.3,0.5,2,0.6v1.9
				c0,0.5,0.3,0.9,0.7,0.9l0,0h1.3l0-0.3l1.3-0.3c0.4-0.1,0.8-0.6,0.8-1.2v-1.7c0.6-0.3,1.1-0.7,1.6-1.1l0.9,1
				c0.1,0.1,0.3,0.2,0.4,0.2l0,0h1.3v-0.9l-0.5,0.2l1.1-1.7c0.3-0.4,0.3-1,0-1.3l-0.8-1c0.3-0.6,0.4-1.3,0.6-2l1.1-0.1
				c0.3,0,0.6-0.4,0.6-0.9v-2.5C156.9,93.4,156.6,93,156.3,93z M148.6,99.7c-2.1,0.2-4-1.8-4-4.5c0-2.7,1.8-4.7,4-4.5
				c2,0.2,3.4,2.2,3.4,4.5S150.6,99.5,148.6,99.7z"/>
			
				<linearGradient id="SVGID_34_" gradientUnits="userSpaceOnUse" x1="77.1613" y1="68.2355" x2="75.5675" y2="108.0804" gradientTransform="matrix(1 0 0 1 71.8395 0)">
				<stop  offset="0" style="stop-color:#272252"/>
				<stop  offset="1" style="stop-color:#E83189"/>
			</linearGradient>
			<path class="st33" d="M157.5,93l-1.1-0.1c-0.1-0.7-0.3-1.4-0.6-2l0.8-1c0.3-0.3,0.3-0.9,0-1.3l-1.3-2.1c-0.3-0.4-0.7-0.5-1-0.2
				l-0.9,1c-0.5-0.5-1-0.8-1.6-1.1v-1.7c0-0.6-0.4-1.1-0.8-1.2l-2.4-0.6c-0.5-0.1-0.9,0.3-0.9,0.9v1.9c-0.7,0.1-1.4,0.3-2,0.6
				l-1.2-1.6c-0.4-0.5-1.1-0.7-1.5-0.3l-2.3,2c-0.5,0.4-0.5,1.2,0,1.7l1.4,1.6c-0.4,0.8-0.8,1.6-1,2.5l-2.1-0.1
				c-0.7,0-1.3,0.5-1.3,1.2V97c0,0.7,0.6,1.3,1.3,1.2l2.1-0.1c0.2,0.9,0.6,1.8,1,2.5l-1.4,1.6c-0.5,0.5-0.5,1.3,0,1.7l2.3,2
				c0.4,0.4,1.1,0.3,1.5-0.3l1.2-1.6c0.6,0.3,1.3,0.5,2,0.6v1.9c0,0.6,0.4,1,0.9,0.9l2.4-0.6c0.4-0.1,0.8-0.6,0.8-1.2v-1.7
				c0.6-0.3,1.1-0.7,1.6-1.1l0.9,1c0.3,0.3,0.7,0.2,1-0.2l1.3-2.1c0.3-0.4,0.3-1,0-1.3l-0.8-1c0.3-0.6,0.4-1.3,0.6-2l1.1-0.1
				c0.3,0,0.6-0.4,0.6-0.9v-2.5C158.1,93.4,157.9,93,157.5,93z M149.8,99.7c-2.1,0.2-4-1.8-4-4.5c0-2.7,1.8-4.7,4-4.5
				c2,0.2,3.4,2.2,3.4,4.5S151.8,99.5,149.8,99.7z"/>
		</g>
		<g>
			<path class="st72" d="M139.9,79.9l-0.4,0c0-0.3-0.1-0.5-0.2-0.7l0.3-0.4c0.1-0.1,0.1-0.3,0-0.5l-0.4-0.7l0.2,0.1l0-0.3h-0.5l0,0
				c-0.1,0-0.1,0-0.2,0.1l-0.3,0.4c-0.2-0.2-0.4-0.3-0.6-0.4v-0.6c0-0.2-0.1-0.4-0.3-0.4l-0.4-0.1l0-0.1l-0.5,0l0,0
				c-0.2,0-0.3,0.1-0.3,0.3v0.7c-0.3,0-0.5,0.1-0.8,0.2l-0.4-0.5l0-0.3l-0.5,0c-0.1,0-0.1,0-0.2,0.1l-0.8,0.8
				c-0.2,0.2-0.2,0.4,0,0.6l0.5,0.6c-0.2,0.3-0.3,0.6-0.4,0.9l-0.3,0l0,0l-0.4,0l0,0c0,0,0,0-0.1,0l0,0v0c-0.2,0-0.4,0.2-0.4,0.5
				v1.3c0,0.2,0.2,0.4,0.4,0.5v0h0c0,0,0,0,0,0l0,0l0.4,0l0,0l0.3,0c0.1,0.3,0.2,0.6,0.4,0.9l-0.5,0.6c-0.2,0.2-0.2,0.5,0,0.6
				l0.8,0.8c0.1,0.1,0.1,0.1,0.2,0.1l0,0h0.5l0.1-0.3l-0.1,0l0.3-0.5c0.2,0.1,0.5,0.2,0.8,0.2v0.7c0,0.2,0.1,0.3,0.2,0.3l0,0h0.5
				l0-0.1l0.5-0.1c0.2,0,0.3-0.2,0.3-0.4V84c0.2-0.1,0.4-0.3,0.6-0.4l0.3,0.4c0,0.1,0.1,0.1,0.2,0.1l0,0h0.5v-0.3l-0.2,0.1l0.4-0.6
				c0.1-0.1,0.1-0.4,0-0.5l-0.3-0.4c0.1-0.2,0.2-0.5,0.2-0.7l0.4,0c0.1,0,0.2-0.2,0.2-0.3v-0.9C140.1,80,140,79.9,139.9,79.9z
				 M137.1,82.3c-0.8,0.1-1.5-0.7-1.5-1.7s0.7-1.8,1.5-1.7c0.7,0.1,1.3,0.8,1.3,1.7C138.3,81.5,137.8,82.3,137.1,82.3z"/>
			
				<linearGradient id="SVGID_35_" gradientUnits="userSpaceOnUse" x1="65.4825" y1="67.7683" x2="63.8887" y2="107.6132" gradientTransform="matrix(1 0 0 1 71.8395 0)">
				<stop  offset="0" style="stop-color:#272252"/>
				<stop  offset="1" style="stop-color:#E83189"/>
			</linearGradient>
			<path class="st34" d="M140.4,79.9l-0.4,0c0-0.3-0.1-0.5-0.2-0.7l0.3-0.4c0.1-0.1,0.1-0.3,0-0.5l-0.5-0.8
				c-0.1-0.2-0.3-0.2-0.4-0.1l-0.3,0.4c-0.2-0.2-0.4-0.3-0.6-0.4v-0.6c0-0.2-0.1-0.4-0.3-0.4l-0.9-0.2c-0.2,0-0.3,0.1-0.3,0.3v0.7
				c-0.3,0-0.5,0.1-0.8,0.2l-0.5-0.6c-0.2-0.2-0.4-0.2-0.6-0.1l-0.8,0.8c-0.2,0.2-0.2,0.4,0,0.6l0.5,0.6c-0.2,0.3-0.3,0.6-0.4,0.9
				l-0.8,0c-0.3,0-0.5,0.2-0.5,0.5v1.3c0,0.3,0.2,0.5,0.5,0.5l0.8,0c0.1,0.3,0.2,0.6,0.4,0.9l-0.5,0.6c-0.2,0.2-0.2,0.5,0,0.6
				l0.8,0.8c0.2,0.1,0.4,0.1,0.6-0.1L136,84c0.2,0.1,0.5,0.2,0.8,0.2v0.7c0,0.2,0.2,0.4,0.3,0.3L138,85c0.2,0,0.3-0.2,0.3-0.4V84
				c0.2-0.1,0.4-0.3,0.6-0.4l0.3,0.4c0.1,0.1,0.3,0.1,0.4-0.1l0.5-0.8c0.1-0.1,0.1-0.4,0-0.5l-0.3-0.4c0.1-0.2,0.2-0.5,0.2-0.7
				l0.4,0c0.1,0,0.2-0.2,0.2-0.3v-0.9C140.6,80,140.5,79.9,140.4,79.9z M137.5,82.3c-0.8,0.1-1.5-0.7-1.5-1.7s0.7-1.8,1.5-1.7
				c0.7,0.1,1.3,0.8,1.3,1.7C138.8,81.5,138.2,82.3,137.5,82.3z"/>
		</g>
		<g>
			<path class="st72" d="M134.6,90.3l-0.7,0c-0.1-0.4-0.2-0.9-0.4-1.3l0.5-0.7c0.2-0.2,0.2-0.6,0-0.8l-0.7-1.2l0.4,0.2l0-0.5h-0.8
				l0,0c-0.1,0-0.2,0-0.3,0.1l-0.6,0.7c-0.3-0.3-0.7-0.5-1-0.7v-1.1c0-0.4-0.2-0.7-0.5-0.8l-0.8-0.2l0-0.2l-0.8,0l0,0
				c-0.3,0-0.5,0.2-0.5,0.6v1.2c-0.4,0.1-0.9,0.2-1.3,0.4l-0.7-0.9l0.1-0.5l-0.8,0c-0.1,0-0.3,0-0.4,0.1l-1.4,1.3
				c-0.3,0.3-0.3,0.8,0,1.1l0.9,1c-0.3,0.5-0.5,1-0.6,1.6l-0.6,0l0,0l-0.6,0l-0.1,0c0,0-0.1,0-0.1,0l0,0v0c-0.4,0-0.7,0.4-0.7,0.8
				v2.3c0,0.4,0.3,0.8,0.7,0.8v0h0c0,0,0.1,0,0.1,0l0,0l0.7,0l0,0l0.6,0c0.2,0.6,0.4,1.1,0.6,1.6l-0.9,1c-0.3,0.3-0.3,0.8,0,1.1
				l1.4,1.3c0.1,0.1,0.2,0.1,0.4,0.1l0,0h0.8l0.1-0.6l-0.1,0l0.6-0.8c0.4,0.2,0.8,0.3,1.3,0.4V99c0,0.3,0.2,0.5,0.4,0.6l0,0h0.8
				l0-0.2l0.8-0.2c0.3-0.1,0.5-0.4,0.5-0.8v-1.1c0.4-0.2,0.7-0.4,1-0.7l0.6,0.7c0.1,0.1,0.2,0.1,0.3,0.1l0,0h0.8v-0.6l-0.3,0.1
				l0.7-1.1c0.2-0.2,0.2-0.6,0-0.8l-0.5-0.7c0.2-0.4,0.3-0.8,0.4-1.3l0.7,0c0.2,0,0.4-0.3,0.4-0.6v-1.6
				C135,90.6,134.8,90.3,134.6,90.3z M129.8,94.6c-1.3,0.1-2.5-1.2-2.5-2.9s1.2-3,2.5-2.9c1.2,0.1,2.2,1.4,2.2,2.9
				C131.9,93.2,131,94.4,129.8,94.6z"/>
			
				<linearGradient id="SVGID_36_" gradientUnits="userSpaceOnUse" x1="58.4573" y1="67.4873" x2="56.8635" y2="107.3322" gradientTransform="matrix(1 0 0 1 71.8395 0)">
				<stop  offset="0" style="stop-color:#272252"/>
				<stop  offset="1" style="stop-color:#E83189"/>
			</linearGradient>
			<path class="st35" d="M135.4,90.3l-0.7,0c-0.1-0.4-0.2-0.9-0.4-1.3l0.5-0.7c0.2-0.2,0.2-0.6,0-0.8l-0.8-1.3
				c-0.2-0.3-0.5-0.3-0.6-0.1l-0.6,0.7c-0.3-0.3-0.7-0.5-1-0.7v-1.1c0-0.4-0.2-0.7-0.5-0.8l-1.5-0.4c-0.3-0.1-0.6,0.2-0.6,0.6v1.2
				c-0.4,0.1-0.9,0.2-1.3,0.4l-0.8-1c-0.3-0.3-0.7-0.4-1-0.2l-1.4,1.3c-0.3,0.3-0.3,0.8,0,1.1l0.9,1c-0.3,0.5-0.5,1-0.6,1.6
				l-1.3-0.1c-0.4,0-0.8,0.3-0.8,0.8v2.3c0,0.5,0.4,0.8,0.8,0.8l1.3-0.1c0.2,0.6,0.4,1.1,0.6,1.6l-0.9,1c-0.3,0.3-0.3,0.8,0,1.1
				l1.4,1.3c0.3,0.2,0.7,0.2,1-0.2l0.8-1c0.4,0.2,0.8,0.3,1.3,0.4V99c0,0.4,0.3,0.6,0.6,0.6l1.5-0.4c0.3-0.1,0.5-0.4,0.5-0.8v-1.1
				c0.4-0.2,0.7-0.4,1-0.7l0.6,0.7c0.2,0.2,0.5,0.2,0.6-0.1l0.8-1.3c0.2-0.2,0.2-0.6,0-0.8l-0.5-0.7c0.2-0.4,0.3-0.8,0.4-1.3l0.7,0
				c0.2,0,0.4-0.3,0.4-0.6v-1.6C135.8,90.6,135.6,90.3,135.4,90.3z M130.5,94.6c-1.3,0.1-2.5-1.2-2.5-2.9s1.2-3,2.5-2.9
				c1.2,0.1,2.2,1.4,2.2,2.9C132.7,93.2,131.8,94.4,130.5,94.6z"/>
		</g>
	</g>
</g>
</svg>
