<?xml version="1.0" encoding="utf-8"?>
<!-- Generator: Adobe Illustrator 25.0.1, SVG Export Plug-In . SVG Version: 6.00 Build 0)  -->
<svg version="1.1" id="Calque_1" xmlns="http://www.w3.org/2000/svg" xmlns:xlink="http://www.w3.org/1999/xlink" x="0px" y="0px"
	 viewBox="0 0 500 251.4" style="enable-background:new 0 0 500 251.4;" xml:space="preserve">
<style type="text/css">
	.st0{fill:url(#SVGID_1_);}
	.st1{fill:url(#SVGID_2_);}
	.st2{fill:url(#SVGID_3_);}
	.st3{fill:url(#SVGID_4_);}
	.st4{fill:#262626;}
</style>
<g>
	<g>
		<g>
			
				<linearGradient id="SVGID_1_" gradientUnits="userSpaceOnUse" x1="257.8" y1="-217.0765" x2="407.2" y2="-217.0765" gradientTransform="matrix(1 0 0 1 0 300)">
				<stop  offset="0" style="stop-color:#D1BAD2"/>
				<stop  offset="1" style="stop-color:#A5A4CB"/>
			</linearGradient>
			<path class="st0" d="M336.6,11c31.1,0,56.3,25.2,56.3,56.3s-24.1,55.4-55.2,55.4h-47.9V61.4H273c-2.4,0-4.7,0.6-6.7,1.6
				c-5,2.5-8.5,7.6-8.5,13.6v46.2v16.8c0,8.4,6.8,15.2,15.2,15.2h63.6c39.1-0.7,70.6-32.6,70.6-71.8C407.2,43.5,375.7,11.6,336.6,11
				z"/>
			
				<linearGradient id="SVGID_2_" gradientUnits="userSpaceOnUse" x1="257.8" y1="-233.1765" x2="392.9" y2="-233.1765" gradientTransform="matrix(1 0 0 1 0 300)">
				<stop  offset="0" style="stop-color:#F8C5D1"/>
				<stop  offset="1" style="stop-color:#9592C7"/>
			</linearGradient>
			<path class="st1" d="M337.7,122.6c31.1,0,55.2-24.4,55.2-55.4S367.7,11,336.6,11h-78.8v16.8c0,8.4,6.8,15.2,15.2,15.2h58.3
				c2,0,3.9,0.2,5.8,0.5c19,3.7,38.3,19.9,38.3,39.3c0,19.5-13.9,35.7-32.3,39.3C341.4,122.5,339.5,122.6,337.7,122.6z"/>
		</g>
		<g>
			
				<linearGradient id="SVGID_3_" gradientUnits="userSpaceOnUse" x1="141.4198" y1="44.9456" x2="290.8198" y2="44.9456" gradientTransform="matrix(-1 0 0 -1 383.5198 127.6691)">
				<stop  offset="0" style="stop-color:#D1BAD2"/>
				<stop  offset="1" style="stop-color:#A5A4CB"/>
			</linearGradient>
			<path class="st2" d="M242.1,104.3V42.9V26.1c0-8.4-6.8-15.2-15.2-15.2h-63.6c-39.1,0.7-70.6,32.6-70.6,71.8s31.5,71.1,70.6,71.8
				c-38.9,0-68.5-39.4-51.2-80.4c7.3-17.2,29.1-31.2,47.9-31.2h50.2v45.7c0,8.6,7,15.7,15.7,15.7H242.1L242.1,104.3z"/>
			
				<linearGradient id="SVGID_4_" gradientUnits="userSpaceOnUse" x1="141.3198" y1="28.9456" x2="276.4198" y2="28.9456" gradientTransform="matrix(-1 0 0 -1 383.5198 127.6691)">
				<stop  offset="0" style="stop-color:#F8C5D1"/>
				<stop  offset="1" style="stop-color:#9592C7"/>
			</linearGradient>
			<path class="st3" d="M162.3,42.9c-33.1,0-55.2,24.4-55.2,55.4s25.2,56.2,56.3,56.2h78.8v-16.8c0-8.4-6.8-15.2-15.2-15.2h-58.3
				c-2,0-3.9-0.2-5.8-0.5c-19-3.7-38.3-19.9-38.3-39.3c0-19.5,13.9-35.7,32.3-39.3C158.6,43.1,160.4,42.9,162.3,42.9z"/>
		</g>
	</g>
	<g>
		<path class="st4" d="M128.8,239.8H87.1v-57.6h40.2v4.2h-36v21.3H125v4.2H91.3v23.7h37.4L128.8,239.8L128.8,239.8z"/>
		<path class="st4" d="M196.1,182.2l-22.6,57.6h-5.4l-22.6-57.6h4.7l20.6,52.4l20.6-52.4H196.1L196.1,182.2z"/>
		<path class="st4" d="M268.8,239.8h-4.2v-50.7l-20.7,50.7h-4.4l-20.7-50.7v50.7h-4.2v-57.6h6.1l21,52.4l21.2-52.4h6L268.8,239.8
			L268.8,239.8z"/>
		<path class="st4" d="M317.3,181.1c3.9,0,7.6,0.7,10.9,2.1s6.2,3.4,8.6,6s4.3,5.7,5.6,9.4s2,7.7,2,12.2s-0.7,8.5-2,12.2
			s-3.2,6.9-5.6,9.5s-5.3,4.7-8.6,6.2c-3.3,1.5-7,2.2-11,2.2s-7.7-0.7-11-2.2s-6.2-3.5-8.6-6.1s-4.3-5.8-5.6-9.5
			c-1.3-3.7-2-7.8-2-12.3s0.7-8.6,2-12.3c1.4-3.6,3.2-6.8,5.7-9.3s5.3-4.6,8.6-6C309.7,181.8,313.3,181.1,317.3,181.1z M317.2,236.6
			c3.3,0,6.3-0.6,9.1-1.7c2.8-1.1,5.2-2.8,7.2-5s3.6-4.9,4.7-8.1s1.7-6.9,1.7-11s-0.6-7.8-1.7-11s-2.7-5.8-4.7-8s-4.4-3.8-7.2-4.9
			c-2.8-1.1-5.8-1.7-9-1.7c-3.3,0-6.4,0.6-9.2,1.7c-2.8,1.1-5.2,2.8-7.2,4.9c-2,2.2-3.6,4.8-4.8,8c-1.1,3.2-1.7,6.8-1.7,10.9
			s0.6,7.8,1.7,11s2.7,5.9,4.7,8.1s4.4,3.9,7.2,5C310.9,236.1,313.9,236.6,317.2,236.6z"/>
		<path class="st4" d="M390.4,181.1c3.9,0,7.6,0.7,10.9,2.1s6.2,3.4,8.6,6s4.3,5.7,5.6,9.4c1.4,3.6,2,7.7,2,12.2s-0.7,8.5-2,12.2
			s-3.2,6.9-5.6,9.5s-5.3,4.7-8.6,6.2c-3.3,1.5-7,2.2-11,2.2s-7.7-0.7-11-2.2s-6.2-3.5-8.6-6.1s-4.3-5.8-5.6-9.5s-2-7.8-2-12.3
			s0.7-8.6,2-12.3c1.4-3.6,3.2-6.8,5.7-9.3s5.3-4.6,8.6-6C382.8,181.8,386.5,181.1,390.4,181.1z M390.4,236.6c3.3,0,6.3-0.6,9.1-1.7
			c2.8-1.1,5.2-2.8,7.2-5s3.6-4.9,4.7-8.1s1.7-6.9,1.7-11s-0.6-7.8-1.7-11s-2.7-5.8-4.7-8s-4.4-3.8-7.2-4.9c-2.8-1.1-5.8-1.7-9-1.7
			c-3.3,0-6.4,0.6-9.2,1.7c-2.8,1.1-5.2,2.8-7.2,4.9c-2,2.2-3.6,4.8-4.8,8c-1.1,3.2-1.7,6.8-1.7,10.9s0.6,7.8,1.7,11
			s2.7,5.9,4.7,8.1s4.4,3.9,7.2,5C384,236.1,387.1,236.6,390.4,236.6z"/>
		<path class="st4" d="M60.8,221.9v-39.7H43.4c-9.7,0-17,2.3-21.8,7s-7.3,11.8-7.3,21.3c0,19.5,9.7,29.3,29.1,29.3h17.4v-4.2h-4.2
			H43.5c-4.8,0-8.8-0.6-12-1.7s-5.7-2.8-7.6-4.9c-1.9-2.2-3.2-4.8-4-7.9s-1.2-6.6-1.2-10.6c0-3.8,0.4-7.2,1.1-10.2
			c0.8-3,2.1-5.5,4-7.6s4.4-3.7,7.6-4.8c3.2-1.1,7.2-1.6,12-1.6h13.1v35.6H60.8L60.8,221.9z"/>
		<path class="st4" d="M439.2,200.1v39.7h17.4c9.7,0,17-2.3,21.8-7s7.3-11.8,7.3-21.3c0-19.5-9.7-29.3-29.1-29.3h-17.4v4.2h4.2h13.1
			c4.8,0,8.8,0.6,12,1.7s5.7,2.8,7.6,4.9s3.2,4.8,4,7.9s1.2,6.6,1.2,10.6c0,3.8-0.4,7.2-1.1,10.2c-0.8,3-2.1,5.5-4,7.6
			s-4.4,3.7-7.6,4.8c-3.2,1.1-7.2,1.6-12,1.6h-13.1v-35.5L439.2,200.1L439.2,200.1z"/>
	</g>
</g>
</svg>
