<?xml version="1.0" encoding="utf-8"?>
<!-- Generator: Adobe Illustrator 25.0.1, SVG Export Plug-In . SVG Version: 6.00 Build 0)  -->
<svg version="1.1" id="Calque_1" xmlns="http://www.w3.org/2000/svg" xmlns:xlink="http://www.w3.org/1999/xlink" x="0px" y="0px"
	 viewBox="0 0 500 81.3" style="enable-background:new 0 0 500 81.3;" xml:space="preserve">
<style type="text/css">
	.st0{fill:#262626;}
</style>
<g>
	<g>
		<path class="st0" d="M128.8,69.8H87.1V12.2h40.2v4.2h-36v21.3H125v4.2H91.3v23.7h37.4L128.8,69.8L128.8,69.8z"/>
		<path class="st0" d="M196.1,12.2l-22.6,57.6h-5.4l-22.6-57.6h4.7l20.6,52.4l20.6-52.4H196.1L196.1,12.2z"/>
		<path class="st0" d="M268.8,69.8h-4.2V19.1l-20.7,50.7h-4.4l-20.7-50.7v50.7h-4.2V12.2h6.1l21,52.4l21.2-52.4h6L268.8,69.8
			L268.8,69.8z"/>
		<path class="st0" d="M317.3,11.1c3.9,0,7.6,0.7,10.9,2.1s6.2,3.4,8.6,6s4.3,5.7,5.6,9.4s2,7.7,2,12.2s-0.7,8.5-2,12.2
			s-3.2,6.9-5.6,9.5s-5.3,4.7-8.6,6.2c-3.3,1.5-7,2.2-11,2.2s-7.7-0.7-11-2.2s-6.2-3.5-8.6-6.1s-4.3-5.8-5.6-9.5
			c-1.3-3.7-2-7.8-2-12.3s0.7-8.6,2-12.3c1.4-3.6,3.2-6.8,5.7-9.3s5.3-4.6,8.6-6C309.7,11.8,313.3,11.1,317.3,11.1z M317.2,66.6
			c3.3,0,6.3-0.6,9.1-1.7c2.8-1.1,5.2-2.8,7.2-5s3.6-4.9,4.7-8.1s1.7-6.9,1.7-11s-0.6-7.8-1.7-11s-2.7-5.8-4.7-8s-4.4-3.8-7.2-4.9
			c-2.8-1.1-5.8-1.7-9-1.7c-3.3,0-6.4,0.6-9.2,1.7c-2.8,1.1-5.2,2.8-7.2,4.9c-2,2.2-3.6,4.8-4.8,8c-1.1,3.2-1.7,6.8-1.7,10.9
			s0.6,7.8,1.7,11s2.7,5.9,4.7,8.1s4.4,3.9,7.2,5C310.9,66.1,313.9,66.6,317.2,66.6z"/>
		<path class="st0" d="M390.4,11.1c3.9,0,7.6,0.7,10.9,2.1s6.2,3.4,8.6,6s4.3,5.7,5.6,9.4c1.4,3.6,2,7.7,2,12.2s-0.7,8.5-2,12.2
			s-3.2,6.9-5.6,9.5s-5.3,4.7-8.6,6.2c-3.3,1.5-7,2.2-11,2.2s-7.7-0.7-11-2.2s-6.2-3.5-8.6-6.1s-4.3-5.8-5.6-9.5s-2-7.8-2-12.3
			s0.7-8.6,2-12.3c1.4-3.6,3.2-6.8,5.7-9.3s5.3-4.6,8.6-6C382.8,11.8,386.5,11.1,390.4,11.1z M390.4,66.6c3.3,0,6.3-0.6,9.1-1.7
			c2.8-1.1,5.2-2.8,7.2-5s3.6-4.9,4.7-8.1s1.7-6.9,1.7-11s-0.6-7.8-1.7-11s-2.7-5.8-4.7-8s-4.4-3.8-7.2-4.9c-2.8-1.1-5.8-1.7-9-1.7
			c-3.3,0-6.4,0.6-9.2,1.7c-2.8,1.1-5.2,2.8-7.2,4.9c-2,2.2-3.6,4.8-4.8,8c-1.1,3.2-1.7,6.8-1.7,10.9s0.6,7.8,1.7,11
			s2.7,5.9,4.7,8.1s4.4,3.9,7.2,5C384,66.1,387.1,66.6,390.4,66.6z"/>
		<path class="st0" d="M60.8,51.9V12.2H43.4c-9.7,0-17,2.3-21.8,7S14.3,31,14.3,40.5c0,19.5,9.7,29.3,29.1,29.3h17.4v-4.2h-4.2H43.5
			c-4.8,0-8.8-0.6-12-1.7s-5.7-2.8-7.6-4.9c-1.9-2.2-3.2-4.8-4-7.9s-1.2-6.6-1.2-10.6c0-3.8,0.4-7.2,1.1-10.2c0.8-3,2.1-5.5,4-7.6
			s4.4-3.7,7.6-4.8c3.2-1.1,7.2-1.6,12-1.6h13.1v35.6H60.8L60.8,51.9z"/>
		<path class="st0" d="M439.2,30.1v39.7h17.4c9.7,0,17-2.3,21.8-7s7.3-11.8,7.3-21.3c0-19.5-9.7-29.3-29.1-29.3h-17.4v4.2h4.2h13.1
			c4.8,0,8.8,0.6,12,1.7s5.7,2.8,7.6,4.9s3.2,4.8,4,7.9s1.2,6.6,1.2,10.6c0,3.8-0.4,7.2-1.1,10.2c-0.8,3-2.1,5.5-4,7.6
			s-4.4,3.7-7.6,4.8c-3.2,1.1-7.2,1.6-12,1.6h-13.1V30.2L439.2,30.1L439.2,30.1z"/>
	</g>
</g>
</svg>
