<?xml version="1.0" encoding="utf-8"?>
<!-- Generator: Adobe Illustrator 25.0.1, SVG Export Plug-In . SVG Version: 6.00 Build 0)  -->
<svg version="1.1" id="Calque_1" xmlns="http://www.w3.org/2000/svg" xmlns:xlink="http://www.w3.org/1999/xlink" x="0px" y="0px"
	 viewBox="0 0 200 200" style="enable-background:new 0 0 200 200;" xml:space="preserve">
<style type="text/css">
	.st0{fill:#262626;}
</style>
<g>
	<path class="st0" d="M95.41,192.99c-9.61,0.36-18.46-2.38-27.1-6.15c-7.42-3.24-14.86-6.41-22.27-9.67
		C32,171.01,26.23,156.7,32.2,142.55c4.86-11.51,10.09-22.87,14.75-34.46c0.87-2.16,0.69-5.57-0.45-7.6
		c-16.99-30.37-7.09-68.14,23.13-85.34c19.14-10.89,38.99-10.43,58.85-1.39c7.05,3.21,14.17,6.25,21.25,9.36
		c13.94,6.12,19.6,20.51,13.59,34.67c-4.74,11.17-9.38,22.39-14.42,33.43c-1.67,3.65-1.42,6.41,0.5,9.83
		c20.65,36.93-0.99,83.24-42.44,90.9C103.18,192.65,99.27,192.66,95.41,192.99z M139.61,87.03c5-11.53,9.82-22.08,14.16-32.83
		c4.18-10.35,1.12-17.57-9.15-22.24c-8.5-3.85-17.07-7.56-25.73-11.02c-9.86-3.94-19.82-4.94-30.48-2.4
		C52.37,27.17,36.63,69.2,58.17,99.33c7.45,10.41,17.72,16.39,29.04,20.97c4.14,1.67,4.41,3.76,2.89,7.19
		c-2.05,4.63-4.04,9.28-6.27,14.42c2.4,1.09,4.39,2.12,6.47,2.9c6.04,2.27,12.06,0.8,16.35-4.04c4.18-4.71,4.77-10.22,2.31-15.76
		c-2.64-5.95-8.52-8.04-13.99-10.52c-6.07-2.75-12.31-5.28-18.03-8.64C61,96.47,53.5,76.18,58.5,57.06
		c4.55-17.38,21.45-30.57,39.44-31.45c14.19-0.69,25.72,6.6,37.88,11.84c8.69,3.74,11.08,10.61,7.59,19.58
		c-3.18,8.17-6.78,16.17-10.29,24.48C135.12,83.22,137.08,84.88,139.61,87.03z M111.66,58.55c-1.48-0.81-2.23-1.26-3.01-1.65
		c-9.27-4.54-17.69-2.31-21.77,5.77c-3.95,7.83-0.52,16.3,8.69,20.73c5.7,2.74,11.64,4.98,17.4,7.63
		c20.45,9.39,30.39,31.69,23.86,53.36c-6.22,20.64-27.43,33.66-49.4,29.1c-8.82-1.83-17.18-6.13-25.57-9.72
		c-10.74-4.59-13.45-11.85-8.9-22.61c2.47-5.83,5.16-11.57,7.55-17.43c2.35-5.76,1.7-6.94-4.96-9.56
		c-4.53,10.44-9.14,20.88-13.58,31.39c-4.48,10.61-1.58,17.91,8.96,22.68c7.05,3.19,14.24,6.07,21.26,9.31
		c11.44,5.27,23.35,6.83,35.57,4.08c37.23-8.39,52.17-55.81,26.84-84.53c-7.08-8.03-15.87-13.24-25.78-16.85
		c-3.62-1.32-5.66-3.07-3.4-7.39C107.77,68.36,109.51,63.55,111.66,58.55z M71.1,124.7c-3.18,7.46-6.16,14.75-9.4,21.92
		c-1.73,3.83-0.39,5.97,3.12,7.46c6.15,2.61,12.22,5.43,18.43,7.88c9.76,3.86,19.44,3.31,28.5-1.93
		c11.88-6.88,17.73-17.46,16.79-31.18c-0.96-13.94-8.67-23.43-21.16-29.17c-5.43-2.5-11.04-4.62-16.49-7.09
		c-11.64-5.3-17.91-17.73-15.02-29.54c2.89-11.84,13.83-20.15,26.58-18.37c7.1,0.99,13.85,4.75,20.63,7.56
		c0.67,0.28,0.99,2.82,0.59,4.02c-1.12,3.32-2.75,6.46-4.09,9.71c-2.87,6.96-2.84,6.97,4.83,9.49c3.38-7.63,7.02-15.23,9.98-23.08
		c0.52-1.38-1.31-4.75-2.91-5.61c-5.4-2.91-11.18-5.11-16.81-7.59c-17.83-7.83-37.57-0.66-44.94,16.34
		c-7.53,17.35,0.41,36.95,18.18,44.84c5.79,2.57,11.64,5.02,17.4,7.66c11.97,5.49,17.93,18.84,13.83,30.77
		c-5.12,14.91-19.82,20.93-35.22,14.41c-13.52-5.72-13.52-5.72-7.84-18.95C78.92,127.61,78.92,127.61,71.1,124.7z"/>
</g>
</svg>
