<?xml version="1.0" encoding="utf-8"?>
<!-- Generator: Adobe Illustrator 25.0.1, SVG Export Plug-In . SVG Version: 6.00 Build 0)  -->
<svg version="1.1" id="Calque_1" xmlns="http://www.w3.org/2000/svg" xmlns:xlink="http://www.w3.org/1999/xlink" x="0px" y="0px"
	 viewBox="0 0 179.9 153.2" style="enable-background:new 0 0 179.9 153.2;" xml:space="preserve">
<style type="text/css">
	.st0{fill:url(#SVGID_1_);}
	.st1{fill:url(#SVGID_2_);}
	.st2{fill:url(#SVGID_3_);}
	.st3{fill:url(#SVGID_4_);}
	.st4{fill:url(#SVGID_5_);}
	.st5{fill:url(#SVGID_6_);}
	.st6{fill:url(#SVGID_7_);}
	.st7{fill:url(#SVGID_8_);}
	.st8{fill:url(#SVGID_9_);}
	.st9{fill:url(#SVGID_10_);}
	.st10{fill:url(#SVGID_11_);}
	.st11{fill:url(#SVGID_12_);}
	.st12{fill:url(#SVGID_13_);}
	.st13{fill:url(#SVGID_14_);}
	.st14{fill:url(#SVGID_15_);}
	.st15{fill:url(#SVGID_16_);}
	.st16{fill:url(#SVGID_17_);}
	.st17{fill:url(#SVGID_18_);}
	.st18{fill:url(#SVGID_19_);}
	.st19{fill:url(#SVGID_20_);}
	.st20{fill:url(#SVGID_21_);}
	.st21{fill:url(#SVGID_22_);}
	.st22{fill:url(#SVGID_23_);}
	.st23{fill:url(#SVGID_24_);}
	.st24{fill:url(#SVGID_25_);}
	.st25{fill:url(#SVGID_26_);}
	.st26{fill:url(#SVGID_27_);}
	.st27{fill:url(#SVGID_28_);}
	.st28{fill:url(#SVGID_29_);}
	.st29{fill:url(#SVGID_30_);}
	.st30{fill:url(#SVGID_31_);}
	.st31{fill:url(#SVGID_32_);}
	.st32{fill:url(#SVGID_33_);}
	.st33{fill:url(#SVGID_34_);}
	.st34{fill:url(#SVGID_35_);}
	.st35{fill:url(#SVGID_36_);}
	.st36{fill:url(#SVGID_37_);}
	.st37{fill:url(#SVGID_38_);}
	.st38{fill:url(#SVGID_39_);}
	.st39{fill:url(#SVGID_40_);}
	.st40{fill:url(#SVGID_41_);}
	.st41{fill:url(#SVGID_42_);}
	.st42{clip-path:url(#SVGID_45_);}
	.st43{fill:url(#SVGID_46_);}
	.st44{fill:url(#SVGID_47_);}
	.st45{fill:url(#SVGID_48_);}
	.st46{fill:url(#SVGID_49_);}
	.st47{clip-path:url(#SVGID_52_);}
	.st48{fill:url(#SVGID_53_);}
	.st49{clip-path:url(#SVGID_56_);}
	.st50{fill:url(#SVGID_57_);}
	.st51{fill:url(#SVGID_58_);}
	.st52{fill:url(#SVGID_59_);}
	.st53{fill:url(#SVGID_60_);}
	.st54{fill:url(#SVGID_61_);}
	.st55{fill:#E83189;}
	.st56{clip-path:url(#SVGID_64_);}
	.st57{fill:url(#SVGID_65_);}
	.st58{fill:#272252;}
	.st59{fill:url(#SVGID_66_);}
	.st60{fill:url(#SVGID_67_);}
	.st61{fill:url(#SVGID_68_);}
	.st62{fill:url(#SVGID_69_);}
	.st63{fill:url(#SVGID_70_);}
	.st64{fill:url(#SVGID_71_);}
	.st65{fill:url(#SVGID_72_);}
	.st66{fill:url(#SVGID_73_);}
	.st67{fill:url(#SVGID_74_);}
	.st68{fill:url(#SVGID_75_);}
	.st69{fill:url(#SVGID_76_);}
	.st70{fill:url(#SVGID_77_);}
	.st71{fill:url(#SVGID_78_);}
	.st72{fill:#FFFFFF;}
	.st73{fill:url(#SVGID_79_);}
	.st74{fill:url(#SVGID_80_);}
	.st75{fill:url(#SVGID_81_);}
	.st76{fill:url(#SVGID_82_);}
	.st77{fill:url(#SVGID_83_);}
	.st78{fill:url(#SVGID_84_);}
	.st79{fill:url(#SVGID_85_);}
	.st80{fill:url(#SVGID_86_);}
	.st81{fill:url(#SVGID_87_);}
	.st82{fill:url(#SVGID_88_);}
	.st83{fill:url(#SVGID_89_);}
	.st84{fill:url(#SVGID_90_);}
	.st85{fill:url(#SVGID_91_);}
	.st86{fill:url(#SVGID_92_);}
	.st87{fill:url(#SVGID_93_);}
	.st88{fill:url(#SVGID_94_);}
	.st89{fill:url(#SVGID_95_);}
	.st90{fill:url(#SVGID_96_);}
	.st91{fill:url(#SVGID_97_);}
	.st92{fill:url(#SVGID_98_);}
	.st93{fill:url(#SVGID_99_);}
	.st94{fill:url(#SVGID_100_);}
	.st95{fill:url(#SVGID_101_);}
	.st96{fill:url(#SVGID_102_);}
	.st97{fill:url(#SVGID_103_);}
	.st98{fill:url(#SVGID_104_);}
	.st99{fill:url(#SVGID_105_);}
	.st100{fill:url(#SVGID_106_);}
	.st101{fill:url(#SVGID_107_);}
	.st102{fill:url(#SVGID_108_);}
	.st103{fill:url(#SVGID_109_);}
	.st104{fill:url(#SVGID_110_);}
	.st105{fill:url(#SVGID_111_);}
	.st106{fill:url(#SVGID_112_);}
	.st107{fill:url(#SVGID_113_);}
	.st108{fill:url(#SVGID_114_);}
	.st109{fill:url(#SVGID_115_);}
	.st110{fill:url(#SVGID_116_);}
	.st111{fill:url(#SVGID_117_);}
	.st112{fill:url(#SVGID_118_);}
	.st113{fill:url(#SVGID_119_);}
	.st114{fill:url(#SVGID_120_);}
	.st115{clip-path:url(#SVGID_123_);}
	.st116{fill:url(#SVGID_124_);}
	.st117{fill:url(#SVGID_125_);}
	.st118{fill:url(#SVGID_126_);}
	.st119{fill:url(#SVGID_127_);}
	.st120{clip-path:url(#SVGID_130_);}
	.st121{fill:url(#SVGID_131_);}
	.st122{clip-path:url(#SVGID_134_);}
	.st123{fill:url(#SVGID_135_);}
	.st124{fill:url(#SVGID_136_);}
	.st125{fill:url(#SVGID_137_);}
	.st126{fill:url(#SVGID_138_);}
	.st127{fill:url(#SVGID_139_);}
	.st128{fill:#F8C5D1;}
	.st129{clip-path:url(#SVGID_142_);}
	.st130{fill:url(#SVGID_143_);}
	.st131{fill:url(#SVGID_144_);}
	.st132{fill:url(#SVGID_145_);}
	.st133{fill:url(#SVGID_146_);}
	.st134{fill:url(#SVGID_147_);}
	.st135{fill:url(#SVGID_148_);}
	.st136{fill:url(#SVGID_149_);}
	.st137{fill:url(#SVGID_150_);}
	.st138{fill:url(#SVGID_151_);}
	.st139{fill:url(#SVGID_152_);}
	.st140{fill:url(#SVGID_153_);}
	.st141{fill:url(#SVGID_154_);}
	.st142{fill:url(#SVGID_155_);}
	.st143{fill:url(#SVGID_156_);}
	.st144{fill:url(#SVGID_157_);}
	.st145{fill:url(#SVGID_158_);}
	.st146{fill:url(#SVGID_159_);}
	.st147{fill:url(#SVGID_160_);}
	.st148{fill:#282452;}
	.st149{fill:url(#SVGID_161_);}
	.st150{fill:url(#SVGID_162_);}
	.st151{fill-rule:evenodd;clip-rule:evenodd;fill:url(#SVGID_163_);}
	.st152{fill-rule:evenodd;clip-rule:evenodd;fill:url(#SVGID_164_);}
	.st153{fill-rule:evenodd;clip-rule:evenodd;fill:url(#SVGID_165_);}
	.st154{fill-rule:evenodd;clip-rule:evenodd;fill:#282452;}
	.st155{fill-rule:evenodd;clip-rule:evenodd;fill:url(#SVGID_166_);}
	.st156{fill-rule:evenodd;clip-rule:evenodd;fill:url(#SVGID_167_);}
	.st157{fill-rule:evenodd;clip-rule:evenodd;fill:url(#SVGID_168_);}
	.st158{fill-rule:evenodd;clip-rule:evenodd;fill:url(#SVGID_169_);}
	.st159{fill:url(#SVGID_170_);}
	.st160{fill-rule:evenodd;clip-rule:evenodd;fill:#194058;}
	.st161{fill:url(#SVGID_171_);}
	.st162{fill:url(#SVGID_172_);}
	.st163{fill:url(#SVGID_173_);}
	.st164{fill:url(#SVGID_174_);}
	.st165{fill:url(#SVGID_175_);}
	.st166{fill:url(#SVGID_176_);}
	.st167{clip-path:url(#SVGID_179_);}
	.st168{fill:url(#SVGID_180_);}
	.st169{fill:url(#SVGID_181_);}
	.st170{fill:url(#SVGID_182_);}
	.st171{fill-rule:evenodd;clip-rule:evenodd;fill:#123250;}
	.st172{fill-rule:evenodd;clip-rule:evenodd;fill:url(#SVGID_183_);}
	.st173{fill-rule:evenodd;clip-rule:evenodd;fill:#020203;}
	.st174{fill-rule:evenodd;clip-rule:evenodd;fill:url(#SVGID_184_);}
	.st175{fill-rule:evenodd;clip-rule:evenodd;fill:#B9897D;}
	.st176{fill-rule:evenodd;clip-rule:evenodd;fill:url(#SVGID_185_);}
	.st177{fill-rule:evenodd;clip-rule:evenodd;fill:#01568E;}
	.st178{fill:url(#SVGID_186_);}
	.st179{fill:url(#SVGID_187_);}
	.st180{fill:url(#SVGID_188_);}
	.st181{fill:url(#SVGID_189_);}
	.st182{fill:url(#SVGID_190_);}
	.st183{fill:url(#SVGID_191_);}
	.st184{fill:url(#SVGID_192_);}
	.st185{fill:url(#SVGID_193_);}
	.st186{fill:url(#SVGID_194_);}
	.st187{fill:#917971;}
	.st188{fill:url(#SVGID_195_);}
	.st189{fill:url(#SVGID_196_);}
	.st190{fill:url(#SVGID_197_);}
	.st191{fill:url(#SVGID_198_);}
	.st192{fill:url(#SVGID_199_);}
	.st193{clip-path:url(#SVGID_202_);}
	.st194{fill:url(#SVGID_203_);}
	.st195{fill:url(#SVGID_204_);}
	.st196{fill:url(#SVGID_205_);}
	.st197{fill:url(#SVGID_206_);}
	.st198{clip-path:url(#SVGID_209_);}
	.st199{fill:url(#SVGID_210_);}
	.st200{clip-path:url(#SVGID_213_);}
	.st201{fill:url(#SVGID_214_);}
	.st202{fill:url(#SVGID_215_);}
	.st203{fill:url(#SVGID_216_);}
	.st204{fill:url(#SVGID_217_);}
	.st205{fill:url(#SVGID_218_);}
	.st206{fill:url(#SVGID_222_);}
	.st207{fill:url(#SVGID_223_);}
	.st208{fill:url(#SVGID_224_);}
	.st209{fill:url(#SVGID_225_);}
	.st210{fill:url(#SVGID_226_);stroke:url(#SVGID_227_);stroke-miterlimit:10;}
	.st211{fill:url(#SVGID_228_);}
	.st212{fill:url(#SVGID_229_);}
	.st213{fill:url(#SVGID_230_);}
	.st214{fill:url(#SVGID_231_);}
	.st215{fill:url(#SVGID_232_);}
	.st216{fill:url(#SVGID_233_);}
	.st217{fill:url(#SVGID_234_);}
	.st218{fill:url(#SVGID_235_);}
	.st219{fill:url(#SVGID_236_);}
	.st220{fill:url(#SVGID_237_);}
	.st221{fill:url(#SVGID_238_);}
	.st222{opacity:0.85;}
	.st223{fill:url(#SVGID_239_);stroke:#A1A0A0;stroke-width:0.25;stroke-miterlimit:10;}
	.st224{opacity:0.8;fill:#B6DDD7;}
	.st225{fill:#3EAC50;}
	.st226{fill:#F0BF49;}
	.st227{fill:#D92A2B;}
	.st228{fill:url(#SVGID_240_);stroke:#A1A0A0;stroke-width:0.25;stroke-miterlimit:10;}
	.st229{fill:url(#SVGID_241_);}
	.st230{fill:url(#SVGID_242_);}
	.st231{fill:url(#SVGID_243_);}
	.st232{fill:url(#SVGID_244_);}
	.st233{fill:url(#SVGID_245_);}
	.st234{clip-path:url(#SVGID_248_);}
	.st235{fill:url(#SVGID_249_);}
	.st236{fill:url(#SVGID_250_);}
	.st237{fill:url(#SVGID_251_);}
	.st238{fill:url(#SVGID_252_);}
	.st239{fill:url(#SVGID_253_);}
	.st240{fill:url(#SVGID_254_);}
	.st241{fill:url(#SVGID_255_);}
	.st242{fill:url(#SVGID_256_);}
	.st243{fill:url(#SVGID_257_);}
	.st244{fill:url(#SVGID_258_);}
	.st245{fill:url(#SVGID_259_);}
	.st246{fill:url(#SVGID_260_);}
	.st247{fill:url(#SVGID_261_);}
	.st248{fill:url(#SVGID_262_);}
	.st249{fill:url(#SVGID_263_);}
	.st250{fill:url(#SVGID_264_);}
	.st251{fill:url(#SVGID_265_);}
	.st252{fill:url(#SVGID_266_);}
	.st253{fill:url(#SVGID_267_);}
	.st254{fill:url(#SVGID_268_);}
	.st255{fill:url(#SVGID_269_);}
	.st256{fill:none;stroke:#A1A0A0;stroke-width:0.25;stroke-miterlimit:10;}
</style>
<g>
	<g transform="matrix(0.947368,0,0,0.947368,2121.33,21.5541)">
		
			<linearGradient id="SVGID_1_" gradientUnits="userSpaceOnUse" x1="-2388.0422" y1="91.9684" x2="-2418.7949" y2="28.8009" gradientTransform="matrix(-0.9982 6.001533e-02 6.001533e-02 0.9982 -4543.2505 134.3406)">
			<stop  offset="0" style="stop-color:#F7C4D0"/>
			<stop  offset="1" style="stop-color:#9491C7"/>
		</linearGradient>
		<path class="st0" d="M-2228,50.7c31.4-85,57.3-34.4,88.6-35.1c14-0.3,29.4-4,47.8,2.3c12.2,4.2,28,12.4,30.8,35.9
			c3.1,26.5-16,43.9-28.1,49.1c-16.1,6.9-28.4,7.9-45.9,7c-7.6-0.4-15.2-1.7-22.8-1.9c-9.1-0.3-18.1,0.3-27.1,1.4
			C-2196.1,110.7-2246.5,100.8-2228,50.7z"/>
	</g>
	<g>
		<g transform="matrix(1.01336,0,0,0.947368,2027.71,21.5541)">
			
				<linearGradient id="SVGID_2_" gradientUnits="userSpaceOnUse" x1="-2217.8997" y1="67.4474" x2="-2184.4514" y2="67.4474" gradientTransform="matrix(-1 0 0 1 -4110.7026 0)">
				<stop  offset="0" style="stop-color:#282451"/>
				<stop  offset="1" style="stop-color:#1D8BB0"/>
			</linearGradient>
			<path class="st1" d="M-1909.3,91.8c0.1,0.2,0.1-0.5,0.2-0.8c0-0.4,0.1-0.9,0.1-1.3c0.1-1.3,0-2.6-0.2-3.8
				c-0.5-3.7-0.7-5.9-2.5-9.2c-5.3-9.7-11.9-13.4-13.8-24.7c-0.6-3.5-1.1-10.3,3.3-11.9c6.5-2.4,9.5,8.1,10.6,12.3
				c1.6,5.9,2,7.7,5.3,13c2.3,3.8,4.7,5.1,7.5,8.4c5,5.9,6,13.7,6,21.2"/>
		</g>
		<g transform="matrix(0.947368,0,0,0.947368,2121.33,21.5541)">
			
				<linearGradient id="SVGID_3_" gradientUnits="userSpaceOnUse" x1="-2491.8809" y1="60.3553" x2="-2452.0864" y2="60.3553" gradientTransform="matrix(-1 0 0 1 -4594.6899 0)">
				<stop  offset="0" style="stop-color:#282451"/>
				<stop  offset="1" style="stop-color:#1D8BB0"/>
			</linearGradient>
			<path class="st2" d="M-2138.9,85.6c0,0.4,0.4-1.2,0.4-1.4c0.1-1.6,0-3.2,0-4.8c0-4.3,1.9-6.7-0.2-20.3
				c-2.3-14.5-4.5-19.8-5.2-24.4c-0.7-4.9-3.1-11.2,4-13.5c3.9-1.3,8.5,2.1,10.8,4.8c6.8,7.7,10.3,18.1,11.1,28.2
				c0.3,3.9,0.5,7.8,0,11.7c-0.2,1.3-0.4,2.6-0.5,3.9c0,0.5-0.6,1.8-0.2,1.5c1.3-1.3,7.8-10.6,12.3-8.1c7.2,4.1,1.6,21.7-1.8,29
				c-0.2,0.5-4.2,7.3-4.4,7.3"/>
		</g>
		<g transform="matrix(0.947368,0,0,0.947368,2121.33,21.5541)">
			
				<linearGradient id="SVGID_4_" gradientUnits="userSpaceOnUse" x1="-2503.4966" y1="73.2544" x2="-2473.8872" y2="73.2544" gradientTransform="matrix(-1 0 0 1 -4594.6899 0)">
				<stop  offset="0" style="stop-color:#282451"/>
				<stop  offset="1" style="stop-color:#1D8BB0"/>
			</linearGradient>
			<path class="st3" d="M-2122.4,94.9c0.8-0.8,2.2-1.2,3.2-1.9c3.4-2.2,5.9-4.7,7.5-8.5c3.8-8.8,0.5-19.1,4.6-27.8
				c1.5-3.2,6.5-7.4,10.4-5.6c4,1.8,5.2,6.3,5.4,10.3c0.8,10.8-4.4,24.2-13.7,30.3c-3.5,2.3-8.1,4.1-12.2,4.1
				c-0.3,0-1.2,0.2-1.2-0.2"/>
		</g>
		<g transform="matrix(0.947368,0,0,0.947368,2121.33,21.5541)">
			
				<linearGradient id="SVGID_5_" gradientUnits="userSpaceOnUse" x1="-2534.99" y1="87.7365" x2="-2489.6128" y2="87.7365" gradientTransform="matrix(-1 0 0 1 -4594.6899 0)">
				<stop  offset="0" style="stop-color:#282451"/>
				<stop  offset="1" style="stop-color:#1D8BB0"/>
			</linearGradient>
			<path class="st4" d="M-2107.6,110.4c1.8-0.4,3.3-2.3,4.5-3.6c6.3-6.7,9.6-14.4,13.1-22.7c2.1-5,2.6-9.9,6.4-14
				c5.6-6.1,14.7-9.4,21.2-2.8c6.5,6.5-0.2,15.3-5,20.2c-2.6,2.6-5.5,5.2-7.8,8.1c-6.6,8.1-11.3,14.3-22.6,15.6
				c-2.7,0.3-6.4,1.3-9,0"/>
		</g>
		<g transform="matrix(0.947368,0,0,0.947368,2143.62,33.3533)">
			
				<linearGradient id="SVGID_6_" gradientUnits="userSpaceOnUse" x1="-2791.5781" y1="-145.0958" x2="-2790.8523" y2="-145.0958" gradientTransform="matrix(16.0015 -53.2095 53.2095 16.0015 50214.9219 -146135.25)">
				<stop  offset="0" style="stop-color:#282451"/>
				<stop  offset="1" style="stop-color:#1D8BB0"/>
			</linearGradient>
			<path class="st5" d="M-2155.9,85.6c0.2,0.2-0.1-1.8-0.2-2.1c-0.2-1.5-0.6-3-1.2-4.4c-1.6-4-3.9-8-8-9.9
				c-7.2-3.4-17.7-1.4-23.8,3.3c-1.6,1.2-2.6,2.8-3.8,4.4c-1.2,1.5-2.1,2.6-2.4,4.5c-1.1,6.8,1.2,14,8.2,16.1c2.2,0.7,4.9,0.7,7-0.3
				c5.6-2.7,8.4-8.2,13.1-11.8c2.3-1.7,6.3-4.3,8.9-1.7C-2157.8,83.8-2155.9,85.6-2155.9,85.6z"/>
		</g>
		<g transform="matrix(1.01336,0,0,0.947368,2027.71,21.5541)">
			
				<linearGradient id="SVGID_7_" gradientUnits="userSpaceOnUse" x1="-2263.6562" y1="76.5478" x2="-2230.208" y2="76.5478" gradientTransform="matrix(-1 0 0 1 -4110.7026 0)">
				<stop  offset="0" style="stop-color:#282451"/>
				<stop  offset="1" style="stop-color:#1D8BB0"/>
			</linearGradient>
			<path class="st6" d="M-1863.6,100.9c-0.1,0.2-0.1-0.5-0.2-0.8c0-0.4-0.1-0.9-0.1-1.3c-0.1-1.3,0-2.6,0.2-3.8
				c0.5-3.7,0.7-5.9,2.5-9.2c5.3-9.7,11.9-13.4,13.8-24.7c0.6-3.5,1.1-10.3-3.3-11.9c-6.5-2.4-9.5,8.1-10.6,12.3
				c-1.6,5.9-2,7.7-5.3,13c-2.3,3.8-4.7,5.1-7.5,8.4c-5,5.9-6,13.7-6,21.2"/>
		</g>
		<g transform="matrix(0.947368,0,0,0.947368,2121.33,21.5541)">
			
				<linearGradient id="SVGID_8_" gradientUnits="userSpaceOnUse" x1="-2474.2451" y1="95.9282" x2="-2479.9519" y2="34.7376" gradientTransform="matrix(-1 0 0 1 -4594.6899 0)">
				<stop  offset="0" style="stop-color:#282451"/>
				<stop  offset="1" style="stop-color:#1D8BB0"/>
			</linearGradient>
			<path class="st7" d="M-2102.1,96.8c0,0.4-0.4-1.2-0.4-1.4c-0.1-1.6,0-3.2,0-4.8c0-4.3-1.9-6.7,0.2-20.3
				c2.3-14.5,4.5-19.8,5.2-24.4c0.7-4.9,3.1-11.2-4-13.5c-3.9-1.3-8.5,2.1-10.8,4.8c-6.8,7.7-10.3,18.1-11.1,28.2
				c-0.3,3.9-0.5,7.8,0,11.7c0.2,1.3,0.4,2.6,0.5,3.9c0,0.5,0.6,1.8,0.2,1.5c-1.3-1.3-7.8-10.6-12.3-8.1c-7.2,4.1-1.6,21.7,1.8,29
				c0.2,0.5,4.2,7.3,4.4,7.3"/>
		</g>
		<g transform="matrix(0.947368,0,0,0.947368,2121.33,21.5541)">
			
				<linearGradient id="SVGID_9_" gradientUnits="userSpaceOnUse" x1="-2482.9412" y1="90.4824" x2="-2453.3315" y2="90.4824" gradientTransform="matrix(-1 0 0 1 -4594.6899 0)">
				<stop  offset="0" style="stop-color:#282451"/>
				<stop  offset="1" style="stop-color:#1D8BB0"/>
			</linearGradient>
			<path class="st8" d="M-2111.7,112.2c-0.8-0.8-2.2-1.2-3.2-1.9c-3.4-2.2-5.9-4.7-7.5-8.5c-3.8-8.8-0.5-19.1-4.6-27.8
				c-1.5-3.2-6.5-7.4-10.4-5.6c-4,1.8-5.2,6.3-5.4,10.3c-0.8,10.8,4.4,24.2,13.7,30.3c3.5,2.3,8.1,4.1,12.2,4.1
				c0.3,0,1.2,0.2,1.2-0.2"/>
		</g>
		<g transform="matrix(0.947368,0,0,0.947368,2121.33,21.5541)">
			
				<linearGradient id="SVGID_10_" gradientUnits="userSpaceOnUse" x1="-2473.8494" y1="77.6214" x2="-2416.7063" y2="77.6214" gradientTransform="matrix(-1 0 0 1 -4594.6899 0)">
				<stop  offset="0" style="stop-color:#282451"/>
				<stop  offset="1" style="stop-color:#1D8BB0"/>
			</linearGradient>
			<path class="st9" d="M-2120.8,87.5c-1.8,0.4-4-0.6-5.6-1.1c-8.6-3.1-15.1-8.5-21.9-14.3c-4.1-3.5-6.8-7.6-12-9.6
				c-7.8-2.9-17.3-1.7-20.2,7.1c-2.9,8.7,7.1,13.6,13.6,15.7c3.5,1.2,7.2,2.1,10.6,3.6c9.6,4.2,16.5,7.7,27.2,3.7
				c2.6-1,6.3-1.8,8-4.1"/>
		</g>
		<g transform="matrix(0.947368,0,0,0.947368,2143.62,33.3533)">
			
				<linearGradient id="SVGID_11_" gradientUnits="userSpaceOnUse" x1="-2533.5493" y1="76.535" x2="-2567.1567" y2="102.6916" gradientTransform="matrix(-1 0 0 1 -4641.7466 0)">
				<stop  offset="0" style="stop-color:#282451"/>
				<stop  offset="1" style="stop-color:#1D8BB0"/>
			</linearGradient>
			<path class="st10" d="M-2115.6,90.2c-0.2,0.2,0.1-1.8,0.2-2.1c0.2-1.5,0.6-3,1.2-4.4c1.6-4,3.9-8,8-9.9
				c7.2-3.4,17.7-1.4,23.8,3.3c1.6,1.2,2.6,2.8,3.8,4.4c1.2,1.5,2.1,2.6,2.4,4.5c1.1,6.8-1.2,14-8.2,16.1c-2.2,0.7-4.9,0.7-7-0.3
				c-5.6-2.7-8.4-8.2-13.1-11.8c-2.3-1.7-6.3-4.3-8.9-1.7C-2113.8,88.4-2115.6,90.2-2115.6,90.2z"/>
		</g>
	</g>
	<g class="st222">
		
			<linearGradient id="SVGID_12_" gradientUnits="userSpaceOnUse" x1="-176.5193" y1="47.6021" x2="-176.5193" y2="120.3528" gradientTransform="matrix(-1 0 0 1 -110.2019 0)">
			<stop  offset="0" style="stop-color:#FFFFFF"/>
			<stop  offset="1" style="stop-color:#CDE9F0"/>
		</linearGradient>
		<path style="fill:url(#SVGID_12_);stroke:#A1A0A0;stroke-width:0.25;stroke-miterlimit:10;" d="M111.9,120.3H20.8
			c-3.2,0-5.9-2.6-5.9-5.9V53.8c0-3.2,2.6-5.9,5.9-5.9h91.1c3.2,0,5.9,2.6,5.9,5.9v60.6C117.7,117.6,115.1,120.3,111.9,120.3z"/>
		
			<rect x="21.5" y="63.5" transform="matrix(-1 -4.491042e-11 4.491042e-11 -1 133.6232 140.9302)" class="st224" width="90.6" height="14"/>
		
			<rect x="53.4" y="79.3" transform="matrix(-1 -4.489088e-11 4.489088e-11 -1 165.5136 162.0308)" class="st224" width="58.7" height="3.5"/>
		
			<rect x="53.4" y="83.8" transform="matrix(-1 -4.489088e-11 4.489088e-11 -1 165.5136 171.0627)" class="st224" width="58.7" height="3.5"/>
		
			<rect x="53.4" y="91" transform="matrix(-1 -4.489088e-11 4.489088e-11 -1 165.5136 185.5675)" class="st224" width="58.7" height="3.5"/>
		
			<rect x="53.4" y="96" transform="matrix(-1 -4.489088e-11 4.489088e-11 -1 165.5136 195.4304)" class="st224" width="58.7" height="3.5"/>
		
			<rect x="53.4" y="101" transform="matrix(-1 -4.489088e-11 4.489088e-11 -1 165.5136 205.3801)" class="st224" width="58.7" height="3.5"/>
		<g>
			<circle class="st225" cx="24.9" cy="51" r="0.6"/>
			<circle class="st226" cx="23.2" cy="51" r="0.6"/>
			<circle class="st227" cx="21.4" cy="51" r="0.6"/>
		</g>
		<g>
			
				<linearGradient id="SVGID_13_" gradientUnits="userSpaceOnUse" x1="-137.1779" y1="78.8514" x2="-137.1779" y2="112.6997" gradientTransform="matrix(-1 0 0 1 -110.2019 0)">
				<stop  offset="0" style="stop-color:#FFFFFF"/>
				<stop  offset="1" style="stop-color:#CDE9F0"/>
			</linearGradient>
			<path style="fill:url(#SVGID_13_);stroke:#A1A0A0;stroke-width:0.25;stroke-miterlimit:10;" d="M48,112.7H5.9
				c-1.6,0-2.9-1.3-2.9-2.9V81.9c0-1.6,1.3-2.9,2.9-2.9H48c1.6,0,2.9,1.3,2.9,2.9v27.9C50.9,111.4,49.6,112.7,48,112.7z"/>
			<g>
				
					<rect x="8.1" y="90.1" transform="matrix(-1 -4.495128e-11 4.495128e-11 -1 35.7872 181.0362)" class="st224" width="19.7" height="0.9"/>
				
					<rect x="8.1" y="91.4" transform="matrix(-1 -4.485846e-11 4.485846e-11 -1 35.7872 183.7411)" class="st224" width="19.7" height="0.9"/>
				
					<rect x="8.1" y="92.8" transform="matrix(-1 -4.485846e-11 4.485846e-11 -1 35.7872 186.446)" class="st224" width="19.7" height="0.9"/>
				
					<rect x="8.1" y="95.5" transform="matrix(-1 -4.485846e-11 4.485846e-11 -1 35.7872 191.8557)" class="st224" width="19.7" height="0.9"/>
				
					<rect x="8.1" y="96.8" transform="matrix(-1 -4.485846e-11 4.485846e-11 -1 35.7872 194.5606)" class="st224" width="19.7" height="0.9"/>
				
					<rect x="8.1" y="98.2" transform="matrix(-1 -4.495128e-11 4.495128e-11 -1 35.7872 197.2655)" class="st224" width="19.7" height="0.9"/>
				
					<rect x="8.1" y="99.6" transform="matrix(-1 -4.495128e-11 4.495128e-11 -1 35.7872 199.9704)" class="st224" width="19.7" height="0.9"/>
				
					<rect x="8.1" y="100.9" transform="matrix(-1 -4.495128e-11 4.495128e-11 -1 35.7872 202.6753)" class="st224" width="19.7" height="0.9"/>
				
					<rect x="8.1" y="102.3" transform="matrix(-1 -4.495128e-11 4.495128e-11 -1 35.7872 205.3801)" class="st224" width="19.7" height="0.9"/>
				<g>
					<circle class="st224" cx="38.5" cy="91.8" r="3.3"/>
					<path class="st224" d="M45.9,103.1c0-4.1-3.3-7.4-7.4-7.4s-7.4,3.3-7.4,7.4H45.9z"/>
				</g>
			</g>
		</g>
	</g>
	<g>
		<g>
			<g transform="matrix(1.00134,0,0,1.00134,2048.56,-2.73507)">
				
					<linearGradient id="SVGID_14_" gradientUnits="userSpaceOnUse" x1="-2337.51" y1="276.4301" x2="-2353.094" y2="287.8864" gradientTransform="matrix(0.8539 0.5204 -0.5204 0.8539 227.3002 1091.243)">
					<stop  offset="0" style="stop-color:#9ED6E5"/>
					<stop  offset="1" style="stop-color:#EAF5F5"/>
				</linearGradient>
				<path class="st13" d="M-1936.6,121.8c0,0,5.5-16.3,8.8-20.1c3.3-3.8,9.8,0.1,7.2,6c-1.7,3.8-6.6,10.8-9.8,15.1
					c-0.7,0.9-1.7,1.4-2.9,1.4c-1.1,0-2.2-0.6-2.8-1.5C-1936.3,122.1-1936.6,121.8-1936.6,121.8z"/>
			</g>
			<g transform="matrix(0.947368,0,0,0.947368,2121.33,21.5541)">
				
					<linearGradient id="SVGID_15_" gradientUnits="userSpaceOnUse" x1="-2795.6775" y1="-182.4" x2="-2795.1426" y2="-182.4" gradientTransform="matrix(32.4123 12.5598 12.5598 -32.4123 90782.0547 29301.4102)">
					<stop  offset="0" style="stop-color:#E5A580"/>
					<stop  offset="1" style="stop-color:#C68010"/>
				</linearGradient>
				<path class="st14" d="M-2118.6,89.1c3.4-0.1,7.7,0.9,8.7,4.1c-2.7,5.1-6.3,9.3-9,12.8c-0.8,1.1-2.2,1.6-3.5,1.3
					c-4.2-0.9-13.3-2.7-15.9-3.3c-0.5-0.1-0.9,0-1.4,0.2c-1.1,0.7-3.4,2.1-3.4,2.1l-3.3-2.2c0,0,2.8-2.1,4.1-3
					c0.4-0.3,0.8-0.4,1.3-0.3c3.3,0.3,17.3,1.8,17.3,1.8S-2121.7,95.7-2118.6,89.1z"/>
			</g>
		</g>
		<g>
			<g transform="matrix(0.947368,0,0,0.947368,2121.33,21.5541)">
				
					<linearGradient id="SVGID_16_" gradientUnits="userSpaceOnUse" x1="-2155.2644" y1="-973.6946" x2="-2147.845" y2="-974.2817" gradientTransform="matrix(0.9999 1.618207e-02 -1.618207e-02 0.9999 9.3461 1070.4811)">
					<stop  offset="0" style="stop-color:#E79D78"/>
					<stop  offset="1" style="stop-color:#6E6A84"/>
				</linearGradient>
				<path class="st15" d="M-2122.7,55.4c-1.2-1.1-3.8,0.1-4,1.5c-0.1,0.5,0.4,1.4,0.4,1.7c-0.2,0.8-1.3,1.1-0.9,2.6
					c0.1,0.5,0.4,0.9,0.7,1.3c0.2,0.2,0.6,0.4,0.7,0.6c0.1,0.3-0.2,0.7-0.3,1c-0.2,0.7-0.4,1.6-0.1,2.2c0.1,0.4,0.4,0.7,0.7,0.9
					c0.2,0.2,0.4,0.3,0.7,0.4c0.5,0.3,2.1,0.8,2.7,0.2c0.5-0.6,0.2-1.3,0.2-2c0-0.6,0.3-1.1,0.5-1.7c0.6-1.4,1.2-2.6,1.1-4.1"/>
			</g>
			<g>
				<g transform="matrix(0.947368,0,0,0.947368,2121.33,21.5541)">
					
						<linearGradient id="SVGID_17_" gradientUnits="userSpaceOnUse" x1="-3423.2307" y1="232.9051" x2="-3451.356" y2="266.8589" gradientTransform="matrix(0.9154 0.5259 -0.4669 0.8931 1162.5212 1679.4288)">
						<stop  offset="0" style="stop-color:#9ED6E5"/>
						<stop  offset="1" style="stop-color:#EAF5F5"/>
					</linearGradient>
					<path class="st16" d="M-2128.5,113.4c19-9.9,5.8-19.2,16.2-33.3c10.7-14.5,28.4,5.4,23,24.6c-0.9,3.4-2.3,5.9-3.8,8.7H-2128.5z
						"/>
				</g>
				<g transform="matrix(0.947368,0,0,0.947368,2121.33,21.5541)">
					
						<linearGradient id="SVGID_18_" gradientUnits="userSpaceOnUse" x1="-2747.4136" y1="-133.0913" x2="-2746.6069" y2="-133.0913" gradientTransform="matrix(24.3756 6.0656 6.0656 -24.3756 65662.8984 13499.0879)">
						<stop  offset="0" style="stop-color:#E5A580"/>
						<stop  offset="1" style="stop-color:#C68010"/>
					</linearGradient>
					<path class="st17" d="M-2107.2,73.6c3.9,0.3,8,2.3,11.7,5.4c-2.7,2.5-5.7,4.8-9.1,6.3c-1.9,0.8-4.4,1.5-6.5,0.7
						c-2.4-0.9-2.2-3.8-1.3-5.7C-2111.3,77.7-2109.3,75.6-2107.2,73.6z"/>
				</g>
				<g transform="matrix(0.947368,0,0,0.947368,2121.33,21.5541)">
					<g>
						<defs>
							<path id="SVGID_246_" d="M-2108.8,70.6c-0.1,0,3.3,2.2,4.2,2.8c2.2,1.6,3.6,5.4-0.2,6.5c-2.4,0.7-5.2-0.8-7.1-2.2
								c-0.6-0.4-1.7-1.1-1.7-1.1s-2.4,3.2-5.1,2.8c-1.8-0.3-3-2.1-4-4.7c-1.6-4.6-2.1-8.6-0.9-14.3c0.4-2,3.7-3.4,5.2-4
								c2-0.8,4.7-1.1,6.8-0.1c3.7,1.7,4.1,6,3.8,9.6C-2108,68.2-2108.8,70.6-2108.8,70.6z"/>
						</defs>
						
							<linearGradient id="SVGID_19_" gradientUnits="userSpaceOnUse" x1="-2142.6604" y1="-968.1385" x2="-2116.821" y2="-968.1385" gradientTransform="matrix(0.9999 1.618207e-02 -1.618207e-02 0.9999 9.3461 1070.4811)">
							<stop  offset="0" style="stop-color:#E5A580"/>
							<stop  offset="1" style="stop-color:#C68010"/>
						</linearGradient>
						<use xlink:href="#SVGID_246_"  style="overflow:visible;fill:url(#SVGID_19_);"/>
						<clipPath id="SVGID_20_">
							<use xlink:href="#SVGID_246_"  style="overflow:visible;"/>
						</clipPath>
						<g style="clip-path:url(#SVGID_20_);">
							<g transform="matrix(1.05556,0,0,1.05556,-4350.29,-22.7516)">
								
									<linearGradient id="SVGID_21_" gradientUnits="userSpaceOnUse" x1="1494.4731" y1="-139.9038" x2="1495.2797" y2="-139.9038" gradientTransform="matrix(-13.4804 8.3973 8.3973 13.4804 23438.7285 -10577.3457)">
									<stop  offset="0" style="stop-color:#E5A580"/>
									<stop  offset="1" style="stop-color:#FFFFFF"/>
								</linearGradient>
								<path class="st20" d="M2107,88.2c-0.1-0.2-0.1-0.6-0.1-0.7c0-0.6,0-1.3,0-1.9c0.3-2.9,2.9-6.4,6.2-5.7
									c1.5,0.3,2.5,1.7,2.8,3.1c0.4,1.5,0.2,3.1,0.2,4.7c0,2.2,0.1,4.4,0.1,6.5c0,1.3-0.1,3.1-1.1,4.1c-1.4,1.4-3.7,0.9-5.2,0
									c-2.9-1.9-4.3-5.7-5.4-8.8"/>
							</g>
						</g>
					</g>
				</g>
				<g transform="matrix(0.959417,0,0.0821043,0.959417,-1831.08,6.61591)">
					
						<linearGradient id="SVGID_22_" gradientUnits="userSpaceOnUse" x1="2080.8914" y1="-941.3066" x2="2083.1216" y2="-933.6239" gradientTransform="matrix(0.9985 1.618207e-02 -1.630058e-02 1.0013 -74.7333 990.3757)">
						<stop  offset="0" style="stop-color:#E79D78"/>
						<stop  offset="1" style="stop-color:#6E6A84"/>
					</linearGradient>
					<path class="st21" d="M2023.1,82.6c0-0.1-0.3-0.1-0.3-0.1c-0.4-0.1-0.8-0.1-1.1-0.1c-1,0-2.1,0.2-2.9,0.7
						c-0.4,0.2-0.6,0.6-1,0.8c-0.1,0.1-0.4,0-0.5,0c-0.1,0-0.2,0.1-0.3,0.1c-0.2,0-0.5-0.2-0.7-0.3c-0.4-0.2-0.8-0.2-1.2-0.2
						c-0.3,0-0.5,0-0.8,0.1c-1.8,0.5-1.4,2.9-0.7,4.2c0.4,0.7,1.5,0.9,2.1,0.4c0.8-0.7,0.9-1.5,1.1-2.5c0.1-0.3,0-1.1,0.4-1.2
						c0.8-0.3,0.9,0.8,1.1,1.3c0.2,0.6,0.8,1.5,1.4,1.7c0.3,0.1,0.7,0.1,1.1,0c0.3,0,0.5-0.1,0.7-0.3c0.9-0.5,1.1-1.6,1.1-2.5
						c0-0.5,0-0.9,0.2-1.3c0.1-0.1,0.4-0.2,0.5-0.2c0.4-0.1,1.6-0.1,1.4-0.8c0-0.1-0.3-0.1-0.4-0.1c-0.3,0-0.7,0.2-1,0.2"/>
				</g>
				<g transform="matrix(0.947368,0,0,0.947368,2121.33,21.5541)">
					
						<linearGradient id="SVGID_23_" gradientUnits="userSpaceOnUse" x1="-2128.7817" y1="-964.796" x2="-2136.842" y2="-974.1373" gradientTransform="matrix(0.9999 1.618207e-02 -1.618207e-02 0.9999 9.3461 1070.4811)">
						<stop  offset="0" style="stop-color:#E79D78"/>
						<stop  offset="1" style="stop-color:#6E6A84"/>
					</linearGradient>
					<path class="st22" d="M-2113.8,63.1c-0.5,0.7-1.6,2.2-2.7,1.6c-0.4-0.2-0.5-0.8-0.5-1.3c0-0.1,0-0.3,0.1-0.4
						c0-0.1,0.2-0.3,0.1-0.3c-0.7,0.3-3,2.5-3.7,0.9c-0.2-0.4-0.2-0.9-0.1-1.4c0,0,0.1-0.5,0.1-0.5c0,0-0.3,0.2-0.3,0.3
						c-0.2,0.2-0.4,0.3-0.6,0.4c-0.6,0.4-1.3,0.6-2,0.3c-0.9-0.4-1.2-1.2-0.9-2.1c0.1-0.1,0.6-0.8,0.5-0.9c-0.1-0.2-0.6-0.3-0.8-0.4
						c-0.8-0.5-1.7-1.2-1.5-2.2c0.1-0.6,0.7-1.1,1.2-1.3c0.1-0.1,0.5-0.1,0.6-0.2c0.1-0.1-0.3-0.7-0.4-0.9c-0.2-0.6-0.1-1.3,0.4-1.8
						c0.4-0.4,1-0.6,1.5-0.6c0.6,0,1.2,0.3,1.7,0.6c0.1,0.1,0.6,0.6,0.7,0.6c0,0,0.3-0.4,0.3-0.4c0.4-0.4,1-0.4,1.5,0
						c0.6,0.5,0.9,1.3,1.1,2c0,0.1,0.2,0.8,0.2,0.8c0.1,0,0.3-0.3,0.4-0.4c0.3-0.3,0.8-0.5,1.2-0.6c0.4-0.1,0.9,0,1.3,0.1
						c0.1,0,0.5,0.3,0.5,0.2c0.1,0,0.2-0.4,0.3-0.5c0.2-0.3,0.6-0.6,1-0.7c0.3-0.1,0.7,0,1,0.2c0,0,0.1,0.1,0.1,0.1
						c0.1-0.1,0.1-0.8,0.1-0.9c0.1-0.6,0.4-1.2,0.8-1.7c0.9-0.9,2.2-0.5,3,0.3c0.2,0.2,0.4,0.8,0.7,1c0.4,0.3,0.8,0.2,1.2,0.6
						c0.4,0.6,0.4,1.4,0.2,2c0,0.1-0.4,0.7-0.4,0.8c0.2,0.4,1.1,0.6,1.3,1.7c0.1,0.4,0.1,0.9-0.2,1.2c-0.1,0.2-0.5,0.4-0.5,0.6
						c0,0.6,0.7,1.1,0.7,1.8c0,0.6-0.3,1.3-0.8,1.7c-0.1,0.1-0.5,0.3-0.6,0.4c-0.1,0.1,0.1,1.6,0.3,1.6c1.4,0.4,1.1,1.5,1.1,1.8
						c-0.2,1.1-0.9,0.7-1.4,1.2c-0.1,0.1,0.3,0.3,0.4,0.5c0.2,0.4,0.5,0.9,0.4,1.4c0,0.5-0.3,0.8-0.8,1c-0.2,0.1-0.4,0.1-0.6,0.1
						c0,0-0.1,0-0.2,0c0,0.4,0.7,1,0.5,1.7c-0.2,0.8-1.1,0.8-1.7,0.5c-0.1-0.1-0.4-0.4-0.4-0.4c-0.2,0-0.1,0.3-0.3,0.5
						c-0.3,0.4-0.7,0.6-1.2,0.4c-0.4-0.2-0.7-0.8-0.8-1.2c-0.1-0.3-0.1-0.6-0.1-0.9c0-1.5,1-1.7,1.5-3.2c0.3-0.8-0.6-4.3-1.5-4.7
						c-0.7-0.3-1.4,0.3-1.7,0.8c-0.7,1.1-0.3,2.3-1,3.4c-0.3,0.6-1.3,1.3-2,0.7c-1.3-1.3,0.2-3.1,1.2-4.1
						C-2112.1,63.3-2113.8,63.1-2113.8,63.1z"/>
				</g>
				<g>
					<g transform="matrix(1.00134,0,0,1.00134,2048.56,-2.73507)">
						
							<linearGradient id="SVGID_24_" gradientUnits="userSpaceOnUse" x1="-2325.0122" y1="271.5927" x2="-2340.5962" y2="283.049" gradientTransform="matrix(0.8539 0.5204 -0.5204 0.8539 227.3002 1091.243)">
							<stop  offset="0" style="stop-color:#9ED6E5"/>
							<stop  offset="1" style="stop-color:#EAF5F5"/>
						</linearGradient>
						<path class="st23" d="M-1923.4,124.1c0,0,5.5-16.3,8.8-20.1c3.3-3.8,9.8,0.1,7.2,6c-1.7,3.8-6.6,10.8-9.8,15.1
							c-0.7,0.9-1.7,1.4-2.9,1.4c-1.1,0-2.2-0.6-2.8-1.5C-1923.2,124.5-1923.4,124.1-1923.4,124.1z"/>
					</g>
					<g transform="matrix(0.947368,0,0,0.947368,2121.33,21.5541)">
						
							<linearGradient id="SVGID_25_" gradientUnits="userSpaceOnUse" x1="-2795.2773" y1="-182.3224" x2="-2794.7424" y2="-182.3224" gradientTransform="matrix(32.4123 12.5598 12.5598 -32.4123 90782.0547 29301.4102)">
							<stop  offset="0" style="stop-color:#E5A580"/>
							<stop  offset="1" style="stop-color:#C68010"/>
						</linearGradient>
						<path class="st24" d="M-2104.6,91.6c3.4-0.1,7.7,0.9,8.7,4.1c-2.7,5.1-6.3,9.3-9,12.8c-0.8,1.1-2.2,1.6-3.5,1.3
							c-4.2-0.9-13.3-2.7-15.9-3.3c-0.5-0.1-0.9,0-1.4,0.2c-1.1,0.7-3.4,2.1-3.4,2.1l-3.3-2.2c0,0,2.8-2.1,4.1-3
							c0.4-0.3,0.8-0.4,1.3-0.3c3.3,0.3,17.3,1.8,17.3,1.8S-2107.7,98.2-2104.6,91.6z"/>
					</g>
				</g>
			</g>
		</g>
	</g>
	<g>
		
			<linearGradient id="SVGID_26_" gradientUnits="userSpaceOnUse" x1="-255.9644" y1="126.537" x2="-131.7113" y2="126.537" gradientTransform="matrix(-1 0 0 1 -110.2019 0)">
			<stop  offset="0" style="stop-color:#404040"/>
			<stop  offset="1" style="stop-color:#000000"/>
		</linearGradient>
		<path class="st25" d="M23.6,129h120.1c1.1,0,2.1-0.9,2.1-2.1v-0.8c0-1.1-0.9-2.1-2.1-2.1H23.6c-1.1,0-2.1,0.9-2.1,2.1v0.8
			C21.5,128.1,22.4,129,23.6,129z"/>
		
			<linearGradient id="SVGID_27_" gradientUnits="userSpaceOnUse" x1="-193.8379" y1="122.5037" x2="-193.8379" y2="130.1294" gradientTransform="matrix(-1 0 0 1 -110.2019 0)">
			<stop  offset="0" style="stop-color:#E7A680"/>
			<stop  offset="1" style="stop-color:#1DB3C2"/>
		</linearGradient>
		<path class="st26" d="M19.3,127.4H148c1.1,0,2.1-0.9,2.1-2.1v-0.8c0-1.1-0.9-2.1-2.1-2.1H19.3c-1.1,0-2.1,0.9-2.1,2.1v0.8
			C17.2,126.5,18.1,127.4,19.3,127.4z"/>
	</g>
	<g>
		
			<linearGradient id="SVGID_28_" gradientUnits="userSpaceOnUse" x1="-197.4862" y1="109.6815" x2="-239.6202" y2="109.17" gradientTransform="matrix(-1 0 0 1 -110.2019 0)">
			<stop  offset="0" style="stop-color:#E7A680"/>
			<stop  offset="1" style="stop-color:#1DB3C2"/>
		</linearGradient>
		<path class="st27" d="M71.1,97.7H106c1.2,0,2.2,0.7,2.7,1.8l9.5,22.1H78.9L69.6,100C69.1,98.9,69.9,97.7,71.1,97.7z"/>
		
			<linearGradient id="SVGID_29_" gradientUnits="userSpaceOnUse" x1="-141.7787" y1="97.6812" x2="-141.7787" y2="134.4246" gradientTransform="matrix(-1 0 0.4315 1 -96.4155 8.678341e-05)">
			<stop  offset="0" style="stop-color:#564864"/>
			<stop  offset="1" style="stop-color:#1DB3C2"/>
		</linearGradient>
		<path class="st28" d="M70.3,97.7h34.9c1.2,0,2.2,0.7,2.7,1.8l9.5,22.1H78.1L68.8,100C68.4,98.9,69.2,97.7,70.3,97.7z"/>
	</g>
	
		<linearGradient id="SVGID_30_" gradientUnits="userSpaceOnUse" x1="-218.4146" y1="118.751" x2="-217.5541" y2="139.7336" gradientTransform="matrix(-1 0 0 1 -110.2019 0)">
		<stop  offset="0" style="stop-color:#564864"/>
		<stop  offset="1" style="stop-color:#1DB3C2"/>
	</linearGradient>
	<polygon class="st29" points="138,122.5 78.1,122.5 78.1,121.5 138,121.5 	"/>
	<g>
		<g transform="matrix(1.01336,0,0,0.947368,2027.71,21.5541)">
			
				<linearGradient id="SVGID_31_" gradientUnits="userSpaceOnUse" x1="-2155.0125" y1="92.7712" x2="-2151.5186" y2="92.7712" gradientTransform="matrix(-1 0 0 1 -4110.7026 0)">
				<stop  offset="0" style="stop-color:#282451"/>
				<stop  offset="1" style="stop-color:#1D8BB0"/>
			</linearGradient>
			<path class="st30" d="M-1957.4,95.3C-1957.4,95.3-1957.4,95.3-1957.4,95.3c0-0.1,0-0.2,0-0.2c0-0.1,0-0.3,0-0.4
				c0-0.4-0.1-0.6-0.3-1c-0.5-1-1.2-1.4-1.4-2.6c-0.1-0.4-0.1-1.1,0.3-1.2c0.7-0.2,1,0.8,1.1,1.3c0.2,0.6,0.2,0.8,0.5,1.4
				c0.2,0.4,0.5,0.5,0.8,0.9c0.5,0.6,0.6,1.4,0.6,2.2"/>
		</g>
		<g transform="matrix(0.947368,0,0,0.947368,2121.33,21.5541)">
			
				<linearGradient id="SVGID_32_" gradientUnits="userSpaceOnUse" x1="-2406.1069" y1="92.0304" x2="-2401.95" y2="92.0304" gradientTransform="matrix(-1 0 0 1 -4594.6899 0)">
				<stop  offset="0" style="stop-color:#282451"/>
				<stop  offset="1" style="stop-color:#1D8BB0"/>
			</linearGradient>
			<path class="st31" d="M-2192.3,94.7c0,0,0-0.1,0-0.1c0-0.2,0-0.3,0-0.5c0-0.5,0.2-0.7,0-2.1c-0.2-1.5-0.5-2.1-0.5-2.5
				c-0.1-0.5-0.3-1.2,0.4-1.4c0.4-0.1,0.9,0.2,1.1,0.5c0.7,0.8,1.1,1.9,1.2,3c0,0.4,0.1,0.8,0,1.2c0,0.1,0,0.3-0.1,0.4
				c0,0.1-0.1,0.2,0,0.2c0.1-0.1,0.8-1.1,1.3-0.8c0.8,0.4,0.2,2.3-0.2,3c0,0-0.4,0.8-0.5,0.8"/>
		</g>
		<g transform="matrix(0.947368,0,0,0.947368,2121.33,21.5541)">
			
				<linearGradient id="SVGID_33_" gradientUnits="userSpaceOnUse" x1="-2407.3203" y1="93.3778" x2="-2404.2273" y2="93.3778" gradientTransform="matrix(-1 0 0 1 -4594.6899 0)">
				<stop  offset="0" style="stop-color:#282451"/>
				<stop  offset="1" style="stop-color:#1D8BB0"/>
			</linearGradient>
			<path class="st32" d="M-2190.6,95.6c0.1-0.1,0.2-0.1,0.3-0.2c0.4-0.2,0.6-0.5,0.8-0.9c0.4-0.9,0-2,0.5-2.9
				c0.2-0.3,0.7-0.8,1.1-0.6c0.4,0.2,0.5,0.7,0.6,1.1c0.1,1.1-0.5,2.5-1.4,3.2c-0.4,0.2-0.8,0.4-1.3,0.4c0,0-0.1,0-0.1,0"/>
		</g>
		<g transform="matrix(0.947368,0,0,0.947368,2121.33,21.5541)">
			
				<linearGradient id="SVGID_34_" gradientUnits="userSpaceOnUse" x1="-2410.6101" y1="94.8906" x2="-2405.8699" y2="94.8906" gradientTransform="matrix(-1 0 0 1 -4594.6899 0)">
				<stop  offset="0" style="stop-color:#282451"/>
				<stop  offset="1" style="stop-color:#1D8BB0"/>
			</linearGradient>
			<path class="st33" d="M-2189.1,97.3c0.2,0,0.3-0.2,0.5-0.4c0.7-0.7,1-1.5,1.4-2.4c0.2-0.5,0.3-1,0.7-1.5c0.6-0.6,1.5-1,2.2-0.3
				c0.7,0.7,0,1.6-0.5,2.1c-0.3,0.3-0.6,0.5-0.8,0.8c-0.7,0.8-1.2,1.5-2.4,1.6C-2188.4,97.4-2188.7,97.5-2189.1,97.3"/>
		</g>
		<g transform="matrix(0.947368,0,0,0.947368,2143.62,33.3533)">
			
				<linearGradient id="SVGID_35_" gradientUnits="userSpaceOnUse" x1="-2791.8245" y1="-145.8149" x2="-2791.7488" y2="-145.8149" gradientTransform="matrix(16.0015 -53.2095 53.2095 16.0015 50214.9219 -146135.25)">
				<stop  offset="0" style="stop-color:#282451"/>
				<stop  offset="1" style="stop-color:#1D8BB0"/>
			</linearGradient>
			<path class="st34" d="M-2215.2,83.5c0,0,0-0.2,0-0.2c0-0.2-0.1-0.3-0.1-0.5c-0.2-0.4-0.4-0.8-0.8-1c-0.7-0.4-1.8-0.1-2.5,0.3
				c-0.2,0.1-0.3,0.3-0.4,0.5c-0.1,0.2-0.2,0.3-0.3,0.5c-0.1,0.7,0.1,1.5,0.9,1.7c0.2,0.1,0.5,0.1,0.7,0c0.6-0.3,0.9-0.9,1.4-1.2
				c0.2-0.2,0.7-0.5,0.9-0.2C-2215.4,83.3-2215.2,83.5-2215.2,83.5z"/>
		</g>
		<g transform="matrix(1.01336,0,0,0.947368,2027.71,21.5541)">
			
				<linearGradient id="SVGID_36_" gradientUnits="userSpaceOnUse" x1="-2159.7922" y1="93.7218" x2="-2156.2983" y2="93.7218" gradientTransform="matrix(-1 0 0 1 -4110.7026 0)">
				<stop  offset="0" style="stop-color:#282451"/>
				<stop  offset="1" style="stop-color:#1D8BB0"/>
			</linearGradient>
			<path class="st35" d="M-1952.6,96.3C-1952.6,96.3-1952.7,96.2-1952.6,96.3c0-0.1,0-0.2,0-0.2c0-0.1,0-0.3,0-0.4
				c0-0.4,0.1-0.6,0.3-1c0.5-1,1.2-1.4,1.4-2.6c0.1-0.4,0.1-1.1-0.3-1.2c-0.7-0.2-1,0.8-1.1,1.3c-0.2,0.6-0.2,0.8-0.5,1.4
				c-0.2,0.4-0.5,0.5-0.8,0.9c-0.5,0.6-0.6,1.4-0.6,2.2"/>
		</g>
		<g transform="matrix(0.947368,0,0,0.947368,2121.33,21.5541)">
			
				<linearGradient id="SVGID_37_" gradientUnits="userSpaceOnUse" x1="-2404.2646" y1="95.7463" x2="-2404.8608" y2="89.3544" gradientTransform="matrix(-1 0 0 1 -4594.6899 0)">
				<stop  offset="0" style="stop-color:#282451"/>
				<stop  offset="1" style="stop-color:#1D8BB0"/>
			</linearGradient>
			<path class="st36" d="M-2188.5,95.8c0,0,0-0.1,0-0.1c0-0.2,0-0.3,0-0.5c0-0.5-0.2-0.7,0-2.1c0.2-1.5,0.5-2.1,0.5-2.5
				c0.1-0.5,0.3-1.2-0.4-1.4c-0.4-0.1-0.9,0.2-1.1,0.5c-0.7,0.8-1.1,1.9-1.2,3c0,0.4-0.1,0.8,0,1.2c0,0.1,0,0.3,0.1,0.4
				c0,0.1,0.1,0.2,0,0.2c-0.1-0.1-0.8-1.1-1.3-0.8c-0.8,0.4-0.2,2.3,0.2,3c0,0,0.4,0.8,0.5,0.8"/>
		</g>
		<g transform="matrix(0.947368,0,0,0.947368,2121.33,21.5541)">
			
				<linearGradient id="SVGID_38_" gradientUnits="userSpaceOnUse" x1="-2405.1731" y1="95.1774" x2="-2402.0801" y2="95.1774" gradientTransform="matrix(-1 0 0 1 -4594.6899 0)">
				<stop  offset="0" style="stop-color:#282451"/>
				<stop  offset="1" style="stop-color:#1D8BB0"/>
			</linearGradient>
			<path class="st37" d="M-2189.5,97.4c-0.1-0.1-0.2-0.1-0.3-0.2c-0.4-0.2-0.6-0.5-0.8-0.9c-0.4-0.9,0-2-0.5-2.9
				c-0.2-0.3-0.7-0.8-1.1-0.6c-0.4,0.2-0.5,0.7-0.6,1.1c-0.1,1.1,0.5,2.5,1.4,3.2c0.4,0.2,0.8,0.4,1.3,0.4c0,0,0.1,0,0.1,0"/>
		</g>
		<g transform="matrix(0.947368,0,0,0.947368,2121.33,21.5541)">
			
				<linearGradient id="SVGID_39_" gradientUnits="userSpaceOnUse" x1="-2404.2234" y1="94.5472" x2="-2398.2542" y2="94.5472" gradientTransform="matrix(-1 0 0 1 -4594.6899 0)">
				<stop  offset="0" style="stop-color:#282451"/>
				<stop  offset="1" style="stop-color:#1D8BB0"/>
			</linearGradient>
			<path class="st38" d="M-2190.5,95.6c-0.2,0-0.4-0.1-0.6-0.1c-0.9-0.3-1.6-0.9-2.3-1.5c-0.4-0.4-0.7-0.8-1.3-1
				c-0.8-0.3-1.8-0.2-2.1,0.7c-0.3,0.9,0.7,1.4,1.4,1.6c0.4,0.1,0.8,0.2,1.1,0.4c1,0.4,1.7,0.8,2.8,0.4c0.3-0.1,0.7-0.2,0.8-0.4"/>
		</g>
		<g transform="matrix(0.947368,0,0,0.947368,2143.62,33.3533)">
			
				<linearGradient id="SVGID_40_" gradientUnits="userSpaceOnUse" x1="-2431.5303" y1="82.5668" x2="-2435.0408" y2="85.2991" gradientTransform="matrix(-1 0 0 1 -4641.7466 0)">
				<stop  offset="0" style="stop-color:#282451"/>
				<stop  offset="1" style="stop-color:#1D8BB0"/>
			</linearGradient>
			<path class="st39" d="M-2211,84c0,0,0-0.2,0-0.2c0-0.2,0.1-0.3,0.1-0.5c0.2-0.4,0.4-0.8,0.8-1c0.7-0.4,1.8-0.1,2.5,0.3
				c0.2,0.1,0.3,0.3,0.4,0.5c0.1,0.2,0.2,0.3,0.3,0.5c0.1,0.7-0.1,1.5-0.9,1.7c-0.2,0.1-0.5,0.1-0.7,0c-0.6-0.3-0.9-0.9-1.4-1.2
				c-0.2-0.2-0.7-0.5-0.9-0.2C-2210.8,83.8-2211,84-2211,84z"/>
		</g>
	</g>
	
		<linearGradient id="SVGID_41_" gradientUnits="userSpaceOnUse" x1="-156.748" y1="112.6789" x2="-156.748" y2="121.7426" gradientTransform="matrix(-1 0 0 1 -110.2019 0)">
		<stop  offset="0" style="stop-color:#E7A680"/>
		<stop  offset="1" style="stop-color:#93691B"/>
	</linearGradient>
	<polygon class="st40" points="41.2,122.4 51.9,122.4 53.4,112.4 39.7,112.4 	"/>
	
		<rect x="33.1" y="49.9" transform="matrix(-1 -4.486423e-11 4.486423e-11 -1 137.7853 101.9497)" class="st256" width="71.7" height="2.2"/>
</g>
</svg>
