<?xml version="1.0" standalone="no"?>
<!DOCTYPE svg PUBLIC "-//W3C//DTD SVG 20010904//EN"
 "http://www.w3.org/TR/2001/REC-SVG-20010904/DTD/svg10.dtd">
<svg version="1.0" xmlns="http://www.w3.org/2000/svg"
 width="705.000000pt" height="705.000000pt" viewBox="0 0 705.000000 705.000000"
 preserveAspectRatio="xMidYMid meet">
<metadata>
Created by potrace 1.11, written by Peter Selinger 2001-2013
</metadata>
<g transform="translate(0.000000,705.000000) scale(0.100000,-0.100000)"
fill="#000000" stroke="none">
<path d="M1459 5136 c-2 -2 -28 -7 -58 -10 -477 -57 -927 -356 -1180 -782 -83
-141 -159 -337 -187 -484 -2 -14 -7 -31 -9 -38 -19 -54 -27 -364 -12 -497 4
-38 19 -117 33 -174 113 -471 433 -864 875 -1074 124 -59 185 -81 204 -73 9 3
13 2 10 -4 -5 -8 35 -23 95 -34 14 -2 25 -5 25 -6 0 -1 11 -4 25 -6 14 -2 61
-11 105 -18 65 -12 253 -15 1023 -15 l943 -1 -2 220 c-1 195 -4 227 -22 276
-27 73 -95 147 -171 187 l-61 32 -710 2 c-390 1 -735 4 -765 7 -249 24 -550
195 -726 411 -49 59 -124 185 -124 206 0 8 -4 19 -8 25 -26 28 -46 144 -46
254 1 144 19 228 79 366 81 184 275 373 458 447 101 41 109 44 133 46 8 0 13
4 11 9 -3 4 14 8 36 9 84 4 1189 5 1192 1 2 -2 5 -251 7 -554 l3 -549 33 -67
c49 -101 148 -178 250 -194 20 -4 126 -7 235 -8 l198 -1 -3 920 -3 920 -27 56
c-36 72 -92 129 -165 165 l-58 29 -816 2 c-449 1 -818 1 -820 -1z"/>
<path d="M3702 4908 c4 -249 5 -252 62 -338 40 -60 59 -75 136 -113 l65 -32
695 -2 c382 -1 727 -4 765 -7 110 -9 284 -65 377 -123 21 -13 40 -23 43 -23
18 0 167 -114 229 -176 182 -179 267 -371 261 -590 -8 -297 -158 -563 -411
-730 -46 -30 -87 -54 -92 -54 -4 0 -26 -9 -48 -19 -21 -10 -59 -24 -84 -31
-25 -7 -49 -15 -54 -18 -5 -3 -26 -7 -45 -8 -28 -2 -1117 -6 -1168 -4 -10 0
-13 144 -13 685 0 645 -1 685 -17 686 -74 4 -400 0 -430 -6 -97 -18 -196 -98
-242 -195 l-26 -55 0 -790 0 -790 27 -56 c36 -72 94 -131 166 -166 l57 -28
820 0 c451 0 843 4 870 8 28 4 66 10 85 12 19 3 75 16 125 30 283 77 511 210
721 420 133 133 219 250 299 410 128 253 175 465 169 755 -1 91 -5 174 -7 185
-2 11 -7 40 -11 65 -9 58 -54 229 -66 255 -5 11 -19 45 -30 75 -71 185 -218
401 -383 559 -128 123 -343 261 -499 321 -29 11 -62 24 -73 29 -42 18 -129 40
-137 35 -4 -3 -8 0 -8 6 0 6 -6 10 -12 9 -7 -2 -40 3 -72 10 -33 7 -71 16 -85
19 -14 3 -462 7 -994 9 l-969 4 4 -233z"/>
</g>
</svg>
