<?xml version="1.0" encoding="utf-8"?>
<!-- Generator: Adobe Illustrator 25.0.1, SVG Export Plug-In . SVG Version: 6.00 Build 0)  -->
<svg version="1.1" id="Calque_1" xmlns="http://www.w3.org/2000/svg" xmlns:xlink="http://www.w3.org/1999/xlink" x="0px" y="0px"
	 viewBox="0 0 179.9 153.2" style="enable-background:new 0 0 179.9 153.2;" xml:space="preserve">
<style type="text/css">
	.st0{fill:url(#SVGID_1_);}
	.st1{fill:url(#SVGID_2_);}
	.st2{fill:url(#SVGID_3_);}
	.st3{fill:url(#SVGID_4_);}
	.st4{fill:url(#SVGID_5_);}
	.st5{fill:url(#SVGID_6_);}
	.st6{fill:url(#SVGID_7_);}
	.st7{fill:url(#SVGID_8_);}
	.st8{fill:url(#SVGID_9_);}
	.st9{fill:url(#SVGID_10_);}
	.st10{fill:url(#SVGID_11_);}
	.st11{fill:url(#SVGID_12_);}
	.st12{fill:url(#SVGID_13_);}
	.st13{fill:url(#SVGID_14_);}
	.st14{fill:url(#SVGID_15_);}
	.st15{fill:url(#SVGID_16_);}
	.st16{fill:url(#SVGID_17_);}
	.st17{fill:url(#SVGID_18_);}
	.st18{fill:url(#SVGID_19_);}
	.st19{fill:url(#SVGID_20_);}
	.st20{fill:url(#SVGID_21_);}
	.st21{fill:url(#SVGID_22_);}
	.st22{fill:url(#SVGID_23_);}
	.st23{fill:url(#SVGID_24_);}
	.st24{fill:url(#SVGID_25_);}
	.st25{fill:url(#SVGID_26_);}
	.st26{fill:url(#SVGID_27_);}
	.st27{fill:url(#SVGID_28_);}
	.st28{fill:url(#SVGID_29_);}
	.st29{fill:url(#SVGID_30_);}
	.st30{fill:url(#SVGID_31_);}
	.st31{fill:url(#SVGID_32_);}
	.st32{fill:url(#SVGID_33_);}
	.st33{fill:url(#SVGID_34_);}
	.st34{fill:url(#SVGID_35_);}
	.st35{fill:url(#SVGID_36_);}
	.st36{fill:url(#SVGID_37_);}
	.st37{fill:url(#SVGID_38_);}
	.st38{fill:url(#SVGID_39_);}
	.st39{fill:url(#SVGID_40_);}
	.st40{fill:url(#SVGID_41_);}
	.st41{fill:url(#SVGID_42_);}
	.st42{clip-path:url(#SVGID_45_);}
	.st43{fill:url(#SVGID_46_);}
	.st44{fill:url(#SVGID_47_);}
	.st45{fill:url(#SVGID_48_);}
	.st46{fill:url(#SVGID_49_);}
	.st47{clip-path:url(#SVGID_52_);}
	.st48{fill:url(#SVGID_53_);}
	.st49{clip-path:url(#SVGID_56_);}
	.st50{fill:url(#SVGID_57_);}
	.st51{fill:url(#SVGID_58_);}
	.st52{fill:url(#SVGID_59_);}
	.st53{fill:url(#SVGID_60_);}
	.st54{fill:url(#SVGID_61_);}
	.st55{fill:#E83189;}
	.st56{clip-path:url(#SVGID_64_);}
	.st57{fill:url(#SVGID_65_);}
	.st58{fill:#272252;}
	.st59{fill:url(#SVGID_66_);}
	.st60{fill:url(#SVGID_67_);}
	.st61{fill:url(#SVGID_68_);}
	.st62{fill:url(#SVGID_69_);}
	.st63{fill:url(#SVGID_70_);}
	.st64{fill:url(#SVGID_71_);}
	.st65{fill:url(#SVGID_72_);}
	.st66{fill:url(#SVGID_73_);}
	.st67{fill:url(#SVGID_74_);}
	.st68{fill:url(#SVGID_75_);}
	.st69{fill:url(#SVGID_76_);}
	.st70{fill:url(#SVGID_77_);}
	.st71{fill:url(#SVGID_78_);}
	.st72{fill:#FFFFFF;}
	.st73{fill:url(#SVGID_79_);}
	.st74{fill:url(#SVGID_80_);}
	.st75{fill:url(#SVGID_81_);}
	.st76{fill:url(#SVGID_82_);}
	.st77{fill:url(#SVGID_83_);}
	.st78{fill:url(#SVGID_84_);}
	.st79{fill:url(#SVGID_85_);}
	.st80{fill:url(#SVGID_86_);}
	.st81{fill:url(#SVGID_87_);}
	.st82{fill:url(#SVGID_88_);}
	.st83{fill:url(#SVGID_89_);}
	.st84{fill:url(#SVGID_90_);}
	.st85{fill:url(#SVGID_91_);}
	.st86{fill:url(#SVGID_92_);}
	.st87{fill:url(#SVGID_93_);}
	.st88{fill:url(#SVGID_94_);}
	.st89{fill:url(#SVGID_95_);}
	.st90{fill:url(#SVGID_96_);}
	.st91{fill:url(#SVGID_97_);}
	.st92{fill:url(#SVGID_98_);}
	.st93{fill:url(#SVGID_99_);}
	.st94{fill:url(#SVGID_100_);}
	.st95{fill:url(#SVGID_101_);}
	.st96{fill:url(#SVGID_102_);}
	.st97{fill:url(#SVGID_103_);}
	.st98{fill:url(#SVGID_104_);}
	.st99{fill:url(#SVGID_105_);}
	.st100{fill:url(#SVGID_106_);}
	.st101{fill:url(#SVGID_107_);}
	.st102{fill:url(#SVGID_108_);}
	.st103{fill:url(#SVGID_109_);}
	.st104{fill:url(#SVGID_110_);}
	.st105{fill:url(#SVGID_111_);}
	.st106{fill:url(#SVGID_112_);}
	.st107{fill:url(#SVGID_113_);}
	.st108{fill:url(#SVGID_114_);}
	.st109{fill:url(#SVGID_115_);}
	.st110{fill:url(#SVGID_116_);}
	.st111{fill:url(#SVGID_117_);}
	.st112{fill:url(#SVGID_118_);}
	.st113{fill:url(#SVGID_119_);}
	.st114{fill:url(#SVGID_120_);}
	.st115{clip-path:url(#SVGID_123_);}
	.st116{fill:url(#SVGID_124_);}
	.st117{fill:url(#SVGID_125_);}
	.st118{fill:url(#SVGID_126_);}
	.st119{fill:url(#SVGID_127_);}
	.st120{clip-path:url(#SVGID_130_);}
	.st121{fill:url(#SVGID_131_);}
	.st122{clip-path:url(#SVGID_134_);}
	.st123{fill:url(#SVGID_135_);}
	.st124{fill:url(#SVGID_136_);}
	.st125{fill:url(#SVGID_137_);}
	.st126{fill:url(#SVGID_138_);}
	.st127{fill:url(#SVGID_139_);}
	.st128{fill:#F8C5D1;}
	.st129{clip-path:url(#SVGID_142_);}
	.st130{fill:url(#SVGID_143_);}
	.st131{fill:url(#SVGID_144_);}
	.st132{fill:url(#SVGID_145_);}
	.st133{fill:url(#SVGID_146_);}
	.st134{fill:url(#SVGID_147_);}
	.st135{fill:url(#SVGID_148_);}
	.st136{fill:url(#SVGID_149_);}
	.st137{fill:url(#SVGID_150_);}
	.st138{fill:url(#SVGID_151_);}
	.st139{fill:url(#SVGID_152_);}
	.st140{fill:url(#SVGID_153_);}
	.st141{fill:url(#SVGID_154_);}
	.st142{fill:url(#SVGID_155_);}
	.st143{fill:url(#SVGID_156_);}
	.st144{fill:url(#SVGID_157_);}
	.st145{fill:url(#SVGID_158_);}
	.st146{fill:url(#SVGID_159_);}
	.st147{fill:url(#SVGID_160_);}
</style>
<g transform="matrix(1.01336,0,0,0.947368,2027.71,21.5541)">
	<path class="st58" d="M-1863.7,97.8c-0.1,0.3-0.1-0.5-0.2-0.8c-0.1-0.5-0.1-1-0.1-1.4c-0.1-1.4,0-2.8,0.2-4.1
		c0.5-4,0.8-6.3,2.7-9.9c5.7-10.5,12.8-14.4,14.8-26.6c0.6-3.8,1.1-11.1-3.5-12.8c-7-2.6-10.2,8.7-11.4,13.3
		c-1.7,6.4-2.2,8.2-5.7,13.9c-2.5,4-5,5.5-8,9.1c-5.4,6.4-6.4,14.8-6.4,22.8"/>
</g>
<g transform="matrix(0.947368,0,0,0.947368,2121.33,21.5541)">
	<path class="st58" d="M-2098.7,96c0,0.4-0.4-1.3-0.4-1.5c-0.1-1.7,0-3.5,0-5.2c0-4.7-2.1-7.2,0.2-21.8c2.5-15.6,4.9-21.3,5.6-26.2
		c0.8-5.3,3.3-12-4.3-14.5c-4.2-1.4-9.1,2.3-11.7,5.2c-7.3,8.3-11.1,19.4-11.9,30.4c-0.3,4.2-0.5,8.4,0,12.6
		c0.2,1.4,0.4,2.8,0.6,4.2c0,0.5,0.6,2,0.2,1.6c-1.4-1.4-8.4-11.4-13.3-8.7c-7.8,4.5-1.7,23.4,1.9,31.2c0.2,0.5,4.6,7.9,4.7,7.9"/>
</g>
<g transform="matrix(0.947368,0,0,0.947368,2121.33,21.5541)">
	<path class="st58" d="M-2131.3,112.4c-0.9-0.9-2.4-1.3-3.5-2c-3.7-2.3-6.4-5.1-8.1-9.1c-4.1-9.5-0.5-20.5-5-30
		c-1.6-3.5-6.9-8-11.1-6.1c-4.3,1.9-5.5,6.8-5.9,11c-0.8,11.6,4.8,26,14.8,32.7c3.7,2.5,8.7,4.4,13.2,4.4c0.3,0,1.2,0.2,1.2-0.2"/>
</g>
<g transform="matrix(0.947368,0,0,0.947368,2121.33,21.5541)">
	<path class="st58" d="M-2142.5,113.2c-1.9-0.5-3.6-2.5-4.8-3.8c-6.8-7.2-10.4-15.5-14.1-24.4c-2.2-5.3-2.8-10.6-6.9-15.1
		c-6-6.6-15.8-10.1-22.9-3c-7,7,0.2,16.5,5.4,21.7c2.8,2.8,5.9,5.6,8.4,8.7c7.1,8.7,12.1,15.4,24.3,16.8c2.9,0.3,6.9,1.4,9.7,0"/>
</g>
<g transform="matrix(0.947368,0,0,0.947368,2121.33,21.5541)">
	<g transform="matrix(0.735058,0,0,1,195.107,0)">
		
			<linearGradient id="SVGID_1_" gradientUnits="userSpaceOnUse" x1="-4025.478" y1="208.3692" x2="-4024.6968" y2="208.3692" gradientTransform="matrix(69.7695 -25.163 -46.5714 -69.7694 287282.1875 -86631.1484)">
			<stop  offset="0" style="stop-color:#D1BAD2"/>
			<stop  offset="1" style="stop-color:#A5A4CB"/>
		</linearGradient>
		<path class="st0" d="M-3225.1,102.6c6.1,0,12.4,0.9,17,3.8l0.2,0.2l0.1,0.2l0,0.3l-0.2,0.2l-0.3,0.2c-0.3,0.1-0.3,0.1-0.7,0
			l-0.3-0.1c-2.6-1.7-6-2.7-9.3-3.2c-8-1.2-16.7-0.1-24.3,1.3c-5.6,1.1-11,2.5-16.6,4.7c-4,1.6-7.9,3.4-11.3,5.6
			c-2.6,1.6-5.1,3.4-7.8,5l-0.2,0c0,0-0.2-0.1-0.2-0.1l-0.1-0.1l0.1-0.1c4.5-2.7,8.4-5.8,13.2-8.3c4.6-2.4,9.6-4.3,14.9-5.9
			c3.2-0.9,7.4-1.9,11.3-2.6c4.6-0.8,9.3-1.3,14.1-1.3C-3225.2,102.6-3225.2,102.6-3225.1,102.6z"/>
	</g>
	
		<linearGradient id="SVGID_2_" gradientUnits="userSpaceOnUse" x1="-2763.8538" y1="208.3982" x2="-2763.0728" y2="208.3982" gradientTransform="matrix(69.7694 -34.2327 -34.2327 -69.7694 197751.4688 -79952.1094)">
		<stop  offset="0" style="stop-color:#D1BAD2"/>
		<stop  offset="1" style="stop-color:#A5A4CB"/>
	</linearGradient>
	<path class="st1" d="M-2212,118.4c0.3-0.3-0.7,0-1.6,0.3c-0.9,0.3-1.3,0.4-2.1,0.8c-2.5,1.1-5.5,3.6-3,6.2c2.7,2.9,5.8-3.8,6.3-5.2
		c0.1-0.1,0.6-2.3,0.8-2.3"/>
	
		<linearGradient id="SVGID_3_" gradientUnits="userSpaceOnUse" x1="-2763.8538" y1="208.394" x2="-2763.0728" y2="208.394" gradientTransform="matrix(69.7694 -34.2327 -34.2327 -69.7694 197751.4688 -79952.1094)">
		<stop  offset="0" style="stop-color:#D1BAD2"/>
		<stop  offset="1" style="stop-color:#A5A4CB"/>
	</linearGradient>
	<path class="st2" d="M-2206.1,113.3c-2.3,1.7-3.5,4.7-4.3,7.4c-0.3,1.1-0.6,3.2,1,3.5c1.1,0.2,2.1-0.2,3-0.8c2.5-1.7,2-3.8,1.8-6.7
		c-0.1-0.6-0.4-4.5,0.7-4.6"/>
	
		<linearGradient id="SVGID_4_" gradientUnits="userSpaceOnUse" x1="-2763.8538" y1="208.3947" x2="-2763.0728" y2="208.3947" gradientTransform="matrix(69.7694 -34.2327 -34.2327 -69.7694 197751.4688 -79952.1094)">
		<stop  offset="0" style="stop-color:#D1BAD2"/>
		<stop  offset="1" style="stop-color:#A5A4CB"/>
	</linearGradient>
	<path class="st3" d="M-2197.2,107.8c0-0.3-0.7,1.1-0.8,1.3c-1.3,1.4-6.2,11-1.2,11.3c6.5,0.4,1.5-10.2,3.7-12.7"/>
	
		<linearGradient id="SVGID_5_" gradientUnits="userSpaceOnUse" x1="-2763.8538" y1="208.3704" x2="-2763.0728" y2="208.3704" gradientTransform="matrix(69.7694 -34.2327 -34.2327 -69.7694 197751.4688 -79952.1094)">
		<stop  offset="0" style="stop-color:#D1BAD2"/>
		<stop  offset="1" style="stop-color:#A5A4CB"/>
	</linearGradient>
	<path class="st4" d="M-2186.8,105.2c1.2-1.4-3.1,3.4-3.2,3.5c-1.9,2.1-3.5,4.9-1.8,7.5c0.3,0.5,0.6,0.9,1.2,1.2
		c1,0.4,2.2,0.2,3.1-0.4c4.5-3.3,2.5-9.9,5.4-13.2"/>
	
		<linearGradient id="SVGID_6_" gradientUnits="userSpaceOnUse" x1="-2763.8538" y1="208.3263" x2="-2763.0728" y2="208.3263" gradientTransform="matrix(69.7694 -34.2327 -34.2327 -69.7694 197751.4688 -79952.1094)">
		<stop  offset="0" style="stop-color:#D1BAD2"/>
		<stop  offset="1" style="stop-color:#A5A4CB"/>
	</linearGradient>
	<path class="st5" d="M-2175.2,103.4c0-0.3-0.2-0.2-0.5-0.1c-1.3,0.5-2.4,1.8-3.2,2.9c-1.5,2.1-4,8.5-0.2,9.7
		c3.4,1.1,4.1-6.9,4.7-8.4c0.2-0.4,1.8-4.3,2.4-4.1"/>
	
		<linearGradient id="SVGID_7_" gradientUnits="userSpaceOnUse" x1="-2763.8538" y1="208.4757" x2="-2763.0728" y2="208.4757" gradientTransform="matrix(69.7694 -34.2327 -34.2327 -69.7694 197751.4688 -79952.1094)">
		<stop  offset="0" style="stop-color:#D1BAD2"/>
		<stop  offset="1" style="stop-color:#A5A4CB"/>
	</linearGradient>
	<path class="st6" d="M-2206.9,114.3c-1.1-1-5.7-2.4-7.1-2c-1.6,0.4-3.6,1.5-2.3,3.2c1.9,2.5,6.8-1.2,7.9-0.2"/>
	
		<linearGradient id="SVGID_8_" gradientUnits="userSpaceOnUse" x1="-2763.8538" y1="208.4922" x2="-2763.0728" y2="208.4922" gradientTransform="matrix(69.7694 -34.2327 -34.2327 -69.7694 197751.4688 -79952.1094)">
		<stop  offset="0" style="stop-color:#D1BAD2"/>
		<stop  offset="1" style="stop-color:#A5A4CB"/>
	</linearGradient>
	<path class="st7" d="M-2199.5,109.7c-1.5-0.8-3.1-1.3-4.8-1.6c-0.9-0.1-1.8-0.2-2.7-0.2c-2.4,0-7,1.7-2.3,3.1
		c2.5,0.8,5.7,0.2,7.9-0.7"/>
	
		<linearGradient id="SVGID_9_" gradientUnits="userSpaceOnUse" x1="-2763.8538" y1="208.4997" x2="-2763.0728" y2="208.4997" gradientTransform="matrix(69.7694 -34.2327 -34.2327 -69.7694 197751.4688 -79952.1094)">
		<stop  offset="0" style="stop-color:#D1BAD2"/>
		<stop  offset="1" style="stop-color:#A5A4CB"/>
	</linearGradient>
	<path class="st8" d="M-2191.3,105.9c0.8-1-2.4-2.4-3-2.6c-1.9-0.8-4.3-1.8-6.4-0.9c-3.5,1.4,1.9,3.5,3.1,3.5c1.4,0.1,2.8-0.4,4.1,0
		"/>
	
		<linearGradient id="SVGID_10_" gradientUnits="userSpaceOnUse" x1="-2763.8538" y1="208.4717" x2="-2763.0728" y2="208.4717" gradientTransform="matrix(69.7694 -34.2327 -34.2327 -69.7694 197751.4688 -79952.1094)">
		<stop  offset="0" style="stop-color:#D1BAD2"/>
		<stop  offset="1" style="stop-color:#A5A4CB"/>
	</linearGradient>
	<path class="st9" d="M-2179.2,103.2c-1.8-0.5-4.6-3.1-7.1-3.9c-1.8-0.6-9.7,0.1-5.4,2.9c2.8,1.8,6.9,0.5,9.9,1.3"/>
	
		<linearGradient id="SVGID_11_" gradientUnits="userSpaceOnUse" x1="-2763.8538" y1="208.4131" x2="-2763.0728" y2="208.4131" gradientTransform="matrix(69.7694 -34.2327 -34.2327 -69.7694 197751.4688 -79952.1094)">
		<stop  offset="0" style="stop-color:#D1BAD2"/>
		<stop  offset="1" style="stop-color:#A5A4CB"/>
	</linearGradient>
	<path class="st10" d="M-2169.9,104.1c0.7-0.8-1.3-2.5-1.7-2.9c-1.6-1.5-4.2-3.7-6.6-3.4c-2.3,0.3-0.1,3.1,0.9,3.6
		c0.9,0.4,1.8,0.9,2.8,1.3c1.2,0.5,2.6,1.2,3.8,1.5"/>
	
		<linearGradient id="SVGID_12_" gradientUnits="userSpaceOnUse" x1="-2763.8538" y1="208.3264" x2="-2763.0728" y2="208.3264" gradientTransform="matrix(69.7694 -34.2327 -34.2327 -69.7694 197751.4688 -79952.1094)">
		<stop  offset="0" style="stop-color:#D1BAD2"/>
		<stop  offset="1" style="stop-color:#A5A4CB"/>
	</linearGradient>
	<path class="st11" d="M-2163.5,107.4c-1.1-0.9-2.3-4.5-2.4-6c-0.2-1.8,1.1-3,2.7-1.9c2.8,2-0.4,7,0.7,8"/>
</g>
<g transform="matrix(0.947368,0,0,0.947368,2143.62,33.3533)">
	
		<linearGradient id="SVGID_13_" gradientUnits="userSpaceOnUse" x1="-2787.4995" y1="199.9633" x2="-2786.7185" y2="199.9633" gradientTransform="matrix(-16.0015 -53.2095 -53.2095 16.0015 -36082.0508 -151428.4219)">
		<stop  offset="0" style="stop-color:#272252"/>
		<stop  offset="1" style="stop-color:#E83189"/>
	</linearGradient>
	<path class="st12" d="M-2138.4,97.2c-0.2,0.2,0.1-1.9,0.2-2.3c0.2-1.6,0.7-3.2,1.3-4.7c1.7-4.3,4.2-8.6,8.6-10.7
		c7.7-3.7,19.1-1.5,25.6,3.6c1.7,1.3,2.8,3,4.1,4.7c1.2,1.6,2.3,2.8,2.6,4.8c1.1,7.3-1.3,15.1-8.8,17.4c-2.4,0.7-5.3,0.8-7.6-0.4
		c-6-2.9-9-8.8-14.1-12.7c-2.5-1.9-6.7-4.6-9.6-1.8C-2136.4,95.2-2138.4,97.2-2138.4,97.2z"/>
</g>
</svg>
