<?xml version="1.0" encoding="utf-8"?>
<!-- Generator: Adobe Illustrator 25.0.1, SVG Export Plug-In . SVG Version: 6.00 Build 0)  -->
<svg version="1.1" id="Calque_1" xmlns="http://www.w3.org/2000/svg" xmlns:xlink="http://www.w3.org/1999/xlink" x="0px" y="0px"
	 viewBox="0 0 179.9 153.2" style="enable-background:new 0 0 179.9 153.2;" xml:space="preserve">
<style type="text/css">
	.st0{fill:url(#SVGID_1_);}
	.st1{fill:url(#SVGID_2_);}
	.st2{fill:url(#SVGID_3_);}
	.st3{fill:url(#SVGID_4_);}
	.st4{fill:url(#SVGID_5_);}
	.st5{fill:url(#SVGID_6_);}
	.st6{fill:url(#SVGID_7_);}
	.st7{fill:url(#SVGID_8_);}
	.st8{fill:url(#SVGID_9_);}
	.st9{fill:url(#SVGID_10_);}
	.st10{fill:url(#SVGID_11_);}
	.st11{fill:url(#SVGID_12_);}
	.st12{fill:url(#SVGID_13_);}
	.st13{fill:url(#SVGID_14_);}
	.st14{fill:url(#SVGID_15_);}
	.st15{fill:url(#SVGID_16_);}
	.st16{fill:url(#SVGID_17_);}
	.st17{fill:url(#SVGID_18_);}
	.st18{fill:url(#SVGID_19_);}
	.st19{fill:url(#SVGID_20_);}
	.st20{fill:url(#SVGID_21_);}
	.st21{fill:url(#SVGID_22_);}
	.st22{fill:url(#SVGID_23_);}
	.st23{fill:url(#SVGID_24_);}
	.st24{fill:url(#SVGID_25_);}
	.st25{fill:url(#SVGID_26_);}
	.st26{fill:url(#SVGID_27_);}
	.st27{fill:url(#SVGID_28_);}
	.st28{fill:url(#SVGID_29_);}
	.st29{fill:url(#SVGID_30_);}
	.st30{fill:url(#SVGID_31_);}
	.st31{fill:url(#SVGID_32_);}
	.st32{fill:url(#SVGID_33_);}
	.st33{fill:url(#SVGID_34_);}
	.st34{fill:url(#SVGID_35_);}
	.st35{fill:url(#SVGID_36_);}
	.st36{fill:url(#SVGID_37_);}
	.st37{fill:url(#SVGID_38_);}
	.st38{fill:url(#SVGID_39_);}
	.st39{fill:url(#SVGID_40_);}
	.st40{fill:url(#SVGID_41_);}
	.st41{fill:url(#SVGID_42_);}
	.st42{clip-path:url(#SVGID_45_);}
	.st43{fill:url(#SVGID_46_);}
	.st44{fill:url(#SVGID_47_);}
	.st45{fill:url(#SVGID_48_);}
	.st46{fill:url(#SVGID_49_);}
	.st47{clip-path:url(#SVGID_52_);}
	.st48{fill:url(#SVGID_53_);}
	.st49{clip-path:url(#SVGID_56_);}
	.st50{fill:url(#SVGID_57_);}
	.st51{fill:url(#SVGID_58_);}
	.st52{fill:url(#SVGID_59_);}
	.st53{fill:url(#SVGID_60_);}
	.st54{fill:url(#SVGID_61_);}
	.st55{fill:#E83189;}
	.st56{clip-path:url(#SVGID_64_);}
	.st57{fill:url(#SVGID_65_);}
	.st58{fill:#272252;}
	.st59{fill:url(#SVGID_66_);}
	.st60{fill:url(#SVGID_67_);}
	.st61{fill:url(#SVGID_68_);}
	.st62{fill:url(#SVGID_69_);}
	.st63{fill:url(#SVGID_70_);}
	.st64{fill:url(#SVGID_71_);}
	.st65{fill:url(#SVGID_72_);}
	.st66{fill:url(#SVGID_73_);}
	.st67{fill:url(#SVGID_74_);}
	.st68{fill:url(#SVGID_75_);}
	.st69{fill:url(#SVGID_76_);}
	.st70{fill:url(#SVGID_77_);}
	.st71{fill:url(#SVGID_78_);}
	.st72{fill:#FFFFFF;}
	.st73{fill:url(#SVGID_79_);}
	.st74{fill:url(#SVGID_80_);}
	.st75{fill:url(#SVGID_81_);}
	.st76{fill:url(#SVGID_82_);}
	.st77{fill:url(#SVGID_83_);}
	.st78{fill:url(#SVGID_84_);}
	.st79{fill:url(#SVGID_85_);}
	.st80{fill:url(#SVGID_86_);}
	.st81{fill:url(#SVGID_87_);}
	.st82{fill:url(#SVGID_88_);}
	.st83{fill:url(#SVGID_89_);}
	.st84{fill:url(#SVGID_90_);}
	.st85{fill:url(#SVGID_91_);}
	.st86{fill:url(#SVGID_92_);}
	.st87{fill:url(#SVGID_93_);}
	.st88{fill:url(#SVGID_94_);}
	.st89{fill:url(#SVGID_95_);}
	.st90{fill:url(#SVGID_96_);}
	.st91{fill:url(#SVGID_97_);}
	.st92{fill:url(#SVGID_98_);}
	.st93{fill:url(#SVGID_99_);}
	.st94{fill:url(#SVGID_100_);}
	.st95{fill:url(#SVGID_101_);}
	.st96{fill:url(#SVGID_102_);}
	.st97{fill:url(#SVGID_103_);}
	.st98{fill:url(#SVGID_104_);}
	.st99{fill:url(#SVGID_105_);}
	.st100{fill:url(#SVGID_106_);}
	.st101{fill:url(#SVGID_107_);}
	.st102{fill:url(#SVGID_108_);}
	.st103{fill:url(#SVGID_109_);}
	.st104{fill:url(#SVGID_110_);}
	.st105{fill:url(#SVGID_111_);}
	.st106{fill:url(#SVGID_112_);}
	.st107{fill:url(#SVGID_113_);}
	.st108{fill:url(#SVGID_114_);}
	.st109{fill:url(#SVGID_115_);}
	.st110{fill:url(#SVGID_116_);}
	.st111{fill:url(#SVGID_117_);}
	.st112{fill:url(#SVGID_118_);}
	.st113{fill:url(#SVGID_119_);}
	.st114{fill:url(#SVGID_120_);}
	.st115{clip-path:url(#SVGID_123_);}
	.st116{fill:url(#SVGID_124_);}
	.st117{fill:url(#SVGID_125_);}
	.st118{fill:url(#SVGID_126_);}
	.st119{fill:url(#SVGID_127_);}
	.st120{clip-path:url(#SVGID_130_);}
	.st121{fill:url(#SVGID_131_);}
	.st122{clip-path:url(#SVGID_134_);}
	.st123{fill:url(#SVGID_135_);}
	.st124{fill:url(#SVGID_136_);}
	.st125{fill:url(#SVGID_137_);}
	.st126{fill:url(#SVGID_138_);}
	.st127{fill:url(#SVGID_139_);}
	.st128{fill:#F8C5D1;}
	.st129{clip-path:url(#SVGID_142_);}
	.st130{fill:url(#SVGID_143_);}
	.st131{fill:url(#SVGID_144_);}
	.st132{fill:url(#SVGID_145_);}
	.st133{fill:url(#SVGID_146_);}
	.st134{fill:url(#SVGID_147_);}
	.st135{fill:url(#SVGID_148_);}
	.st136{fill:url(#SVGID_149_);}
	.st137{fill:url(#SVGID_150_);}
	.st138{fill:url(#SVGID_151_);}
	.st139{fill:url(#SVGID_152_);}
	.st140{fill:url(#SVGID_153_);}
	.st141{fill:url(#SVGID_154_);}
	.st142{fill:url(#SVGID_155_);}
	.st143{fill:url(#SVGID_156_);}
	.st144{fill:url(#SVGID_157_);}
	.st145{fill:url(#SVGID_158_);}
	.st146{fill:url(#SVGID_159_);}
	.st147{fill:url(#SVGID_160_);}
</style>
<g transform="matrix(1,0,0,1,-2000,0)">
	<path class="st72" d="M2013.7,139.8c-2.8,1-8.4-11.1-8.6-13.3c-0.5-4.3,3.1-4.7,6.5-4.3c0.3,0,1.6,0.3,1.7-0.3
		c0-1.6-2.6-4.3-3.3-5.7c-2.3-4.4-6.9-16.3-0.5-19.4c2.1-1,4.7-0.4,6.8,0.3c9.7,3.5,15.9,12.1,20.5,20.8c1.6,3,2.7,6.3,3.5,9.6
		c0.3,1.4,0.7,2.8,1.1,4.2c0,0.2,0.1,0.8,0.2,0.6c0.6-1.1-3.1-13.2-1-17.4c1.1-2.3,3.9-0.9,5.4,0.3c0.6,0.5,1.1,1,1.6,1.5
		c0.2,0.2,0.6,1,0.7,0.7c0.6-1.8-5.5-11.1,1.4-11.9c1.4-0.2,5.4,1.6,5.8,1.5c1.1-0.4,0.7-16.6,9.5-12.2c8.4,4.2,11.7,20,13.5,28.3
		c0.7,3.5,1.4,7,1.8,10.5c0,0.1,0.1,1.2,0.1,1.2c0.4,0.1,0-0.7,0-1.1c0-1,0-2,0.1-2.9c0.2-2.5,0.6-5.1,1.3-7.5
		c0.7-2.3,1.8-5.1,4-6.3c1.7-0.9,2.8,0.3,4.3,0c0.1,0,0.2-0.1,0.2-0.2c1-2.8-3.7-10.5-0.4-16.3c3-5.4,10.1-1.2,13.4,1.5
		c1.3,1.1,2.5,2.4,3.7,3.7c0.4,0.4,0.7,0.8,1,1.3c0.2,0.3,0.4,1.1,0.5,0.8c1-3.2,0.3-6.4,2.2-9.5c0.6-1,1.4-1.8,2.5-2.1
		c0.1,0,1.5-0.2,1.5-0.2c0.3-1.5,0-3.3,0-4.9c0.1-3.5,0.5-7,1.4-10.5c0.6-2.4,1.9-8.9,5-9.4c3.5-0.6,2.4,10.6,3.1,11.1
		c0,0,0.6-0.6,0.7-0.6c1.4-1.2,5.3-4.4,7.2-2.7c3.2,2.9-3.5,7.2-4.5,8.9c-0.2,0.3,0.6-0.2,0.9-0.2c0.5-0.1,1-0.2,1.5-0.2
		c1.7,0,3.6,0.4,4.3,2.1c1.3,3.4-3.4,7.1-5.7,8.8c0,0-0.6,0.4-0.6,0.5c0,0,2.1-0.1,2.2-0.1c1.7,0.1,4.5,0.6,5.3,2.2
		c1.4,2.7-2.8,6.5-4.4,8.1c-0.6,0.5-1.1,1-1.7,1.5c-0.4,0.3-1.6,0.7-1.2,0.7c2,0.1,5.2-1.8,6.7,0.7c1.3,2.2-0.7,5.5-1.7,7.4
		c-0.4,0.6-0.7,1.2-1.2,1.8c-0.2,0.4-0.7,1.4-0.8,1c-0.4-2,4-4.5,5.5-4.6c1.3,0,2.6,0.6,3.7,1.3c4.9,2.8,9.3,6.6,14.1,9.6
		c0.9,0.6,1.9,1.2,2.8,1.7c0.1,0,1.5,1,1.6,0.9c0.1-0.1-0.8-1.4-0.8-1.5c-1.9-3.8-5-8.4-4.9-12.8c0-2.4,2.9-2.1,4.5-1.8
		c0.7,0.1,1.3,0.3,2,0.5c0.3,0.1,0.7,0.5,0.8,0.2c0-0.2-8.4-11.6-8.8-14.7c-0.2-1.7,1.9-1.4,3-1.3c0.1,0,1,0.2,1,0
		c-0.2-1-1.4-2.3-1.9-3.2c-1.6-3.1-2.9-6.4-3.5-9.8c-0.2-0.9-0.9-4.7,0.9-4.8c4.4-0.2,6.6,9.4,8.2,10.1c0.1,0,0.6-0.8,0.6-0.9
		c1.2-1.8,4-5.1,6.5-3.9c5.9,2.9,3.1,17.9,4.2,22.6c0.7,3,3.9,5.1,4.4,8.8c0.7,5.2-2.2,10.5-5.4,14.4c-0.9,1.1-2.3,2-3.1,3.2
		c-1,1.7-0.1,3-2.2,5.1c-2.4,2.5-5.6,4.1-8.9,5.1c-7.6,2.2-15.4,1-23.2,0.6c-22.1-1.3-59.6,3.7-81.7,0.7
		C2031.6,145,2013.7,139.8,2013.7,139.8z"/>
</g>
</svg>
