<?xml version="1.0" encoding="utf-8"?>
<!-- Generator: Adobe Illustrator 25.0.1, SVG Export Plug-In . SVG Version: 6.00 Build 0)  -->
<svg version="1.1" id="Calque_1" xmlns="http://www.w3.org/2000/svg" xmlns:xlink="http://www.w3.org/1999/xlink" x="0px" y="0px"
	 viewBox="0 0 179.9 153.2" style="enable-background:new 0 0 179.9 153.2;" xml:space="preserve">
<style type="text/css">
	.st0{fill:url(#SVGID_1_);}
	.st1{fill:url(#SVGID_2_);}
	.st2{fill:url(#SVGID_3_);}
	.st3{fill:url(#SVGID_4_);}
	.st4{fill:url(#SVGID_5_);}
	.st5{fill:url(#SVGID_6_);}
	.st6{fill:url(#SVGID_7_);}
	.st7{fill:url(#SVGID_8_);}
	.st8{fill:url(#SVGID_9_);}
	.st9{fill:url(#SVGID_10_);}
	.st10{fill:url(#SVGID_11_);}
	.st11{fill:url(#SVGID_12_);}
	.st12{fill:url(#SVGID_13_);}
	.st13{fill:url(#SVGID_14_);}
	.st14{fill:url(#SVGID_15_);}
	.st15{fill:url(#SVGID_16_);}
	.st16{fill:url(#SVGID_17_);}
	.st17{fill:url(#SVGID_18_);}
	.st18{fill:url(#SVGID_19_);}
	.st19{fill:url(#SVGID_20_);}
	.st20{fill:url(#SVGID_21_);}
	.st21{fill:url(#SVGID_22_);}
	.st22{fill:url(#SVGID_23_);}
	.st23{fill:url(#SVGID_24_);}
	.st24{fill:url(#SVGID_25_);}
	.st25{fill:url(#SVGID_26_);}
	.st26{fill:url(#SVGID_27_);}
	.st27{fill:url(#SVGID_28_);}
	.st28{fill:url(#SVGID_29_);}
	.st29{fill:url(#SVGID_30_);}
	.st30{fill:url(#SVGID_31_);}
	.st31{fill:url(#SVGID_32_);}
	.st32{fill:url(#SVGID_33_);}
	.st33{fill:url(#SVGID_34_);}
	.st34{fill:url(#SVGID_35_);}
	.st35{fill:url(#SVGID_36_);}
	.st36{fill:url(#SVGID_37_);}
	.st37{fill:url(#SVGID_38_);}
	.st38{fill:url(#SVGID_39_);}
	.st39{fill:url(#SVGID_40_);}
	.st40{fill:url(#SVGID_41_);}
	.st41{fill:url(#SVGID_42_);}
	.st42{clip-path:url(#SVGID_45_);}
	.st43{fill:url(#SVGID_46_);}
	.st44{fill:url(#SVGID_47_);}
	.st45{fill:url(#SVGID_48_);}
	.st46{fill:url(#SVGID_49_);}
	.st47{clip-path:url(#SVGID_52_);}
	.st48{fill:url(#SVGID_53_);}
	.st49{clip-path:url(#SVGID_56_);}
	.st50{fill:url(#SVGID_57_);}
	.st51{fill:url(#SVGID_58_);}
	.st52{fill:url(#SVGID_59_);}
	.st53{fill:url(#SVGID_60_);}
	.st54{fill:url(#SVGID_61_);}
	.st55{fill:#E83189;}
	.st56{clip-path:url(#SVGID_64_);}
	.st57{fill:url(#SVGID_65_);}
	.st58{fill:#272252;}
	.st59{fill:url(#SVGID_66_);}
	.st60{fill:url(#SVGID_67_);}
	.st61{fill:url(#SVGID_68_);}
	.st62{fill:url(#SVGID_69_);}
	.st63{fill:url(#SVGID_70_);}
	.st64{fill:url(#SVGID_71_);}
	.st65{fill:url(#SVGID_72_);}
	.st66{fill:url(#SVGID_73_);}
	.st67{fill:url(#SVGID_74_);}
	.st68{fill:url(#SVGID_75_);}
	.st69{fill:url(#SVGID_76_);}
	.st70{fill:url(#SVGID_77_);}
	.st71{fill:url(#SVGID_78_);}
	.st72{fill:#FFFFFF;}
	.st73{fill:url(#SVGID_79_);}
	.st74{fill:url(#SVGID_80_);}
	.st75{fill:url(#SVGID_81_);}
	.st76{fill:url(#SVGID_82_);}
	.st77{fill:url(#SVGID_83_);}
	.st78{fill:url(#SVGID_84_);}
	.st79{fill:url(#SVGID_85_);}
	.st80{fill:url(#SVGID_86_);}
	.st81{fill:url(#SVGID_87_);}
	.st82{fill:url(#SVGID_88_);}
	.st83{fill:url(#SVGID_89_);}
	.st84{fill:url(#SVGID_90_);}
	.st85{fill:url(#SVGID_91_);}
	.st86{fill:url(#SVGID_92_);}
	.st87{fill:url(#SVGID_93_);}
	.st88{fill:url(#SVGID_94_);}
	.st89{fill:url(#SVGID_95_);}
	.st90{fill:url(#SVGID_96_);}
	.st91{fill:url(#SVGID_97_);}
	.st92{fill:url(#SVGID_98_);}
	.st93{fill:url(#SVGID_99_);}
	.st94{fill:url(#SVGID_100_);}
	.st95{fill:url(#SVGID_101_);}
	.st96{fill:url(#SVGID_102_);}
	.st97{fill:url(#SVGID_103_);}
	.st98{fill:url(#SVGID_104_);}
	.st99{fill:url(#SVGID_105_);}
	.st100{fill:url(#SVGID_106_);}
	.st101{fill:url(#SVGID_107_);}
	.st102{fill:url(#SVGID_108_);}
	.st103{fill:url(#SVGID_109_);}
	.st104{fill:url(#SVGID_110_);}
	.st105{fill:url(#SVGID_111_);}
	.st106{fill:url(#SVGID_112_);}
	.st107{fill:url(#SVGID_113_);}
	.st108{fill:url(#SVGID_114_);}
	.st109{fill:url(#SVGID_115_);}
	.st110{fill:url(#SVGID_116_);}
	.st111{fill:url(#SVGID_117_);}
	.st112{fill:url(#SVGID_118_);}
	.st113{fill:url(#SVGID_119_);}
	.st114{fill:url(#SVGID_120_);}
	.st115{clip-path:url(#SVGID_123_);}
	.st116{fill:url(#SVGID_124_);}
	.st117{fill:url(#SVGID_125_);}
	.st118{fill:url(#SVGID_126_);}
	.st119{fill:url(#SVGID_127_);}
	.st120{clip-path:url(#SVGID_130_);}
	.st121{fill:url(#SVGID_131_);}
	.st122{clip-path:url(#SVGID_134_);}
	.st123{fill:url(#SVGID_135_);}
	.st124{fill:url(#SVGID_136_);}
	.st125{fill:url(#SVGID_137_);}
	.st126{fill:url(#SVGID_138_);}
	.st127{fill:url(#SVGID_139_);}
	.st128{fill:#F8C5D1;}
	.st129{clip-path:url(#SVGID_142_);}
	.st130{fill:url(#SVGID_143_);}
	.st131{fill:url(#SVGID_144_);}
	.st132{fill:url(#SVGID_145_);}
	.st133{fill:url(#SVGID_146_);}
	.st134{fill:url(#SVGID_147_);}
	.st135{fill:url(#SVGID_148_);}
	.st136{fill:url(#SVGID_149_);}
	.st137{fill:url(#SVGID_150_);}
	.st138{fill:url(#SVGID_151_);}
	.st139{fill:url(#SVGID_152_);}
	.st140{fill:url(#SVGID_153_);}
	.st141{fill:url(#SVGID_154_);}
	.st142{fill:url(#SVGID_155_);}
	.st143{fill:url(#SVGID_156_);}
	.st144{fill:url(#SVGID_157_);}
	.st145{fill:url(#SVGID_158_);}
	.st146{fill:url(#SVGID_159_);}
	.st147{fill:url(#SVGID_160_);}
</style>
<g>
	<g transform="matrix(0.654493,0,0,0.654493,2489.42,311.218)">
		<linearGradient id="SVGID_1_" gradientUnits="userSpaceOnUse" x1="-3678.5483" y1="-441.8858" x2="-3643.2366" y2="-340.4152">
			<stop  offset="0" style="stop-color:#D1BAD2"/>
			<stop  offset="1" style="stop-color:#A5A4CB"/>
		</linearGradient>
		<path class="st0" d="M-3632.2-292.7c0-1.1,4.4-6.5,5-7.4c4.1-6,11.7-16.6,9.5-24.4c-2.5-9.3-8.2,3.7-10,6.1
			c-0.5,0.7-2.3,3.1-3.4,2.1c-1.2-1.1-0.1-4.1,0.2-5.3c0.8-3,5.5-14,2.7-16.5c-1.1-1-2.4,1-2.9,1.7c-0.8,1.3-4.2,9.3-6.2,8.6
			c-1.1-0.4-0.9-2.4-0.9-3.3c0.1-3.3,0.8-6.6,0.7-10c0-0.9,0-3.7-1.3-3.9c-2.9-0.5-2.3,8.6-3.6,9.8c-1.6,1.6-5.5-6.9-8.1-5.5
			c-1.3,0.8-0.5,2.9,0.1,3.8c1.1,1.8,7.1,5.8,6.3,8.1c-0.6,1.8-10.5-3.4-10,1.8c0.5,4.6,11.8,2.8,12.5,6.7
			c0.5,2.9-11.5,2.9-10.3,6.1c0.6,1.7,9.7,1.9,11.6,2.3c0.9,0.2,3.5,0.6,3.4,2c-0.1,1.3-2.2,1.8-3.2,2c-2,0.4-10.1,0.3-10.7,2.7
			c-0.5,1.8,5,2.9,6.2,3.3c3.2,1.3,4.4,4,5.5,7.1"/>
	</g>
	<g transform="matrix(0.692991,-0.0214445,0.0214445,0.692991,2331.39,316.141)">
		<linearGradient id="SVGID_2_" gradientUnits="userSpaceOnUse" x1="-3290.241" y1="-505.469" x2="-3254.9292" y2="-403.9984">
			<stop  offset="0" style="stop-color:#D1BAD2"/>
			<stop  offset="1" style="stop-color:#A5A4CB"/>
		</linearGradient>
		<path class="st1" d="M-3299-478.1c10.3,6.6,19.3,15.2,26.8,24.7c9.4,11.8,16.8,25,23.6,38.1c2.7,5.3,5.2,10.7,8,16
			c2.3,4.3,5,8.4,6.4,13.1l0,0.1c0,0.3,0,0.3-0.1,0.5l-0.2,0.2c-0.3,0.2-0.8,0.2-1-0.1c-0.2-0.2-0.2-0.4-0.3-0.7
			c-1.5-4.9-4.5-9.3-6.9-14c-2.9-5.7-5.7-11.5-8.6-17.1c-8.7-16.7-18.3-32.9-31.9-46.3c-5.1-5-10.7-9.5-16.6-13.4l-0.2-0.2
			c-0.1-0.3-0.1-0.3-0.1-0.5l0.1-0.3l0.2-0.2l0.3-0.1l0.3,0C-3299.1-478.2-3299.1-478.2-3299-478.1z"/>
		<linearGradient id="SVGID_3_" gradientUnits="userSpaceOnUse" x1="-3311.3445" y1="-498.8493" x2="-3276.0327" y2="-397.3788">
			<stop  offset="0" style="stop-color:#D1BAD2"/>
			<stop  offset="1" style="stop-color:#A5A4CB"/>
		</linearGradient>
		<path class="st2" d="M-3295.3-474.7c-2.5-1.5-5-11-7.7-14.2c-4.3-5.1-13.6-6.7-12.7,2.5c0.7,6.9,9.7,8.4,15.1,10
			c1.5,0.4,3.4,1.4,5,1.4"/>
		<linearGradient id="SVGID_4_" gradientUnits="userSpaceOnUse" x1="-3292.4763" y1="-504.7678" x2="-3257.1646" y2="-403.2972">
			<stop  offset="0" style="stop-color:#D1BAD2"/>
			<stop  offset="1" style="stop-color:#A5A4CB"/>
		</linearGradient>
		<path class="st3" d="M-3287.7-468.9c-3.2-4.3-3.8-13.9-2.1-19c1.7-5.2,6.1-7.5,7.9-5.4c1.5,1.8,0.4,5.5-0.1,7.4
			c-1.1,4.4-5.3,16.5-2.4,20.8"/>
		<linearGradient id="SVGID_5_" gradientUnits="userSpaceOnUse" x1="-3283.7341" y1="-507.5101" x2="-3248.4224" y2="-406.0395">
			<stop  offset="0" style="stop-color:#D1BAD2"/>
			<stop  offset="1" style="stop-color:#A5A4CB"/>
		</linearGradient>
		<path class="st4" d="M-3276.2-456c0.5-4.8,5-9.1,7-13.3c1.6-3.3,3.5-7.4,2.6-11.2c-0.7-2.8-4-4.1-6.3-2c-1.6,1.5-2.7,3.8-3.4,5.8
			c-0.9,2.8-0.5,5.9-0.5,8.8c0,1.3,0.1,7.6,0.5,8.6"/>
		<linearGradient id="SVGID_6_" gradientUnits="userSpaceOnUse" x1="-3277.7437" y1="-509.3892" x2="-3242.4319" y2="-407.9186">
			<stop  offset="0" style="stop-color:#D1BAD2"/>
			<stop  offset="1" style="stop-color:#A5A4CB"/>
		</linearGradient>
		<path class="st5" d="M-3267.4-445.5c-0.5,0.5,1-0.9,1.8-1.7c1.4-1.3,3-2.5,4.3-3.9c2.7-2.7,10.1-14.3,5.4-17.8
			c-2.9-2.1-6.5-0.3-8.3,2.2c-3.6,4.8-4.5,12.9-3,18.6"/>
		<linearGradient id="SVGID_7_" gradientUnits="userSpaceOnUse" x1="-3273.5391" y1="-510.708" x2="-3238.2273" y2="-409.2374">
			<stop  offset="0" style="stop-color:#D1BAD2"/>
			<stop  offset="1" style="stop-color:#A5A4CB"/>
		</linearGradient>
		<path class="st6" d="M-3257.9-429.4c0.8-1.6,2.4-3,3.7-4.3c2.9-2.9,14.5-14.1,7.7-18.5c-6.2-4-10.5,8.2-11.2,12.2
			c-0.3,1.5-0.3,3.1-0.3,4.6c0,0.6-0.1,2.9-0.1,2.9"/>
		<linearGradient id="SVGID_8_" gradientUnits="userSpaceOnUse" x1="-3268.4209" y1="-512.3135" x2="-3233.1091" y2="-410.8429">
			<stop  offset="0" style="stop-color:#D1BAD2"/>
			<stop  offset="1" style="stop-color:#A5A4CB"/>
		</linearGradient>
		<path class="st7" d="M-3248.1-409.9c-0.3,0,0.9-1.8,0.9-1.9c1.4-2,2.9-4.1,4.6-5.8c3.7-3.7,14.8-15.4,8.1-20.8
			c-1.7-1.3-3.8-1-5.5-0.2c-6.2,3.1-7.5,8.6-8.7,15c-0.1,0.6-1.7,6.3-1.5,6.5"/>
		<linearGradient id="SVGID_9_" gradientUnits="userSpaceOnUse" x1="-3265.1628" y1="-513.3354" x2="-3229.8511" y2="-411.8649">
			<stop  offset="0" style="stop-color:#D1BAD2"/>
			<stop  offset="1" style="stop-color:#A5A4CB"/>
		</linearGradient>
		<path class="st8" d="M-3240.2-396.1c-0.4,0.4,0.8-0.8,1.3-1.2c2.1-1.6,4.1-3.1,6.2-4.6c2.2-1.6,4.3-3.7,5.7-6.1
			c1.5-2.5,5.4-12.1,1.4-14.6c-1.3-0.8-2.7-0.3-4,0.3c-6.4,2.6-9.2,9.1-11,15.3c-0.3,1.2-2,5-0.9,6"/>
		<linearGradient id="SVGID_10_" gradientUnits="userSpaceOnUse" x1="-3308.1165" y1="-499.8619" x2="-3272.8047" y2="-398.3913">
			<stop  offset="0" style="stop-color:#D1BAD2"/>
			<stop  offset="1" style="stop-color:#A5A4CB"/>
		</linearGradient>
		<path class="st9" d="M-3290-470.4c-0.6,0-1.4-0.6-2-0.8c-2.8-0.9-10.1-1.1-13.1,0c-4.8,1.8-8.1,6.5-0.8,7.2
			c3.9,0.4,9.1-0.3,12.7-2c2.9-1.3,4.3-2.3,7.6-2.3"/>
		<linearGradient id="SVGID_11_" gradientUnits="userSpaceOnUse" x1="-3297.1675" y1="-503.2964" x2="-3261.8557" y2="-401.8257">
			<stop  offset="0" style="stop-color:#D1BAD2"/>
			<stop  offset="1" style="stop-color:#A5A4CB"/>
		</linearGradient>
		<path class="st10" d="M-3269.9-448.9c-3-3.4-11.8-8.5-14.5-8.8c-7.6-0.9-10.3,4.2-3.5,7.8c5.1,2.7,9,0.9,14.2,0.6
			C-3272.4-449.4-3271.2-448.9-3269.9-448.9"/>
		<linearGradient id="SVGID_12_" gradientUnits="userSpaceOnUse" x1="-3293.2759" y1="-504.517" x2="-3257.9641" y2="-403.0464">
			<stop  offset="0" style="stop-color:#D1BAD2"/>
			<stop  offset="1" style="stop-color:#A5A4CB"/>
		</linearGradient>
		<path class="st11" d="M-3261.6-437.1c-1.3,0-3.1-2.1-4.2-2.6c-3.1-1.4-6.4-2.3-9.8-2.5c-10.3-0.6-10,8.6-4,10.1
			c3.9,1,6.8-1.4,10.5-2.2c3.4-0.8,6.5,0.1,9.8,0.1"/>
		<linearGradient id="SVGID_13_" gradientUnits="userSpaceOnUse" x1="-3289.5559" y1="-505.684" x2="-3254.2441" y2="-404.2133">
			<stop  offset="0" style="stop-color:#D1BAD2"/>
			<stop  offset="1" style="stop-color:#A5A4CB"/>
		</linearGradient>
		<path class="st12" d="M-3252-419.9c-5.7-2.9-8.6-5.3-15.6-4.7c-7.3,0.7-9.2,4.9-2.6,8.8c4.8,2.8,11,0.8,16.2,1.3
			c2,0.2,3.4,1.4,5.2,2"/>
		<linearGradient id="SVGID_14_" gradientUnits="userSpaceOnUse" x1="-3283.9968" y1="-507.4276" x2="-3248.6851" y2="-405.9571">
			<stop  offset="0" style="stop-color:#D1BAD2"/>
			<stop  offset="1" style="stop-color:#A5A4CB"/>
		</linearGradient>
		<path class="st13" d="M-3242.3-401.1c-4.9-2.1-8.8-4.4-14.3-2.8c-1.5,0.4-4.3,2.2-3.5,4.2c2,4.7,12.8,2.4,16.5,3.6
			c1.5,0.5,3.5,2.6,5.1,2.6"/>
	</g>
	<g transform="matrix(-0.410191,0.853961,-0.853961,-0.410191,4881.68,573.497)">
		<g transform="matrix(0.735058,0,0,1,195.107,0)">
			<linearGradient id="SVGID_15_" gradientUnits="userSpaceOnUse" x1="1964.4817" y1="4789.0088" x2="1999.7935" y2="4687.5381">
				<stop  offset="0" style="stop-color:#D1BAD2"/>
				<stop  offset="1" style="stop-color:#A5A4CB"/>
			</linearGradient>
			<path class="st14" d="M2043.8,4733.7c8.4,0,17.1,1.2,23.5,5.3l0.3,0.3l0.1,0.3l-0.1,0.4l-0.2,0.3l-0.4,0.2
				c-0.5,0.1-0.5,0.1-0.9,0l-0.4-0.2c-3.6-2.3-8.2-3.7-12.9-4.3c-11.1-1.6-23-0.2-33.4,1.9c-7.7,1.5-15.1,3.5-22.9,6.5
				c-5.6,2.2-10.8,4.7-15.6,7.8c-3.6,2.3-7,4.7-10.7,6.9l-0.2,0.1c0,0-0.2-0.1-0.2-0.1l-0.1-0.2l0.1-0.2c6.2-3.7,11.6-8,18.2-11.4
				c6.4-3.3,13.2-6,20.6-8.1c4.4-1.3,10.1-2.6,15.6-3.6c6.4-1.1,12.8-1.8,19.5-1.8C2043.7,4733.7,2043.8,4733.7,2043.8,4733.7z"/>
		</g>
		<linearGradient id="SVGID_16_" gradientUnits="userSpaceOnUse" x1="1626.3615" y1="4776.186" x2="1661.6732" y2="4674.7153">
			<stop  offset="0" style="stop-color:#D1BAD2"/>
			<stop  offset="1" style="stop-color:#A5A4CB"/>
		</linearGradient>
		<path class="st15" d="M1647.2,4755.5c0.4-0.4-1-0.1-2.3,0.3c-1.2,0.4-1.7,0.6-2.9,1.1c-3.4,1.5-7.6,4.9-4.2,8.5
			c3.7,4,8-5.2,8.7-7.2c0.1-0.2,0.8-3.1,1.2-3.2"/>
		<linearGradient id="SVGID_17_" gradientUnits="userSpaceOnUse" x1="1630.2869" y1="4780.1328" x2="1665.5986" y2="4678.6621">
			<stop  offset="0" style="stop-color:#D1BAD2"/>
			<stop  offset="1" style="stop-color:#A5A4CB"/>
		</linearGradient>
		<path class="st16" d="M1655.3,4748.5c-3.1,2.4-4.8,6.5-5.9,10.2c-0.4,1.5-0.8,4.4,1.3,4.9c1.5,0.3,2.9-0.3,4.1-1.2
			c3.5-2.4,2.8-5.3,2.4-9.2c-0.1-0.8-0.5-6.2,1-6.3"/>
		<linearGradient id="SVGID_18_" gradientUnits="userSpaceOnUse" x1="1633.3877" y1="4783.2505" x2="1668.6995" y2="4681.7798">
			<stop  offset="0" style="stop-color:#D1BAD2"/>
			<stop  offset="1" style="stop-color:#A5A4CB"/>
		</linearGradient>
		<path class="st17" d="M1667.6,4740.8c0-0.4-0.9,1.5-1.1,1.8c-1.7,2-8.5,15.1-1.6,15.6c8.9,0.5,2-14.1,5.1-17.5"/>
		<linearGradient id="SVGID_19_" gradientUnits="userSpaceOnUse" x1="1638.3466" y1="4788.2363" x2="1673.6583" y2="4686.7656">
			<stop  offset="0" style="stop-color:#D1BAD2"/>
			<stop  offset="1" style="stop-color:#A5A4CB"/>
		</linearGradient>
		<path class="st18" d="M1682,4737.2c1.7-2-4.3,4.6-4.4,4.8c-2.6,2.9-4.9,6.7-2.5,10.4c0.5,0.7,0.8,1.3,1.6,1.6
			c1.4,0.6,3,0.3,4.2-0.6c6.1-4.6,3.4-13.7,7.4-18.2"/>
		<linearGradient id="SVGID_20_" gradientUnits="userSpaceOnUse" x1="1644.454" y1="4794.377" x2="1679.7657" y2="4692.9062">
			<stop  offset="0" style="stop-color:#D1BAD2"/>
			<stop  offset="1" style="stop-color:#A5A4CB"/>
		</linearGradient>
		<path class="st19" d="M1698,4734.9c0-0.3-0.3-0.2-0.7-0.1c-1.8,0.7-3.4,2.5-4.4,4.1c-2,2.9-5.5,11.6-0.2,13.4
			c4.7,1.5,5.6-9.5,6.4-11.6c0.2-0.6,2.5-5.9,3.3-5.7"/>
		<linearGradient id="SVGID_21_" gradientUnits="userSpaceOnUse" x1="1623.5435" y1="4773.3525" x2="1658.8552" y2="4671.8823">
			<stop  offset="0" style="stop-color:#D1BAD2"/>
			<stop  offset="1" style="stop-color:#A5A4CB"/>
		</linearGradient>
		<path class="st20" d="M1654.3,4749.8c-1.6-1.4-7.8-3.3-9.8-2.8c-2.2,0.5-4.9,2.1-3.2,4.4c2.6,3.4,9.4-1.7,10.9-0.3"/>
		<linearGradient id="SVGID_22_" gradientUnits="userSpaceOnUse" x1="1624.7942" y1="4774.6104" x2="1660.1058" y2="4673.1396">
			<stop  offset="0" style="stop-color:#D1BAD2"/>
			<stop  offset="1" style="stop-color:#A5A4CB"/>
		</linearGradient>
		<path class="st21" d="M1664.5,4743.4c-2.1-1.1-4.3-1.9-6.7-2.2c-1.2-0.2-2.4-0.3-3.7-0.3c-3.4,0-9.6,2.3-3.2,4.3
			c3.4,1.1,7.8,0.3,10.9-1"/>
		<linearGradient id="SVGID_23_" gradientUnits="userSpaceOnUse" x1="1627.4076" y1="4777.2378" x2="1662.7194" y2="4675.7671">
			<stop  offset="0" style="stop-color:#D1BAD2"/>
			<stop  offset="1" style="stop-color:#A5A4CB"/>
		</linearGradient>
		<path class="st22" d="M1675.7,4738.3c1.1-1.3-3.3-3.2-4.1-3.6c-2.6-1.1-6-2.4-8.8-1.3c-4.9,2,2.6,4.8,4.3,4.9
			c1.9,0.1,3.8-0.5,5.7-0.1"/>
		<linearGradient id="SVGID_24_" gradientUnits="userSpaceOnUse" x1="1632.7108" y1="4782.5698" x2="1668.0226" y2="4681.0991">
			<stop  offset="0" style="stop-color:#D1BAD2"/>
			<stop  offset="1" style="stop-color:#A5A4CB"/>
		</linearGradient>
		<path class="st23" d="M1692.4,4734.5c-2.5-0.7-6.3-4.2-9.7-5.3c-2.5-0.8-13.4,0.1-7.5,4c3.8,2.5,9.5,0.7,13.6,1.8"/>
		<linearGradient id="SVGID_25_" gradientUnits="userSpaceOnUse" x1="1640.2001" y1="4790.0996" x2="1675.5118" y2="4688.6294">
			<stop  offset="0" style="stop-color:#D1BAD2"/>
			<stop  offset="1" style="stop-color:#A5A4CB"/>
		</linearGradient>
		<path class="st24" d="M1705.3,4735.7c0.9-1.1-1.8-3.5-2.4-4c-2.2-2-5.7-5.1-9-4.7c-3.1,0.3-0.1,4.3,1.3,4.9
			c1.3,0.6,2.5,1.2,3.8,1.8c1.6,0.7,3.5,1.7,5.2,2.1"/>
		<linearGradient id="SVGID_26_" gradientUnits="userSpaceOnUse" x1="1649.0262" y1="4798.9741" x2="1684.338" y2="4697.5034">
			<stop  offset="0" style="stop-color:#D1BAD2"/>
			<stop  offset="1" style="stop-color:#A5A4CB"/>
		</linearGradient>
		<path class="st25" d="M1714.1,4740.3c-1.5-1.3-3.2-6.2-3.4-8.3c-0.2-2.5,1.5-4.2,3.7-2.6c3.9,2.8-0.5,9.7,1,11"/>
	</g>
</g>
<g transform="matrix(0.732654,0,0,0.732654,2261.41,241.607)">
	
		<linearGradient id="SVGID_27_" gradientUnits="userSpaceOnUse" x1="-3761.2947" y1="191.3046" x2="-3760.4441" y2="191.3046" gradientTransform="matrix(-43.7256 -41.5178 -41.5178 43.7256 -159532.8594 -164701.9219)">
		<stop  offset="0" style="stop-color:#272252"/>
		<stop  offset="1" style="stop-color:#E83189"/>
	</linearGradient>
	<path class="st26" d="M-3009.1-192.1c0.2,0-1.9-2.1-2.2-2.4c-1.2-1.5-1.5-3.8-1.8-5.7c-0.6-4.9-1.6-20.9-8.4-20.9
		c-6.9,0-1,18.1-4.9,18.7c-2.6,0.4-3.7-5.3-4.1-6.9c-0.9-4-1.6-14.9-5.8-16.3c-5.3-1.8-6.9,4-5.6,8.4c0.7,2.4,3.2,5.9,0.9,7.9
		c-0.5,0.4-1.7,0.5-2.3,0.1c-5-3.3-6.1-8.5-13-8.5c-1.8,0-3,0.5-3.6,2.3c-4.2,12.6,17.1,12.5,18.4,20.3c0.6,3.7-19.1,2.4-11.9,8.1
		c5.1,4,15.7,1.9,21.4,0.5c1.1-0.3,5.2-0.4,5.4,0.8c1.2,5.8-15.7,5.5-13.6,11.1c2.7,7.1,20.8-4,24.4,0.5c2.9,3.6-14,9.6-11.9,16.8
		c0.3,0.9,1,1.6,1.8,2c6.7,3.6,13.6-11,18.9-8.4c4.7,2.3-7.4,11.1-2.9,14.1c5,3.4,8.8-4.5,12.6-6.2c9-4.1,15.5-2.4,11.4-13.9
		c-0.9-2.5-2.2-4.7-3.7-6.9c-1.9-2.7-4.4-4.9-6.7-7.2"/>
</g>
</svg>
