<?xml version="1.0" encoding="utf-8"?>
<!-- Generator: Adobe Illustrator 25.0.1, SVG Export Plug-In . SVG Version: 6.00 Build 0)  -->
<svg version="1.1" id="Calque_1" xmlns="http://www.w3.org/2000/svg" xmlns:xlink="http://www.w3.org/1999/xlink" x="0px" y="0px"
	 viewBox="0 0 179.9 153.2" style="enable-background:new 0 0 179.9 153.2;" xml:space="preserve">
<style type="text/css">
	.st0{fill:url(#SVGID_1_);}
	.st1{fill:url(#SVGID_2_);}
	.st2{fill:url(#SVGID_3_);}
	.st3{fill:url(#SVGID_4_);}
	.st4{fill:url(#SVGID_5_);}
	.st5{fill:url(#SVGID_6_);}
	.st6{fill:url(#SVGID_7_);}
	.st7{fill:url(#SVGID_8_);}
	.st8{fill:url(#SVGID_9_);}
	.st9{fill:url(#SVGID_10_);}
	.st10{fill:url(#SVGID_11_);}
	.st11{fill:url(#SVGID_12_);}
	.st12{fill:url(#SVGID_13_);}
	.st13{fill:url(#SVGID_14_);}
	.st14{fill:url(#SVGID_15_);}
	.st15{fill:url(#SVGID_16_);}
	.st16{fill:url(#SVGID_17_);}
	.st17{fill:url(#SVGID_18_);}
	.st18{fill:url(#SVGID_19_);}
	.st19{fill:url(#SVGID_20_);}
	.st20{fill:url(#SVGID_21_);}
	.st21{fill:url(#SVGID_22_);}
	.st22{fill:url(#SVGID_23_);}
	.st23{fill:url(#SVGID_24_);}
	.st24{fill:url(#SVGID_25_);}
	.st25{fill:url(#SVGID_26_);}
	.st26{fill:url(#SVGID_27_);}
	.st27{fill:url(#SVGID_28_);}
	.st28{fill:url(#SVGID_29_);}
	.st29{fill:url(#SVGID_30_);}
	.st30{fill:url(#SVGID_31_);}
	.st31{fill:url(#SVGID_32_);}
	.st32{fill:url(#SVGID_33_);}
	.st33{fill:url(#SVGID_34_);}
	.st34{fill:url(#SVGID_35_);}
	.st35{fill:url(#SVGID_36_);}
	.st36{fill:url(#SVGID_37_);}
	.st37{fill:url(#SVGID_38_);}
	.st38{fill:url(#SVGID_39_);}
	.st39{fill:url(#SVGID_40_);}
	.st40{fill:url(#SVGID_41_);}
	.st41{fill:url(#SVGID_42_);}
	.st42{clip-path:url(#SVGID_45_);}
	.st43{fill:url(#SVGID_46_);}
	.st44{fill:url(#SVGID_47_);}
	.st45{fill:url(#SVGID_48_);}
	.st46{fill:url(#SVGID_49_);}
	.st47{clip-path:url(#SVGID_52_);}
	.st48{fill:url(#SVGID_53_);}
	.st49{clip-path:url(#SVGID_56_);}
	.st50{fill:url(#SVGID_57_);}
	.st51{fill:url(#SVGID_58_);}
	.st52{fill:url(#SVGID_59_);}
	.st53{fill:url(#SVGID_60_);}
	.st54{fill:url(#SVGID_61_);}
	.st55{fill:#E83189;}
	.st56{clip-path:url(#SVGID_64_);}
	.st57{fill:url(#SVGID_65_);}
	.st58{fill:#272252;}
	.st59{fill:url(#SVGID_66_);}
	.st60{fill:url(#SVGID_67_);}
	.st61{fill:url(#SVGID_68_);}
	.st62{fill:url(#SVGID_69_);}
	.st63{fill:url(#SVGID_70_);}
	.st64{fill:url(#SVGID_71_);}
	.st65{fill:url(#SVGID_72_);}
	.st66{fill:url(#SVGID_73_);}
	.st67{fill:url(#SVGID_74_);}
	.st68{fill:url(#SVGID_75_);}
	.st69{fill:url(#SVGID_76_);}
	.st70{fill:url(#SVGID_77_);}
	.st71{fill:url(#SVGID_78_);}
	.st72{fill:#FFFFFF;}
	.st73{fill:url(#SVGID_79_);}
	.st74{fill:url(#SVGID_80_);}
	.st75{fill:url(#SVGID_81_);}
	.st76{fill:url(#SVGID_82_);}
	.st77{fill:url(#SVGID_83_);}
	.st78{fill:url(#SVGID_84_);}
	.st79{fill:url(#SVGID_85_);}
	.st80{fill:url(#SVGID_86_);}
	.st81{fill:url(#SVGID_87_);}
	.st82{fill:url(#SVGID_88_);}
	.st83{fill:url(#SVGID_89_);}
	.st84{fill:url(#SVGID_90_);}
	.st85{fill:url(#SVGID_91_);}
	.st86{fill:url(#SVGID_92_);}
	.st87{fill:url(#SVGID_93_);}
	.st88{fill:url(#SVGID_94_);}
	.st89{fill:url(#SVGID_95_);}
	.st90{fill:url(#SVGID_96_);}
	.st91{fill:url(#SVGID_97_);}
	.st92{fill:url(#SVGID_98_);}
	.st93{fill:url(#SVGID_99_);}
	.st94{fill:url(#SVGID_100_);}
	.st95{fill:url(#SVGID_101_);}
	.st96{fill:url(#SVGID_102_);}
	.st97{fill:url(#SVGID_103_);}
	.st98{fill:url(#SVGID_104_);}
	.st99{fill:url(#SVGID_105_);}
	.st100{fill:url(#SVGID_106_);}
	.st101{fill:url(#SVGID_107_);}
	.st102{fill:url(#SVGID_108_);}
	.st103{fill:url(#SVGID_109_);}
	.st104{fill:url(#SVGID_110_);}
	.st105{fill:url(#SVGID_111_);}
	.st106{fill:url(#SVGID_112_);}
	.st107{fill:url(#SVGID_113_);}
	.st108{fill:url(#SVGID_114_);}
	.st109{fill:url(#SVGID_115_);}
	.st110{fill:url(#SVGID_116_);}
	.st111{fill:url(#SVGID_117_);}
	.st112{fill:url(#SVGID_118_);}
	.st113{fill:url(#SVGID_119_);}
	.st114{fill:url(#SVGID_120_);}
	.st115{clip-path:url(#SVGID_123_);}
	.st116{fill:url(#SVGID_124_);}
	.st117{fill:url(#SVGID_125_);}
	.st118{fill:url(#SVGID_126_);}
	.st119{fill:url(#SVGID_127_);}
	.st120{clip-path:url(#SVGID_130_);}
	.st121{fill:url(#SVGID_131_);}
	.st122{clip-path:url(#SVGID_134_);}
	.st123{fill:url(#SVGID_135_);}
	.st124{fill:url(#SVGID_136_);}
	.st125{fill:url(#SVGID_137_);}
	.st126{fill:url(#SVGID_138_);}
	.st127{fill:url(#SVGID_139_);}
	.st128{fill:#F8C5D1;}
	.st129{clip-path:url(#SVGID_142_);}
	.st130{fill:url(#SVGID_143_);}
	.st131{fill:url(#SVGID_144_);}
	.st132{fill:url(#SVGID_145_);}
	.st133{fill:url(#SVGID_146_);}
	.st134{fill:url(#SVGID_147_);}
	.st135{fill:url(#SVGID_148_);}
	.st136{fill:url(#SVGID_149_);}
	.st137{fill:url(#SVGID_150_);}
	.st138{fill:url(#SVGID_151_);}
	.st139{fill:url(#SVGID_152_);}
	.st140{fill:url(#SVGID_153_);}
	.st141{fill:url(#SVGID_154_);}
	.st142{fill:url(#SVGID_155_);}
	.st143{fill:url(#SVGID_156_);}
	.st144{fill:url(#SVGID_157_);}
	.st145{fill:url(#SVGID_158_);}
	.st146{fill:url(#SVGID_159_);}
	.st147{fill:url(#SVGID_160_);}
</style>
<g>
	<g transform="matrix(0.947368,0,0,0.947368,2121.33,21.5541)">
		<linearGradient id="SVGID_1_" gradientUnits="userSpaceOnUse" x1="-2137.0144" y1="100.565" x2="-2168.4341" y2="36.0277">
			<stop  offset="0" style="stop-color:#F8C5D1"/>
			<stop  offset="1" style="stop-color:#9592C7"/>
		</linearGradient>
		<path class="st0" d="M-2063.5,63.2c-37.2-84.7-60.5-31.5-92.5-30.4c-14.3,0.5-30.2-2.3-48.6,5.3c-12.1,5-27.8,14.3-29.2,38.5
			c-1.5,27.2,19,43.8,31.6,48.3c16.8,6.1,29.5,6.4,47.2,4.3c7.8-0.9,15.4-2.6,23.2-3.3c9.2-0.8,18.4-0.8,27.7-0.3
			C-2092.4,126.4-2041.5,113.2-2063.5,63.2z"/>
	</g>
	<g transform="matrix(0.947368,0,0,0.947368,2121.33,21.5541)">
		<linearGradient id="SVGID_2_" gradientUnits="userSpaceOnUse" x1="-2128.8328" y1="119.1021" x2="-2082.9773" y2="-46.2747">
			<stop  offset="0" style="stop-color:#F8C5D1"/>
			<stop  offset="1" style="stop-color:#9592C7"/>
		</linearGradient>
		<path class="st1" d="M-2102.5,109.5c-1.4-4.9-0.7-11-0.5-16.1c0.6-13.3,3.2-27.3,8.4-39.5c2.5-5.8,5.9-11.1,8.7-16.7
			c4.2-8.4,8.2-17.1,11.7-25.9c4.8-12.1,3-27.7-12.3-29c-36.8-3.1-47.8,59.4-47.8,85.1c0,7.4,0.6,14.5,1.4,21.8
			c0.6,5.7,4.3,30.3,8.4,34.4"/>
	</g>
	<g transform="matrix(0.947368,0,0,0.947368,2121.33,21.5541)">
		<linearGradient id="SVGID_3_" gradientUnits="userSpaceOnUse" x1="-2167.7688" y1="98.5112" x2="-2183.054" y2="27.3928">
			<stop  offset="0" style="stop-color:#F8C5D1"/>
			<stop  offset="1" style="stop-color:#9592C7"/>
		</linearGradient>
		<path class="st2" d="M-2154.6,91.2c-0.9-2.5-0.2-10.9-0.3-13.8c-0.1-9-0.4-18.1-2.2-26.9c-1.9-9.8-6.4-22-15.1-28
			c-12.1-8.2-25.4,1.9-27.5,14.4c-2.8,16.5,6.4,20.1,12.1,33.4c4.8,11.2,5,23.3,5.5,35.3"/>
	</g>
	
		<linearGradient id="SVGID_4_" gradientUnits="userSpaceOnUse" x1="-310.3961" y1="383.3768" x2="-310.1296" y2="383.3768" gradientTransform="matrix(47.0927 -106.0619 -106.0619 -47.0927 55375.8438 -14754.9932)">
		<stop  offset="0" style="stop-color:#F8C5D1"/>
		<stop  offset="1" style="stop-color:#9592C7"/>
	</linearGradient>
	<path class="st3" d="M95.2,81.5c0,6.4,0.5,12.6,1.2,19c0.5,5,3.7,26.4,7.3,30"/>
	<g transform="matrix(0.947368,0,0,0.947368,2121.33,21.5541)">
		<linearGradient id="SVGID_5_" gradientUnits="userSpaceOnUse" x1="-2139.2612" y1="118.7488" x2="-2153.6973" y2="28.524">
			<stop  offset="0" style="stop-color:#F8C5D1"/>
			<stop  offset="1" style="stop-color:#9592C7"/>
		</linearGradient>
		<path class="st4" d="M-2130.8,68.9c0-19.9,2.5-46.3-9.5-63.8c-1.4-2-2.7-4.7-4.6-6.2c-13.6-11.3-31.3-5-32.4,13.4
			c-0.8,14.4,8.2,24.6,14,36.9c3.5,7.6,6.9,15.7,9.3,23.8c3.6,12.2,2.6,25.1,5.7,37.3c0.4,1.7,0.3,3.9,1.1,5.5
			c0.6,1.2,20.3,6.8,23.4,0.7"/>
	</g>
	<g transform="matrix(0.941536,-0.104955,0.104955,0.941536,2056.12,213.577)">
		<linearGradient id="SVGID_6_" gradientUnits="userSpaceOnUse" x1="-2058.5527" y1="-322.0066" x2="-2030.9546" y2="-432.3993">
			<stop  offset="0" style="stop-color:#F8C5D1"/>
			<stop  offset="1" style="stop-color:#9592C7"/>
		</linearGradient>
		<path class="st5" d="M-2028.6-340.3c0-14.8,1.9-29.2,5.2-43.6c2.2-9.6,9.2-25.5,4.5-35c-2.7-5.5-9.6-4.6-14.4-3
			c-11.2,3.9-17.8,16.7-21.3,27.2c-8.5,25.6-7.9,57.1,7.5,79.9"/>
	</g>
	<g transform="matrix(0.947368,0,0,0.947368,2121.33,21.5541)">
		<linearGradient id="SVGID_7_" gradientUnits="userSpaceOnUse" x1="-2153.9397" y1="92.3747" x2="-2161.7944" y2="59.2569">
			<stop  offset="0" style="stop-color:#F8C5D1"/>
			<stop  offset="1" style="stop-color:#9592C7"/>
		</linearGradient>
		<path class="st6" d="M-2149.2,58.7c0-2-1.8-5.1-2.6-6.9c-5.5-12.7-16-19.5-21.5-2.3c-4.3,13.4,6,32.8,11.3,45.1"/>
	</g>
	<g transform="matrix(0.93532,-0.150603,0.150603,0.93532,2056.63,223.853)">
		<linearGradient id="SVGID_8_" gradientUnits="userSpaceOnUse" x1="-2003.5896" y1="-429.3313" x2="-1975.1422" y2="-531.6569">
			<stop  offset="0" style="stop-color:#F8C5D1"/>
			<stop  offset="1" style="stop-color:#9592C7"/>
		</linearGradient>
		<path class="st7" d="M-1974.5-456.3c3.3-13.3,12.5-25,18.2-37.3c3.1-6.7,7.1-16.4,4.7-23.9c-4.4-13.8-22-3.6-27.9,3.2
			c-14.5,17-19,41.6-21.9,63.1c-1.2,9.2-3,19.5-1.1,28.8"/>
	</g>
	<g transform="matrix(0.947368,0,0,0.947368,2107.69,86.286)">
		
			<linearGradient id="SVGID_9_" gradientUnits="userSpaceOnUse" x1="-2552.6992" y1="315.236" x2="-2551.8806" y2="315.236" gradientTransform="matrix(28.172 -66.0803 -66.0803 -28.172 90663.4844 -159779.3594)">
			<stop  offset="0" style="stop-color:#F8C5D1"/>
			<stop  offset="1" style="stop-color:#9592C7"/>
		</linearGradient>
		<path class="st8" d="M-2089,50.2c4.2-4.6,8.2-9,11.7-14.2c4-6,8.3-11.9,11.5-18.4c4.9-9.8,19.6-44.6,2.3-50.4
			c-14.2-4.7-15.4,23.3-16.9,30.8c-1.5,7.5-3.1,14.8-5.5,22.1c-2,6.2-4,12.5-6.6,18.4c-0.7,1.7-1.2,2.9-2,4.6c0,0.1-1.7,2.6-1.3,2.2
			"/>
	</g>
</g>
</svg>
