<?xml version="1.0" encoding="utf-8"?>
<!-- Generator: Adobe Illustrator 25.0.1, SVG Export Plug-In . SVG Version: 6.00 Build 0)  -->
<svg version="1.1" id="Calque_1" xmlns="http://www.w3.org/2000/svg" xmlns:xlink="http://www.w3.org/1999/xlink" x="0px" y="0px"
	 viewBox="0 0 179.9 153.2" style="enable-background:new 0 0 179.9 153.2;" xml:space="preserve">
<style type="text/css">
	.st0{fill:url(#SVGID_1_);}
	.st1{fill:url(#SVGID_2_);}
	.st2{fill:url(#SVGID_3_);}
	.st3{fill:url(#SVGID_4_);}
	.st4{fill:url(#SVGID_5_);}
	.st5{fill:url(#SVGID_6_);}
	.st6{fill:url(#SVGID_7_);}
	.st7{fill:url(#SVGID_8_);}
	.st8{fill:url(#SVGID_9_);}
	.st9{fill:url(#SVGID_10_);}
	.st10{fill:url(#SVGID_11_);}
	.st11{fill:url(#SVGID_12_);}
	.st12{fill:url(#SVGID_13_);}
	.st13{fill:url(#SVGID_14_);}
	.st14{fill:url(#SVGID_15_);}
	.st15{fill:url(#SVGID_16_);}
	.st16{fill:url(#SVGID_17_);}
	.st17{fill:url(#SVGID_18_);}
	.st18{fill:url(#SVGID_19_);}
	.st19{fill:url(#SVGID_20_);}
	.st20{fill:url(#SVGID_21_);}
	.st21{fill:url(#SVGID_22_);}
	.st22{fill:url(#SVGID_23_);}
	.st23{fill:url(#SVGID_24_);}
	.st24{fill:url(#SVGID_25_);}
	.st25{fill:url(#SVGID_26_);}
	.st26{fill:url(#SVGID_27_);}
	.st27{fill:url(#SVGID_28_);}
	.st28{fill:url(#SVGID_29_);}
	.st29{fill:url(#SVGID_30_);}
	.st30{fill:url(#SVGID_31_);}
	.st31{fill:url(#SVGID_32_);}
	.st32{fill:url(#SVGID_33_);}
	.st33{fill:url(#SVGID_34_);}
	.st34{fill:url(#SVGID_35_);}
	.st35{fill:url(#SVGID_36_);}
	.st36{fill:url(#SVGID_37_);}
	.st37{fill:url(#SVGID_38_);}
	.st38{fill:url(#SVGID_39_);}
	.st39{fill:url(#SVGID_40_);}
	.st40{fill:url(#SVGID_41_);}
	.st41{fill:url(#SVGID_42_);}
	.st42{clip-path:url(#SVGID_45_);}
	.st43{fill:url(#SVGID_46_);}
	.st44{fill:url(#SVGID_47_);}
	.st45{fill:url(#SVGID_48_);}
	.st46{fill:url(#SVGID_49_);}
	.st47{clip-path:url(#SVGID_52_);}
	.st48{fill:url(#SVGID_53_);}
	.st49{clip-path:url(#SVGID_56_);}
	.st50{fill:url(#SVGID_57_);}
	.st51{fill:url(#SVGID_58_);}
	.st52{fill:url(#SVGID_59_);}
	.st53{fill:url(#SVGID_60_);}
	.st54{fill:url(#SVGID_61_);}
	.st55{fill:#E83189;}
	.st56{clip-path:url(#SVGID_64_);}
	.st57{fill:url(#SVGID_65_);}
	.st58{fill:#272252;}
	.st59{fill:url(#SVGID_66_);}
	.st60{fill:url(#SVGID_67_);}
	.st61{fill:url(#SVGID_68_);}
	.st62{fill:url(#SVGID_69_);}
	.st63{fill:url(#SVGID_70_);}
	.st64{fill:url(#SVGID_71_);}
	.st65{fill:url(#SVGID_72_);}
	.st66{fill:url(#SVGID_73_);}
	.st67{fill:url(#SVGID_74_);}
	.st68{fill:url(#SVGID_75_);}
	.st69{fill:url(#SVGID_76_);}
	.st70{fill:url(#SVGID_77_);}
	.st71{fill:url(#SVGID_78_);}
	.st72{fill:#FFFFFF;}
	.st73{fill:url(#SVGID_79_);}
	.st74{fill:url(#SVGID_80_);}
	.st75{fill:url(#SVGID_81_);}
	.st76{fill:url(#SVGID_82_);}
	.st77{fill:url(#SVGID_83_);}
	.st78{fill:url(#SVGID_84_);}
	.st79{fill:url(#SVGID_85_);}
	.st80{fill:url(#SVGID_86_);}
	.st81{fill:url(#SVGID_87_);}
	.st82{fill:url(#SVGID_88_);}
	.st83{fill:url(#SVGID_89_);}
	.st84{fill:url(#SVGID_90_);}
	.st85{fill:url(#SVGID_91_);}
	.st86{fill:url(#SVGID_92_);}
	.st87{fill:url(#SVGID_93_);}
	.st88{fill:url(#SVGID_94_);}
	.st89{fill:url(#SVGID_95_);}
	.st90{fill:url(#SVGID_96_);}
	.st91{fill:url(#SVGID_97_);}
	.st92{fill:url(#SVGID_98_);}
	.st93{fill:url(#SVGID_99_);}
	.st94{fill:url(#SVGID_100_);}
	.st95{fill:url(#SVGID_101_);}
	.st96{fill:url(#SVGID_102_);}
	.st97{fill:url(#SVGID_103_);}
	.st98{fill:url(#SVGID_104_);}
	.st99{fill:url(#SVGID_105_);}
	.st100{fill:url(#SVGID_106_);}
	.st101{fill:url(#SVGID_107_);}
	.st102{fill:url(#SVGID_108_);}
	.st103{fill:url(#SVGID_109_);}
	.st104{fill:url(#SVGID_110_);}
	.st105{fill:url(#SVGID_111_);}
	.st106{fill:url(#SVGID_112_);}
	.st107{fill:url(#SVGID_113_);}
	.st108{fill:url(#SVGID_114_);}
	.st109{fill:url(#SVGID_115_);}
	.st110{fill:url(#SVGID_116_);}
	.st111{fill:url(#SVGID_117_);}
	.st112{fill:url(#SVGID_118_);}
	.st113{fill:url(#SVGID_119_);}
	.st114{fill:url(#SVGID_120_);}
	.st115{clip-path:url(#SVGID_123_);}
	.st116{fill:url(#SVGID_124_);}
	.st117{fill:url(#SVGID_125_);}
	.st118{fill:url(#SVGID_126_);}
	.st119{fill:url(#SVGID_127_);}
	.st120{clip-path:url(#SVGID_130_);}
	.st121{fill:url(#SVGID_131_);}
	.st122{clip-path:url(#SVGID_134_);}
	.st123{fill:url(#SVGID_135_);}
	.st124{fill:url(#SVGID_136_);}
	.st125{fill:url(#SVGID_137_);}
	.st126{fill:url(#SVGID_138_);}
	.st127{fill:url(#SVGID_139_);}
	.st128{fill:#F8C5D1;}
	.st129{clip-path:url(#SVGID_142_);}
	.st130{fill:url(#SVGID_143_);}
	.st131{fill:url(#SVGID_144_);}
	.st132{fill:url(#SVGID_145_);}
	.st133{fill:url(#SVGID_146_);}
	.st134{fill:url(#SVGID_147_);}
	.st135{fill:url(#SVGID_148_);}
	.st136{fill:url(#SVGID_149_);}
	.st137{fill:url(#SVGID_150_);}
	.st138{fill:url(#SVGID_151_);}
	.st139{fill:url(#SVGID_152_);}
	.st140{fill:url(#SVGID_153_);}
	.st141{fill:url(#SVGID_154_);}
	.st142{fill:url(#SVGID_155_);}
	.st143{fill:url(#SVGID_156_);}
	.st144{fill:url(#SVGID_157_);}
	.st145{fill:url(#SVGID_158_);}
	.st146{fill:url(#SVGID_159_);}
	.st147{fill:url(#SVGID_160_);}
</style>
<g>
	<g transform="matrix(0.947368,0,0,0.947368,2121.33,21.5541)">
		<linearGradient id="SVGID_1_" gradientUnits="userSpaceOnUse" x1="-2131.1426" y1="117.2165" x2="-2121.4021" y2="90.8813">
			<stop  offset="0" style="stop-color:#E69D77"/>
			<stop  offset="1" style="stop-color:#6C6A86"/>
		</linearGradient>
		<path class="st0" d="M-2106.1,75.6c-2.7,0.3-5.6-0.2-8.3-0.1c-10.5,0.3-23.8,2-30.8,10.9c-5.5,7-4.4,16.5-1,24.2
			c2.6,6.1,3.5,8,9.8,7.6c1.9-0.1,1.3-1.3,2.4-2.3c0.8-0.7,2.4-0.4,3.1-1.2c1.4-1.6,0.8-7,5.1-10.7c5-4.2,16.5-5.9,23.2-8.2
			c5.1-1.8,9.2-7.1,9.9-12.3c0-0.2,0-0.4,0.1-0.5c0-0.2,0-0.4,0.1-0.5c0.2-1.6,0.2-3.3,0.2-4.9c0,0,0-0.6,0-0.6"/>
	</g>
	<g transform="matrix(0.947368,0,0,0.947368,2114.02,32.9003)">
		<linearGradient id="SVGID_2_" gradientUnits="userSpaceOnUse" x1="-2141.5776" y1="22.9009" x2="-2136.5137" y2="27.738">
			<stop  offset="0" style="stop-color:#E69D77"/>
			<stop  offset="1" style="stop-color:#6C6A86"/>
		</linearGradient>
		<path class="st1" d="M-2144.9,42.8l4.8-18.3l-0.4-0.7l3.7-11.6l7.1-1l1.4,7.9l-10.3,29L-2144.9,42.8z"/>
	</g>
	<g transform="matrix(0.947368,0,0,0.947368,2114.02,32.9003)">
		
			<linearGradient id="SVGID_3_" gradientUnits="userSpaceOnUse" x1="-2568.2786" y1="190.7684" x2="-2567.4958" y2="190.7684" gradientTransform="matrix(26.2871 2.2811 2.1122 -28.3895 64965.3828 11314.2373)">
			<stop  offset="0" style="stop-color:#E7A67F"/>
			<stop  offset="1" style="stop-color:#1BB3C2"/>
		</linearGradient>
		<path class="st2" d="M-2140.1,24.5c1.4,0.3,2.6,0.8,4.1,1.8c1.6,1,2.9,2.3,3.6,4l-6.3,17.8l-29.1,5.6l0.1-6.1l22.8-4.7
			L-2140.1,24.5z"/>
	</g>
	<g transform="matrix(0.947368,0,0,0.947368,2121.33,21.5541)">
		
			<linearGradient id="SVGID_4_" gradientUnits="userSpaceOnUse" x1="-2567.0505" y1="204.1117" x2="-2566.2678" y2="204.1117" gradientTransform="matrix(41.7319 41.974 41.974 -41.7319 96427.4609 116307.1406)">
			<stop  offset="0" style="stop-color:#E69D77"/>
			<stop  offset="1" style="stop-color:#6C6A86"/>
		</linearGradient>
		<path class="st3" d="M-2098.2,80.4c0,0,7.2-28.7-6-49.9c-13.1-21.1-45.1-20.8-40.3,1.6c4.8,22.5,25,16.8,17.1,46.6
			C-2131.2,92.8-2107.1,93.1-2098.2,80.4z"/>
	</g>
	<g transform="matrix(0.947368,0,0,0.947368,2121.33,21.5541)">
		
			<linearGradient id="SVGID_5_" gradientUnits="userSpaceOnUse" x1="-2578.4766" y1="206.0923" x2="-2577.6938" y2="206.0923" gradientTransform="matrix(24.2866 -6.4128 -6.4128 -24.2866 61802.4961 -11506.1396)">
			<stop  offset="0" style="stop-color:#E7A67F"/>
			<stop  offset="1" style="stop-color:#1BB3C2"/>
		</linearGradient>
		<path class="st4" d="M-2137.8,16.4c3.5-1.5,7.8-1.8,12.4-0.9c-1.1,3.4-2.6,6.8-4.8,9.6c-1.3,1.6-3,3.4-5.2,3.7
			c-2.5,0.3-3.6-2.2-3.8-4.2C-2139.4,21.8-2138.7,19-2137.8,16.4z"/>
	</g>
	<g transform="matrix(0.947368,0,0,0.947368,2121.33,21.5541)">
		<linearGradient id="SVGID_6_" gradientUnits="userSpaceOnUse" x1="-2158.4756" y1="5.0799" x2="-2151.2751" y2="4.5101">
			<stop  offset="0" style="stop-color:#E69D77"/>
			<stop  offset="1" style="stop-color:#6C6A86"/>
		</linearGradient>
		<path class="st5" d="M-2151.6-1.5c-1.1-1-3.7,0.2-3.8,1.6c-0.1,0.5,0.4,1.4,0.4,1.7c-0.2,0.8-1.3,1.1-0.9,2.5
			c0.1,0.5,0.4,0.9,0.7,1.2c0.2,0.2,0.6,0.4,0.7,0.6c0.1,0.3-0.2,0.7-0.3,1c-0.2,0.7-0.3,1.5-0.1,2.2c0.1,0.4,0.4,0.7,0.7,0.9
			c0.2,0.2,0.4,0.3,0.7,0.4c0.5,0.2,2.1,0.8,2.6,0.2c0.5-0.6,0.1-1.3,0.1-1.9c0-0.6,0.3-1.1,0.5-1.6c0.6-1.4,1.1-2.5,1-4"/>
	</g>
	<g transform="matrix(0.947368,0,0,0.947368,2121.33,21.5541)">
		<g>
			<defs>
				<path id="SVGID_121_" d="M-2137.9,13.1c-0.1,0,3.2,2.1,4.1,2.7c2.2,1.5,3.5,5.2-0.1,6.3c-2.4,0.7-5.1-0.7-7-2
					c-0.6-0.4-1.6-1-1.6-1s-2.3,3.2-4.9,2.8c-1.7-0.3-3-2-3.9-4.5c-1.6-4.4-2.2-8.3-1.1-13.8c0.4-1.9,3.5-3.4,5-4
					c1.9-0.8,4.6-1.2,6.6-0.2c3.6,1.6,4.1,5.8,3.8,9.3C-2137.2,10.8-2137.9,13.1-2137.9,13.1z"/>
			</defs>
			<linearGradient id="SVGID_7_" gradientUnits="userSpaceOnUse" x1="-2146.2437" y1="10.4717" x2="-2121.168" y2="10.4717">
				<stop  offset="0" style="stop-color:#E7A67F"/>
				<stop  offset="1" style="stop-color:#1BB3C2"/>
			</linearGradient>
			<use xlink:href="#SVGID_121_"  style="overflow:visible;fill:url(#SVGID_7_);"/>
			<clipPath id="SVGID_8_">
				<use xlink:href="#SVGID_121_"  style="overflow:visible;"/>
			</clipPath>
			<g style="clip-path:url(#SVGID_8_);">
				<g transform="matrix(1.05556,0,0,1.05556,-4350.29,-22.7516)">
					
						<linearGradient id="SVGID_9_" gradientUnits="userSpaceOnUse" x1="1710.9934" y1="219.2477" x2="1711.7761" y2="219.2477" gradientTransform="matrix(-13.3428 8.6143 8.6143 13.3428 23031.1133 -17632.5684)">
						<stop  offset="0" style="stop-color:#E7A67F"/>
						<stop  offset="1" style="stop-color:#FFFFFF"/>
					</linearGradient>
					<path class="st8" d="M2080,34c-0.1-0.1-0.1-0.5-0.1-0.7c-0.1-0.6-0.1-1.3,0-1.9c0.2-2.9,2.7-6.3,5.9-5.7c1.5,0.3,2.4,1.6,2.8,3
						c0.4,1.5,0.3,3,0.3,4.5c0.1,2.1,0.2,4.2,0.2,6.3c0,1.3,0,3-1,4c-1.3,1.4-3.6,0.9-5,0.1c-2.9-1.8-4.3-5.4-5.3-8.5"/>
				</g>
			</g>
		</g>
	</g>
	<g transform="matrix(0.959417,0,0.0821043,0.959417,-1831.08,6.61591)">
		<linearGradient id="SVGID_10_" gradientUnits="userSpaceOnUse" x1="1994.7594" y1="25.0402" x2="1996.924" y2="32.4958">
			<stop  offset="0" style="stop-color:#E69D77"/>
			<stop  offset="1" style="stop-color:#6C6A86"/>
		</linearGradient>
		<path class="st9" d="M1999.4,26c0,0-0.3-0.1-0.3-0.1c-0.4-0.1-0.7-0.1-1.1-0.1c-1,0-2,0.2-2.8,0.8c-0.4,0.2-0.6,0.6-1,0.8
			c-0.1,0.1-0.3,0-0.5,0c-0.1,0-0.2,0.1-0.3,0.1c-0.2,0-0.5-0.2-0.7-0.3c-0.4-0.2-0.8-0.2-1.2-0.2c-0.3,0-0.5,0-0.8,0.1
			c-1.7,0.5-1.4,2.8-0.7,4.1c0.4,0.7,1.4,0.9,2,0.3c0.7-0.7,0.9-1.5,1.1-2.4c0.1-0.3,0-1,0.4-1.2c0.7-0.3,0.9,0.8,1.1,1.3
			c0.2,0.5,0.8,1.4,1.4,1.7c0.3,0.1,0.7,0.1,1.1,0c0.2-0.1,0.5-0.1,0.7-0.3c0.8-0.5,1-1.5,1-2.4c0-0.5-0.1-0.9,0.1-1.3
			c0-0.1,0.3-0.2,0.4-0.2c0.4-0.1,1.6-0.1,1.3-0.8c0-0.1-0.3-0.1-0.3-0.1c-0.3,0-0.7,0.2-1,0.2"/>
	</g>
	<g transform="matrix(0.947368,0,0,0.947368,2121.33,21.5541)">
		<linearGradient id="SVGID_11_" gradientUnits="userSpaceOnUse" x1="-2132.7751" y1="13.7155" x2="-2140.5972" y2="4.6502">
			<stop  offset="0" style="stop-color:#E69D77"/>
			<stop  offset="1" style="stop-color:#6C6A86"/>
		</linearGradient>
		<path class="st10" d="M-2142.9,5.9c-0.5,0.7-1.6,2.1-2.6,1.6c-0.4-0.2-0.5-0.8-0.5-1.2c0-0.1,0-0.3,0.1-0.4c0-0.1,0.1-0.3,0.1-0.3
			c-0.7,0.3-2.9,2.5-3.6,0.9c-0.2-0.4-0.2-0.9-0.1-1.3c0,0,0.1-0.4,0.1-0.5c0,0-0.2,0.2-0.3,0.3c-0.2,0.2-0.3,0.3-0.5,0.4
			c-0.6,0.4-1.3,0.6-2,0.3c-0.8-0.3-1.2-1.1-0.9-2c0.1-0.1,0.5-0.8,0.5-0.9c-0.1-0.2-0.6-0.3-0.8-0.4c-0.7-0.5-1.6-1.2-1.5-2.2
			c0.1-0.6,0.7-1,1.2-1.3c0.1-0.1,0.5-0.1,0.6-0.2c0-0.1-0.3-0.7-0.4-0.8c-0.2-0.6-0.1-1.3,0.4-1.7c0.4-0.4,0.9-0.6,1.5-0.6
			c0.6,0,1.2,0.2,1.7,0.5c0.1,0.1,0.6,0.6,0.7,0.6c0,0,0.3-0.4,0.3-0.4c0.4-0.4,1-0.4,1.4-0.1c0.6,0.5,0.9,1.2,1.1,1.9
			c0,0.1,0.2,0.8,0.2,0.8c0.1,0,0.3-0.3,0.4-0.4c0.3-0.3,0.8-0.5,1.2-0.6c0.4-0.1,0.9,0,1.3,0.1c0.1,0,0.4,0.2,0.5,0.2
			c0.1,0,0.2-0.4,0.3-0.5c0.2-0.3,0.6-0.6,0.9-0.7c0.3-0.1,0.7,0,1,0.2c0,0,0.1,0.1,0.1,0.1c0.1-0.1,0.1-0.8,0.1-0.9
			c0.1-0.6,0.4-1.2,0.8-1.6c0.8-0.9,2.1-0.6,2.9,0.2c0.2,0.2,0.4,0.7,0.7,0.9c0.4,0.3,0.8,0.2,1.2,0.6c0.4,0.5,0.4,1.3,0.2,1.9
			c0,0.1-0.4,0.7-0.4,0.8c0.2,0.4,1.1,0.6,1.3,1.6c0.1,0.4,0.1,0.8-0.2,1.2c-0.1,0.1-0.5,0.4-0.5,0.6c0,0.6,0.7,1,0.7,1.7
			c0,0.6-0.3,1.3-0.7,1.7c-0.1,0.1-0.5,0.3-0.6,0.4c-0.1,0.1,0.2,1.5,0.3,1.6c1.3,0.4,1.1,1.4,1.1,1.7c-0.1,1.1-0.9,0.7-1.3,1.2
			c-0.1,0.1,0.3,0.3,0.4,0.5c0.2,0.4,0.5,0.9,0.5,1.3c0,0.5-0.3,0.8-0.7,1c-0.2,0.1-0.4,0.1-0.5,0.1c0,0-0.1,0-0.1,0
			c0,0.4,0.7,0.9,0.5,1.7c-0.2,0.8-1.1,0.8-1.7,0.5c-0.1-0.1-0.4-0.4-0.4-0.4c-0.2,0-0.1,0.3-0.2,0.5c-0.3,0.3-0.7,0.6-1.1,0.4
			c-0.4-0.2-0.7-0.7-0.8-1.2c-0.1-0.3-0.1-0.6-0.1-0.9c-0.1-1.5,0.9-1.7,1.4-3.1c0.3-0.8-0.6-4.2-1.6-4.5c-0.7-0.3-1.3,0.3-1.7,0.8
			c-0.6,1-0.3,2.2-0.9,3.3c-0.3,0.6-1.3,1.3-1.9,0.7c-1.3-1.2,0.2-3,1.1-4C-2141.2,6.1-2142.9,5.9-2142.9,5.9z"/>
	</g>
	<g transform="matrix(1.16077,0,0,1.16077,1893.83,-59.0853)">
		
			<linearGradient id="SVGID_12_" gradientUnits="userSpaceOnUse" x1="-1891.0652" y1="261.0872" x2="-1890.2825" y2="261.0872" gradientTransform="matrix(-9.6303 -8.497 -8.497 9.6303 -17539.252 -18502.0352)">
			<stop  offset="0" style="stop-color:#FDE256"/>
			<stop  offset="1" style="stop-color:#FFFFFF"/>
		</linearGradient>
		<ellipse class="st11" cx="-1550.4" cy="77" rx="4.6" ry="5.1"/>
	</g>
	<g transform="matrix(0.756995,0,0,0.756995,2340.26,87.0225)">
		<g>
			<defs>
				<ellipse id="SVGID_128_" cx="-2965.5" cy="-75.1" rx="3.4" ry="3.9"/>
			</defs>
			<linearGradient id="SVGID_13_" gradientUnits="userSpaceOnUse" x1="-2970.9199" y1="-75.119" x2="-2964.3188" y2="-75.119">
				<stop  offset="0" style="stop-color:#2E358C"/>
				<stop  offset="1" style="stop-color:#E83189"/>
			</linearGradient>
			<use xlink:href="#SVGID_128_"  style="overflow:visible;fill:url(#SVGID_13_);"/>
			<clipPath id="SVGID_14_">
				<use xlink:href="#SVGID_128_"  style="overflow:visible;"/>
			</clipPath>
			<g style="clip-path:url(#SVGID_14_);">
				<g transform="matrix(1,0,0,1,6.96791,1.36366)">
					<linearGradient id="SVGID_15_" gradientUnits="userSpaceOnUse" x1="-2968.6958" y1="-71.3964" x2="-2975.689" y2="-82.5855">
						<stop  offset="0" style="stop-color:#E69D77"/>
						<stop  offset="1" style="stop-color:#6C6A86"/>
					</linearGradient>
					<ellipse class="st14" cx="-2971.8" cy="-76.3" rx="4.6" ry="5.1"/>
				</g>
			</g>
		</g>
	</g>
	<g transform="matrix(0.947368,0,0,0.947368,2121.33,21.5541)">
		<g>
			<defs>
				<path id="SVGID_132_" d="M-2146-1c0,0,5.1,2.8,6.3,9.5c0.1,0.5,0.4,1,0.9,1.3c0.5,0.3,1,0.3,1.5,0.2c0,0,0,0,0,0
					c0.9-0.3,1.4-1.1,1.3-2.1c-0.4-2.8-1.9-8.5-6.6-10.7C-2142.6-2.8-2145.8-3.1-2146-1z"/>
			</defs>
			<linearGradient id="SVGID_16_" gradientUnits="userSpaceOnUse" x1="-2145.1831" y1="3.6204" x2="-2137.4866" y2="3.6204">
				<stop  offset="0" style="stop-color:#FDE256"/>
				<stop  offset="1" style="stop-color:#FFFFFF"/>
			</linearGradient>
			<use xlink:href="#SVGID_132_"  style="overflow:visible;fill:url(#SVGID_16_);"/>
			<clipPath id="SVGID_17_">
				<use xlink:href="#SVGID_132_"  style="overflow:visible;"/>
			</clipPath>
			<g style="clip-path:url(#SVGID_17_);">
				<g transform="matrix(1,0,0,1,-25.783,12.846)">
					
						<linearGradient id="SVGID_18_" gradientUnits="userSpaceOnUse" x1="-2540.6733" y1="211.8043" x2="-2539.8906" y2="211.8043" gradientTransform="matrix(-10.1179 -20.092 -20.092 10.1179 -23562.3027 -53186.8477)">
						<stop  offset="0" style="stop-color:#FDE256"/>
						<stop  offset="1" style="stop-color:#FFFFFF"/>
					</linearGradient>
					<path class="st17" d="M-2122.9-12.5c0,0,5.1,2.8,6.3,9.5c0.1,0.5,0.4,1,0.9,1.3c0.5,0.3,1,0.3,1.5,0.2c0,0,0,0,0,0
						c0.9-0.3,1.4-1.1,1.3-2.1c-0.4-2.8-1.9-8.5-6.6-10.7C-2119.5-14.3-2122.7-14.6-2122.9-12.5z"/>
				</g>
			</g>
		</g>
	</g>
	<g transform="matrix(1.00134,0,0,1.00134,2048.56,-2.73507)">
		<linearGradient id="SVGID_19_" gradientUnits="userSpaceOnUse" x1="-1945.1281" y1="51.6987" x2="-1931.6825" y2="63.2768">
			<stop  offset="0" style="stop-color:#E69D77"/>
			<stop  offset="1" style="stop-color:#6C6A86"/>
		</linearGradient>
		<path class="st18" d="M-1942.2,77.3c0,0,0.9-25.2,4-31.9c3.1-6.7,13.8-4,12.6,5.4c-0.7,6.1-4.7,17.9-7.4,25.3
			c-0.6,1.6-1.8,2.7-3.4,3.2s-3.3,0.1-4.6-1C-1941.7,77.7-1942.2,77.3-1942.2,77.3z"/>
	</g>
	<g transform="matrix(0.947368,0,0,0.947368,2121.33,21.5541)">
		
			<linearGradient id="SVGID_20_" gradientUnits="userSpaceOnUse" x1="-2573.6189" y1="203.9923" x2="-2572.8362" y2="203.9923" gradientTransform="matrix(34.649 2.7841 2.7841 -34.649 86475.5938 14285.6025)">
			<stop  offset="0" style="stop-color:#E7A67F"/>
			<stop  offset="1" style="stop-color:#1BB3C2"/>
		</linearGradient>
		<path class="st19" d="M-2128.1,34.9c4.7-1.5,11.2-2,13.9,2.1c-1.6,8.3-5,15.6-7.3,21.8c-0.7,1.8-2.4,3.1-4.3,3.3
			c-6.2,0.5-19.8,1.7-23.7,2c-0.7,0.1-1.3,0.4-1.8,0.9c-1.3,1.4-3.9,4.4-3.9,4.4l-5.6-1.7c0,0,3.1-4.1,4.5-5.9c0.4-0.5,1-0.9,1.7-1
			c4.8-0.9,25-4.7,25-4.7S-2129.7,45.4-2128.1,34.9z"/>
	</g>
	<g transform="matrix(0.947368,0,0,0.947368,2121.33,21.5541)">
		
			<linearGradient id="SVGID_21_" gradientUnits="userSpaceOnUse" x1="-2570.0601" y1="205.3072" x2="-2569.2773" y2="205.3072" gradientTransform="matrix(49.504 12.1432 12.1432 -49.504 122538.0859 41433.9961)">
			<stop  offset="0" style="stop-color:#D1BAD2"/>
			<stop  offset="1" style="stop-color:#A5A4CB"/>
		</linearGradient>
		<path class="st20" d="M-2186.2,70.5c0-0.9,0.3-1.7,0.9-2.3c0.6-0.6,1.4-1,2.3-0.9c9.5,0.1,37,0.4,46.4,0.5c0.8,0,1.6,0.4,2.2,1
			c0.6,0.6,0.9,1.4,0.9,2.3c0,0,0,0,0,0c0,1.7-1.4,3.1-3.2,3.1c-9.4,0-37.1-0.1-46.4-0.1c-1.7,0-3.1-1.4-3.2-3.1
			C-2186.2,70.8-2186.2,70.6-2186.2,70.5z"/>
	</g>
	<g transform="matrix(1.26169,0,0,0.947368,1738.45,21.5541)">
		
			<linearGradient id="SVGID_22_" gradientUnits="userSpaceOnUse" x1="-1614.6277" y1="188.241" x2="-1613.845" y2="188.241" gradientTransform="matrix(0 18.6422 10.5106 0 -3298.6377 30174.1699)">
			<stop  offset="0" style="stop-color:#E7A67F"/>
			<stop  offset="1" style="stop-color:#1BB3C2"/>
		</linearGradient>
		<path class="st21" d="M-1292.5,77.7c0-1-0.3-1.9-0.8-2.7c-0.5-0.7-1.2-1.1-2-1.1c-9.5,0-40.1,0-49.6,0c-0.7,0-1.5,0.4-2,1.1
			c-0.5,0.7-0.8,1.7-0.8,2.7l0,0c0,1,0.3,1.9,0.8,2.7s1.2,1.1,2,1.1c9.5,0,40.1,0,49.6,0c0.7,0,1.5-0.4,2-1.1
			S-1292.5,78.7-1292.5,77.7L-1292.5,77.7z"/>
	</g>
	<g transform="matrix(0.485589,0,0,0.947368,2648.47,21.5541)">
		<path class="st128" d="M-5300.6,70.5c0-0.9,0.6-1.7,1.8-2.3c1.2-0.6,2.8-0.9,4.5-0.9c10.3,0.1,30.3,0.3,40.4,0.5
			c3.4,0,6.1,1.5,6,3.2c0,0,0,0,0,0c0,1.7-2.8,3.1-6.2,3.1c-10.1,0-30.3-0.1-40.4-0.1c-3.4,0-6.1-1.4-6.1-3.1
			C-5300.5,70.7-5300.6,70.6-5300.6,70.5z"/>
	</g>
	<g transform="matrix(0.947368,0,0,0.947368,2121.33,21.5541)">
		<g>
			<defs>
				<path id="SVGID_140_" d="M-2198.9,38.2c0,0,23,0.3,27.9,0.4c0.6,0,1.1,0.3,1.4,0.8c2.4,4.7,14.3,28.1,14.3,28.1L-2186,68
					l-13.5-28.5L-2198.9,38.2z"/>
			</defs>
			<linearGradient id="SVGID_23_" gradientUnits="userSpaceOnUse" x1="-2196.3589" y1="34.8833" x2="-2139.8542" y2="92.0256">
				<stop  offset="0" style="stop-color:#E69D77"/>
				<stop  offset="1" style="stop-color:#6C6A86"/>
			</linearGradient>
			<use xlink:href="#SVGID_140_"  style="overflow:visible;fill:url(#SVGID_23_);"/>
			<clipPath id="SVGID_24_">
				<use xlink:href="#SVGID_140_"  style="overflow:visible;"/>
			</clipPath>
			<g style="clip-path:url(#SVGID_24_);">
				<g transform="matrix(1,0,0,1,-17.6499,10.8955)">
					
						<linearGradient id="SVGID_25_" gradientUnits="userSpaceOnUse" x1="-2552.9348" y1="203.6292" x2="-2552.1521" y2="203.6292" gradientTransform="matrix(14.9679 -44.7829 -44.7829 -14.9679 45167.3086 -111230.9375)">
						<stop  offset="0" style="stop-color:#D1BAD2"/>
						<stop  offset="1" style="stop-color:#A5A4CB"/>
					</linearGradient>
					<path class="st24" d="M-2184.3,28.4c0,0,23.2,0.3,28.9,0.4c0.8,0,1.4,0.4,1.8,1.1c2.7,5.3,14.1,27.9,14.1,27.9l-30.7,0.4
						L-2184.3,28.4z"/>
				</g>
			</g>
		</g>
	</g>
</g>
</svg>
